<?xml version="1.0" encoding="UTF-8"?>
<svg width="36px" height="45px" viewBox="0 0 24 30" version="1.1" xmlns="http://www.w3.org/2000/svg" xmlns:xlink="http://www.w3.org/1999/xlink">
    <!-- Generator: Sketch 43.2 (39069) - http://www.bohemiancoding.com/sketch -->
    <title>Commitment</title>
    <defs></defs>
    <g id="Page-1" stroke="none" stroke-width="1" fill="none" fill-rule="evenodd" stroke-linecap="round" stroke-linejoin="round">
        <g id="-Icon54---30x_Grid_set_1_Smart_Stroke" transform="translate(-699.000000, -1147.000000)" stroke="#000000">
            <g id="Business" transform="translate(156.000000, 1092.000000)">
                <g id="Group-67" transform="translate(543.000000, 55.000000)">
                    <path d="M23.5,20 C23.5,21.381 22.381,22.5 21,22.5 C19.619,22.5 18.5,21.381 18.5,20 C18.5,18.619 19.619,17.5 21,17.5 C22.381,17.5 23.5,18.619 23.5,20 L23.5,20 Z" id="Stroke-49"></path>
                    <polyline id="Stroke-51" points="20 22.5 18.5 29.5 21 28.5 23.5 29.5 22 22.5"></polyline>
                    <polyline id="Stroke-53" points="16.5 26.5 0.5 26.5 0.5 7.5 7.5 0.5 21.5 0.5 21.5 15.5"></polyline>
                    <polyline id="Stroke-55" points="0.5 7.5 7.5 7.5 7.5 0.5"></polyline>
                    <path d="M2.5,13.5 L8.5,13.5" id="Stroke-57"></path>
                    <path d="M2.5,18.5 L16.5,18.5" id="Stroke-59"></path>
                    <path d="M2.5,23.5 L7.5,23.5" id="Stroke-61"></path>
                    <path d="M13.5,9.5 C13.565,10.154 14.433,10.501 15.498,10.501 C16.603,10.501 17.5,9.94 17.5,9.251 C17.5,8.231 15.851,8.06 15.502,8 C15.151,7.94 13.5,7.769 13.5,6.749 C13.5,6.059 14.396,5.499 15.502,5.499 C16.567,5.499 17.435,5.849 17.5,6.5" id="Stroke-63"></path>
                    <path d="M15.5,4.5 L15.5,11.5" id="Stroke-65"></path>
                </g>
            </g>
        </g>
    </g>
</svg>
