<?xml version="1.0" encoding="UTF-8"?>
<svg width="57px" height="66px" viewBox="0 0 57 66" version="1.1" xmlns="http://www.w3.org/2000/svg" xmlns:xlink="http://www.w3.org/1999/xlink">
    <!-- Generator: Sketch 42 (36781) - http://www.bohemiancoding.com/sketch -->
    <title>activity_pipeline</title>
    <desc>Created with Sketch.</desc>
    <defs></defs>
    <g id="Page-1" stroke="none" stroke-width="1" fill="none" fill-rule="evenodd">
        <g id="activity_pipeline" fill-rule="nonzero">
            <g id="Profile---commented">
                <g id="Hamutuk-Profile-Copy-10">
                    <g id="activity_post_completed">
                        <g id="Group-3-Copy" fill="#565A5C">
                            <g id="activity-icon-copy">
                                <g id="Capa_1">
                                    <g id="Group">
                                        <path d="M32.914,0 L0.5,0 L0.5,60 L47.5,60 L47.5,14.586 L32.914,0 Z M33.5,3.414 L44.086,14 L33.5,14 L33.5,3.414 Z M2.5,58 L2.5,2 L31.5,2 L31.5,16 L45.5,16 L45.5,58 L2.5,58 Z" id="Shape"></path>
                                        <path d="M36.5,21 L20.5,21 C19.948,21 19.5,21.447 19.5,22 C19.5,22.553 19.948,23 20.5,23 L36.5,23 C37.052,23 37.5,22.553 37.5,22 C37.5,21.447 37.052,21 36.5,21 Z" id="Shape"></path>
                                        <path d="M16.875,18.219 L12.574,21.66 L11.207,20.293 C10.816,19.902 10.184,19.902 9.793,20.293 C9.402,20.684 9.402,21.316 9.793,21.707 L11.793,23.707 C11.987,23.901 12.243,24 12.5,24 C12.72,24 12.941,23.928 13.124,23.781 L18.124,19.781 C18.556,19.435 18.625,18.806 18.28,18.375 C17.936,17.943 17.306,17.874 16.875,18.219 Z" id="Shape"></path>
                                        <path d="M36.5,32 L20.5,32 C19.948,32 19.5,32.447 19.5,33 C19.5,33.553 19.948,34 20.5,34 L36.5,34 C37.052,34 37.5,33.553 37.5,33 C37.5,32.447 37.052,32 36.5,32 Z" id="Shape"></path>
                                        <path d="M16.875,29.219 L12.574,32.66 L11.207,31.293 C10.816,30.902 10.184,30.902 9.793,31.293 C9.402,31.684 9.402,32.316 9.793,32.707 L11.793,34.707 C11.987,34.901 12.243,35 12.5,35 C12.72,35 12.941,34.928 13.124,34.781 L18.124,30.781 C18.556,30.435 18.625,29.806 18.28,29.375 C17.936,28.943 17.306,28.874 16.875,29.219 Z" id="Shape"></path>
                                        <path d="M36.5,43 L20.5,43 C19.948,43 19.5,43.447 19.5,44 C19.5,44.553 19.948,45 20.5,45 L36.5,45 C37.052,45 37.5,44.553 37.5,44 C37.5,43.447 37.052,43 36.5,43 Z" id="Shape"></path>
                                        <path d="M16.875,40.219 L12.574,43.66 L11.207,42.293 C10.816,41.902 10.184,41.902 9.793,42.293 C9.402,42.684 9.402,43.316 9.793,43.707 L11.793,45.707 C11.987,45.901 12.243,46 12.5,46 C12.72,46 12.941,45.928 13.124,45.781 L18.124,41.781 C18.556,41.435 18.625,40.806 18.28,40.375 C17.936,39.943 17.306,39.874 16.875,40.219 Z" id="Shape"></path>
                                    </g>
                                </g>
                            </g>
                        </g>
                        <g id="Time-Icon" transform="translate(34.000000, 40.000000)">
                            <path d="M12.5,13 L10.5,13 L10.5,13 C6.867,11.547 4.5,8.139 4.5,4.36 L4.5,1 L18.5,1 L18.5,4.36 C18.5,8.139 16.133,11.547 12.5,13 L12.5,13 Z" id="Shape" fill="#D0D0D0"></path>
                            <path d="M10.5,13 L12.5,13 L12.5,13 C16.133,14.453 18.5,17.861 18.5,21.64 L18.5,25 L4.5,25 L4.5,21.64 C4.5,17.861 6.867,14.453 10.5,13 L10.5,13 Z" id="Shape" fill="#D0D0D0"></path>
                            <g id="Group" fill="#00A699">
                                <path d="M1.5,2 L2.5,2 L4.5,2 L21.5,2 C22.053,2 22.5,1.552 22.5,1 C22.5,0.448 22.053,0 21.5,0 L4.5,0 L2.5,0 L1.5,0 C0.947,0 0.5,0.448 0.5,1 C0.5,1.552 0.947,2 1.5,2 Z" id="Shape"></path>
                                <path d="M21.499,23.998 L3.499,23.998 C3.496,23.998 3.493,24 3.489,24 L1.5,24 C0.947,24 0.5,24.448 0.5,25 C0.5,25.552 0.947,26 1.5,26 L4.5,26 C4.503,26 4.506,25.998 4.51,25.998 L21.499,25.998 C22.052,25.998 22.499,25.55 22.499,24.998 C22.499,24.446 22.052,23.998 21.499,23.998 Z" id="Shape"></path>
                            </g>
                        </g>
                    </g>
                </g>
            </g>
        </g>
    </g>
</svg>