<?xml version="1.0" encoding="UTF-8"?>
<svg width="22px" height="22px" viewBox="0 0 22 22" version="1.1" xmlns="http://www.w3.org/2000/svg" xmlns:xlink="http://www.w3.org/1999/xlink">
    <title>Edit</title>
    <defs></defs>
    <g id="Page-1" stroke="none" stroke-width="1" fill="none" fill-rule="evenodd">
        <g id="edit" fill-rule="nonzero" fill="#828282">
            <path d="M20.6713571,1.03360714 C19.2924286,-0.344535714 17.0496071,-0.344535714 15.6706786,1.03360714 L1.50346429,15.2008214 C1.49678571,15.2075 1.49285714,15.21575 1.48696429,15.2228214 C1.47871429,15.23225 1.47164286,15.2424643 1.46417857,15.2526786 C1.44335714,15.28175 1.42725,15.3127857 1.41507143,15.3465714 C1.41153571,15.3567857 1.40642857,15.3658214 1.40367857,15.3760357 C1.4025,15.3799643 1.40014286,15.3838929 1.39896429,15.3878214 L0.0102142857,21.22175 C0.00392857143,21.2480714 0.00235714286,21.2747857 0.00157142857,21.3011071 C0.00157142857,21.3062143 0,21.3109286 0,21.3160357 C0.000392857143,21.3608214 0.0102142857,21.4044286 0.0255357143,21.4464643 C0.0290714286,21.4562857 0.033,21.4649286 0.0373214286,21.4743571 C0.0565714286,21.5163929 0.0805357143,21.5568571 0.114321429,21.5906429 C0.151642857,21.6279643 0.195642857,21.6566429 0.243178571,21.6762857 C0.290714286,21.6959286 0.341392857,21.70575 0.392071429,21.70575 C0.422321429,21.70575 0.452964286,21.7022143 0.482821429,21.6951429 L6.31675,20.3063929 C6.32735714,20.3040357 6.33678571,20.2981429 6.347,20.2946071 C6.36035714,20.2902857 6.37292857,20.2851786 6.38589286,20.2792857 C6.41417857,20.2663214 6.4405,20.2502143 6.46485714,20.2309643 C6.47428571,20.2235 6.48410714,20.218 6.49314286,20.20975 C6.49628571,20.2066071 6.50021429,20.2050357 6.50335714,20.2018929 L20.6709643,6.03428571 C22.0498929,4.65535714 22.0498929,2.41214286 20.6713571,1.03360714 Z M20.1158571,1.58910714 C21.0932857,2.56692857 21.1765714,4.10221429 20.3712143,5.17864286 L16.5263214,1.33375 C17.6031429,0.528392857 19.1384286,0.611678571 20.1158571,1.58910714 Z M18.1712143,7.42303571 L14.2819286,3.53375 L14.8374286,2.97825 L18.7267143,6.86753571 L18.1712143,7.42303571 Z M1.94896429,19.756 C1.79535714,19.6023929 1.54707143,19.6023929 1.39346429,19.756 L1.09607143,20.0533929 L2.09942857,15.8388214 L3.83664286,15.6459286 L3.61310714,17.6581429 C3.61153571,17.6730714 3.61703571,17.6868214 3.61703571,17.7013571 C3.61703571,17.7162857 3.61153571,17.7296429 3.61310714,17.7445714 C3.61467857,17.7575357 3.62135714,17.7681429 3.62410714,17.7807143 C3.62882143,17.8035 3.6355,17.8243214 3.64375,17.8455357 C3.65396429,17.8710714 3.66614286,17.89425 3.68107143,17.9166429 C3.69325,17.9347143 3.70542857,17.9508214 3.72035714,17.9665357 C3.73921429,17.9865714 3.75964286,18.0034643 3.78203571,18.0191786 C3.79971429,18.0313571 3.81660714,18.04275 3.83625,18.0521786 C3.86217857,18.0643571 3.88928571,18.0714286 3.91757143,18.0781071 C3.9325,18.0816429 3.94467857,18.0898929 3.96,18.0918571 C3.97414286,18.0934286 3.98828571,18.0942143 4.00282143,18.0942143 C4.00282143,18.0942143 4.00321429,18.0942143 4.00321429,18.0942143 C4.00321429,18.0942143 4.00360714,18.0942143 4.00360714,18.0942143 L4.004,18.0942143 C4.004,18.0942143 4.00439286,18.0942143 4.00439286,18.0942143 C4.01853571,18.0942143 4.03307143,18.0934286 4.04721429,18.0918571 L6.05942857,17.8683214 L5.86653571,19.6055357 L1.65157143,20.6088929 L1.94896429,20.3115 C2.10217857,20.1582857 2.10217857,19.9096071 1.94896429,19.756 Z M6.87932143,17.6035357 L15.6706786,8.81178571 C15.8242857,8.65817857 15.8242857,8.40989286 15.6706786,8.25628571 C15.5170714,8.10267857 15.2687857,8.10267857 15.1151786,8.25628571 L6.32382143,17.0480357 L4.44871429,17.25625 L4.65692857,15.3811429 L13.4490714,6.58978571 C13.6026786,6.43617857 13.6026786,6.18789286 13.4490714,6.03428571 C13.2954643,5.88067857 13.0471786,5.88067857 12.8935714,6.03428571 L4.10142857,14.8256429 L2.85096429,14.9647143 L13.7264286,4.08925 L17.6157143,7.97853571 L6.74025,18.854 L6.87932143,17.6035357 Z M19.2822143,6.31203571 L15.3929286,2.42275 L15.9488214,1.86685714 L19.8381071,5.75614286 L19.2822143,6.31203571 Z" id="Shape"></path>
        </g>
    </g>
</svg>
