<?xml version="1.0" encoding="UTF-8"?>
<svg width="29px" height="19px" viewBox="0 0 29 19" version="1.1" xmlns="http://www.w3.org/2000/svg" xmlns:xlink="http://www.w3.org/1999/xlink">
    <!-- Generator: Sketch 49.2 (51160) - http://www.bohemiancoding.com/sketch -->
    <title>Group 7</title>
    <desc>Created with Sketch.</desc>
    <defs></defs>
    <g id="Page-1" stroke="none" stroke-width="1" fill="none" fill-rule="evenodd" stroke-linecap="round" stroke-linejoin="round">
        <g id="-Icon54---30x_Grid_set_1_Smart_Stroke" transform="translate(-844.000000, -256.000000)" stroke="#000000">
            <g id="Money" transform="translate(840.000000, 128.000000)">
                <g id="Group-7" transform="translate(4.000000, 128.000000)">
                    <polygon id="Stroke-1" points="0.5 18.5 28.5 18.5 28.5 0.5 0.5 0.5"></polygon>
                    <path d="M11.5,11.8936 C11.599,13.0696 12.901,14.0006 14.498,14.0006 C16.155,14.0006 17.5,12.9906 17.5,11.7506 C17.5,9.9166 15.027,9.6086 14.503,9.5006 C13.978,9.3936 11.5,9.0836 11.5,7.2496 C11.5,6.0066 12.845,4.9996 14.503,4.9996 C16.099,4.9996 17.401,5.9306 17.5,7.1056" id="Stroke-3"></path>
                    <path d="M14.5,4.5 L14.5,14.5" id="Stroke-4"></path>
                    <path d="M23.5,3.5 L25.5,3.5" id="Stroke-5"></path>
                    <path d="M3.5,15.5 L5.5,15.5" id="Stroke-6"></path>
                </g>
            </g>
        </g>
    </g>
</svg>