<?xml version="1.0" encoding="UTF-8"?>
<svg width="276px" height="86px" viewBox="0 0 276 86" version="1.1" xmlns="http://www.w3.org/2000/svg" xmlns:xlink="http://www.w3.org/1999/xlink">
    <!-- Generator: Sketch 42 (36781) - http://www.bohemiancoding.com/sketch -->
    <title>HAMUTUK_LOGO_DARK_TYPE@2x</title>
    <desc>Created with Sketch.</desc>
    <defs></defs>
    <g id="Profile---commented" stroke="none" stroke-width="1" fill="none" fill-rule="evenodd">
        <g id="Hamutuk-Profile-Copy-10" transform="translate(-693.000000, -983.000000)">
            <g id="HAMUTUK_LOGO_DARK_TYPE" transform="translate(693.000000, 983.000000)">
                <g id="logo-lockup">
                    <g id="logo">
                        <path d="M57.4770492,29.3040752 C55.195082,37.261442 60.0918033,59.5134796 59.8540984,62.2294671 C59.6163934,64.7548589 57.5721311,66.3749216 55.8606557,65.1360502 C57.6196721,66.7561129 59.9016393,65.0884013 60.1393443,62.4200627 C60.3295082,59.7040752 55.4803279,37.4996865 57.7622951,29.4946708 C59.5688525,23.3956113 59.1885246,20.107837 57.1442623,19.0119122 C58.8557377,20.2984326 59.1409836,23.538558 57.4770492,29.3040752 Z" id="Shape"></path>
                        <path d="M48.8344262,23.2050157 L48.8344262,23.2050157 C48.7344262,19.8695925 48.6344262,16.8677116 48.6344262,14.199373 L48.6344262,13.8658307 L48.6344262,14.2470219 C48.6344262,16.8677116 48.7344262,19.9648903 48.8344262,23.2050157 Z" id="Shape"></path>
                        <path d="M31.804918,24.3962382 C31.852459,28.6369906 29.8081967,34.30721 29.8081967,37.737931 C29.9032787,34.2595611 31.852459,28.6369906 31.804918,24.3962382 Z" id="Shape"></path>
                        <path d="M21.4409836,33.5924765 L21.4409836,33.8424765 L21.4409836,33.5924765 L21.4409836,33.5924765 Z" id="Shape"></path>
                        <path d="M48.6344262,43.5034483 C44.3081967,44.3134796 35.6557377,45.0282132 31.1393443,45.4570533 C31.1393443,45.4570533 33.7540984,62.4200627 33.0885246,64.3736677 C32.042623,67.4231975 28.6672131,66.8037618 27.2409836,66.2319749 C28.3819672,66.8037618 32.0901639,67.7090909 33.3262295,64.4689655 C33.9918033,62.5630094 31.3770492,45.5523511 31.3770492,45.5523511 C35.8934426,45.0758621 44.5934426,44.4087774 48.8721311,43.5987461 C49.204918,43.5510972 49.5377049,43.5510972 49.8229508,43.646395 C49.442623,43.5034483 49.0622951,43.4557994 48.6344262,43.5034483 Z" id="Shape"></path>
                        <path d="M46.6377049,6.14670846 C45.9721311,5.52727273 45.1163934,5.24137931 44.1180328,5.24137931 C42.9770492,5.24137931 41.5983607,5.57492163 40.0295082,6.19435737 C41.5508197,5.62257053 42.9295082,5.28902821 44.1180328,5.28902821 C45.1163934,5.24137931 45.9721311,5.52727273 46.6377049,6.14670846 Z" id="Shape"></path>
                        <path d="M17.495082,46.6959248 C19.0639344,42.5028213 20.5377049,38.1667712 21.4885246,33.830721 L21.4885246,33.5924765 C21.3934426,27.3981191 21.3934426,24.9203762 22.7721311,22.061442 C23.342623,20.9178683 24.2934426,20.107837 25.1491803,19.5360502 C25.1967213,19.5360502 25.1967213,19.4884013 25.2442623,19.4884013 C26.5754098,16.1053292 28.3344262,12.9128527 30.9491803,10.1015674 C27.0032787,11.6739812 22.6295082,13.0081505 17.8754098,13.0081505 C16.5918033,13.0081505 15.3557377,12.9128527 14.0245902,12.6746082 C12.6459016,12.4363636 11.4098361,12.3410658 10.2688525,12.3410658 C-4.04098361,12.3410658 1.52131148,30.0188088 1.52131148,49.3642633 C1.52131148,68.2808777 -0.427868852,73.7605016 13.6442623,76.7147335 C11.695082,70.4727273 12.2655738,60.5617555 17.495082,46.6959248 Z" id="Shape" fill="#66C1B8" fill-rule="nonzero"></path>
                        <path d="M48.9672131,35.4984326 L48.9672131,37.0231975 C49.1172131,36.9278997 49.0672131,36.3084639 48.9672131,35.4984326 Z" id="Shape" fill="#0A2530" fill-rule="nonzero"></path>
                        <path d="M58.1901639,0.238244514 C57.3819672,0.238244514 56.4786885,0.238244514 55.5754098,0.33354232 C43.2147541,1.47711599 35.6557377,5.0031348 30.9967213,10.0062696 C31.6622951,9.67272727 32.4704918,9.43448276 33.1360656,9.10094044 C34.657377,8.4338558 36.0836066,7.81442006 37.4147541,7.24263323 C38.3180328,6.86144201 39.1737705,6.48025078 39.9819672,6.19435737 C41.5508197,5.62257053 42.8819672,5.24137931 44.0704918,5.24137931 C45.0688525,5.24137931 45.8770492,5.52727273 46.5901639,6.14670846 C47.7786885,7.19498433 48.4442623,9.29153605 48.5868852,12.8652038 L48.5868852,13.0557994 L48.5868852,13.3416928 L48.5868852,13.6752351 L48.5868852,13.9611285 L48.5868852,14.2946708 C48.5868852,16.9630094 48.6819672,19.9172414 48.7770492,23.3003135 C49.5377049,19.6789969 51.3918033,18.4401254 54.8147541,18.4401254 C55.7180328,18.4401254 56.4786885,18.630721 57.0967213,19.10721 C59.1409836,20.2507837 59.5213115,23.4909091 57.7147541,29.5899687 C55.4327869,37.5473354 60.3295082,59.799373 60.0918033,62.5153605 C59.8540984,65.1836991 57.5721311,66.8514107 55.8131148,65.231348 C55.052459,64.6595611 54.3393443,63.5636364 53.9114754,61.6100313 C52.7229508,55.7968652 52.8655738,45.3141066 49.7754098,43.7416928 C49.4901639,43.646395 49.204918,43.646395 48.8245902,43.6940439 C47.6836066,66.2796238 43.5,78.4777429 20.9180328,78.5253918 C18.0655738,78.5730408 17.304918,78.5253918 13.6442623,76.8576803 C15.3557377,82.4326019 19.3491803,85.2915361 25.4819672,85.2915361 C29.4754098,85.2915361 34.2295082,84.1479624 39.6967213,82.0990596 C75.1147541,68.1855799 64.1803279,62.277116 69.0770492,41.9786834 C73.7360656,22.4426332 75.447541,0.238244514 58.1901639,0.238244514 Z" id="Shape" fill="#0A2530" fill-rule="nonzero"></path>
                        <path d="M30.1409836,19.7742947 C31.3770492,20.7749216 31.804918,22.4426332 31.804918,24.3962382 C31.852459,28.6369906 29.9032787,34.2595611 29.8081967,37.737931 C29.8081967,38.2144201 29.8557377,38.6432602 29.9032787,39.0244514 C33.6590164,38.6909091 46.9229508,37.6426332 48.8721311,36.9755486 L48.9672131,36.9755486 L48.9672131,36.9755486 L48.9672131,35.4507837 C48.9196721,35.1172414 48.8721311,34.6884013 48.8721311,34.2595611 C48.7770492,32.7824451 48.5393443,30.8288401 48.5393443,29.3517241 C48.5393443,27.5410658 48.6344262,26.0639498 48.6344262,24.5868339 C48.6819672,24.0626959 48.7770492,23.6338558 48.8721311,23.2050157 C48.7770492,19.9172414 48.6819672,16.8677116 48.6819672,14.199373 L48.6819672,13.8181818 L48.6819672,13.5322884 L48.6819672,13.1987461 L48.6819672,12.9128527 L48.6819672,12.7222571 C48.5393443,9.14858934 47.8737705,7.05203762 46.6852459,6.00376176 C46.0196721,5.38432602 45.1639344,5.0984326 44.1655738,5.0984326 C42.9770492,5.0984326 41.6459016,5.43197492 40.0770492,6.00376176 C39.2688525,6.28965517 38.4131148,6.67084639 37.5098361,7.05203762 C36.1786885,7.62382445 34.752459,8.29090909 33.2311475,8.95799373 C32.5655738,9.29153605 31.852459,9.52978056 31.0918033,9.86332288 C31.0442623,9.91097179 30.9967213,9.95862069 30.9967213,9.95862069 C28.3819672,12.7222571 26.6229508,15.9147335 25.2918033,19.3454545 C26.7655738,18.6783699 28.6672131,18.5830721 30.1409836,19.7742947 Z" id="Shape" fill="#008886" fill-rule="nonzero"></path>
                        <path d="M20.9655738,78.4777429 C43.595082,78.430094 47.7786885,66.2319749 48.8721311,43.646395 C44.5459016,44.4564263 35.8934426,45.123511 31.3770492,45.6 C31.3770492,45.6 33.9918033,62.6106583 33.3262295,64.5166144 C32.0901639,67.7567398 28.3819672,66.8514107 27.2409836,66.2796238 C27.1459016,66.2319749 27.0032787,66.184326 26.9557377,66.1366771 C21.4885246,62.9442006 21.2508197,52.8902821 21.4885246,36.1655172 L21.4885246,33.8783699 C20.5852459,38.2144201 19.1114754,42.5504702 17.495082,46.7435737 C12.2655738,60.6094044 11.695082,70.5203762 13.6442623,76.8100313 C13.6442623,76.8100313 13.6442623,76.8100313 13.6442623,76.8576803 C13.6918033,76.8576803 13.6918033,76.8576803 13.6918033,76.9053292 C17.304918,78.4777429 18.1131148,78.4777429 20.9655738,78.4777429 Z" id="Shape" fill="#008886" fill-rule="nonzero"></path>
                        <path d="M48.5868852,24.5868339 C48.6344262,26.0639498 48.4918033,27.5410658 48.4918033,29.3517241 C48.4918033,30.8288401 48.7295082,32.7824451 48.8245902,34.2595611 C48.8721311,34.6884013 48.9196721,35.1172414 48.9196721,35.4507837 C49.0147541,36.3084639 49.0622951,36.8802508 48.9196721,36.9755486 L48.9196721,36.9755486 L48.8245902,36.9755486 C46.8754098,37.6426332 33.5639344,38.6909091 29.8557377,39.0244514 C29.7606557,38.6432602 29.7606557,38.2144201 29.7606557,37.737931 C29.8081967,34.2595611 31.804918,28.6369906 31.757377,24.3962382 C31.757377,22.4426332 31.3295082,20.7749216 30.0934426,19.7742947 C28.6672131,18.5354232 26.7180328,18.630721 25.1491803,19.4884013 C25.1016393,19.4884013 25.1016393,19.5360502 25.0540984,19.5360502 C24.1508197,20.107837 23.247541,20.9178683 22.6770492,22.061442 C21.2983607,24.9203762 21.2983607,27.3981191 21.3934426,33.5924765 L21.3934426,33.5924765 L21.3934426,33.830721 L21.3934426,36.1178683 C21.1557377,52.8902821 21.3934426,62.8965517 26.8606557,66.0890282 C26.9557377,66.1366771 27.0508197,66.184326 27.1459016,66.2319749 C28.5721311,66.8037618 31.9,67.4231975 32.9934426,64.3736677 C33.6590164,62.4200627 31.0442623,45.4570533 31.0442623,45.4570533 C35.5606557,45.0282132 44.2606557,44.3134796 48.5393443,43.5034483 C48.9672131,43.4557994 49.347541,43.5034483 49.7278689,43.6940439 C52.8180328,45.2664577 52.6754098,55.7015674 53.8639344,61.5623824 C54.2918033,63.4683386 55.004918,64.6119122 55.7655738,65.1836991 C57.4770492,66.3749216 59.5213115,64.7548589 59.7590164,62.277116 C59.9967213,59.5611285 55.1,37.3090909 57.3819672,29.3517241 C59.0459016,23.5862069 58.7606557,20.3460815 57.0491803,19.0595611 C56.4786885,18.630721 55.6704918,18.3924765 54.7672131,18.3924765 C51.2967213,18.3924765 49.4901639,19.6789969 48.7770492,23.2526646 L48.7770492,23.2526646 C48.7295082,23.6338558 48.6819672,24.1103448 48.5868852,24.5868339 Z" id="Shape" fill="#FFFFFF" fill-rule="nonzero"></path>
                    </g>
                    <g id="Type" transform="translate(102.000000, 20.000000)" fill-rule="nonzero" fill="#0A2530">
                        <path d="M18.4934426,11.2451411 C17.9229508,10.6733542 17.2098361,10.1968652 16.3540984,9.86332288 C15.5459016,9.48213166 14.7377049,9.29153605 13.8344262,9.29153605 L12.9786885,9.29153605 C9.93606557,9.29153605 7.8442623,10.4827586 6.51311475,12.8175549 L6.51311475,4.81253918 C6.51311475,1.90595611 5.32459016,0.381191223 3.13770492,0.381191223 C1.94918033,0.381191223 1.14098361,0.762382445 0.713114754,1.42946708 C0.285245902,2.09655172 0.0475409836,3.28777429 0.0475409836,4.66959248 L0.0475409836,25.6827586 C0.0475409836,28.3987461 0.950819672,29.923511 2.66229508,29.923511 L3.04262295,29.923511 C4.23114754,29.923511 5.18196721,29.5423197 5.56229508,28.8752351 C6.13278689,28.2081505 6.3704918,27.1122257 6.3704918,25.6351097 L6.3704918,17.9159875 C6.3704918,16.5341693 6.79836066,15.3905956 7.65409836,14.5329154 C8.46229508,13.722884 9.41311475,13.246395 10.5540984,13.246395 C11.6,13.246395 12.4081967,13.6275862 12.9786885,14.2946708 C13.5491803,14.9617555 13.8819672,15.9147335 13.8819672,17.0583072 L13.8819672,25.6351097 C13.8819672,28.5416928 14.9278689,30.0664577 17.1147541,30.0664577 C18.3032787,30.0664577 19.1114754,29.6852665 19.6344262,29.0181818 C20.204918,28.3510972 20.442623,27.2551724 20.442623,25.7780564 L20.442623,16.8200627 C20.442623,15.6288401 20.157377,14.6282132 19.8721311,13.5799373 C19.6344262,12.6269592 19.1114754,11.8645768 18.4934426,11.2451411 Z" id="Shape"></path>
                        <path d="M40.6,11.2451411 C39.7918033,10.5780564 38.8409836,10.0539185 37.842623,9.72037618 C36.7967213,9.33918495 35.6557377,9.29153605 34.2295082,9.29153605 C32.9459016,9.29153605 31.5672131,9.38683386 30.0934426,9.72037618 C28.5721311,10.1015674 27.4311475,10.3874608 26.4803279,10.9115987 C25.8147541,11.29279 25.2918033,11.8169279 25.2918033,12.6746082 C25.2918033,13.4846395 25.6721311,14.0564263 26.1,14.6758621 C26.4327869,15.0570533 26.7655738,15.2476489 27.1459016,15.2476489 C27.4311475,15.2476489 27.6688525,15.2 27.9065574,15.0570533 C30.1885246,14.0087774 32.1852459,13.5322884 33.8016393,13.5322884 C36.0360656,13.5322884 37.1770492,14.5805643 37.1770492,16.6294671 L37.1770492,17.8206897 C32.4229508,17.8206897 29.047541,18.2495298 27.0508197,19.2025078 C25.0540984,20.107837 24.1508197,21.8708464 24.1508197,24.4438871 C24.1508197,26.2068966 24.7213115,27.5410658 26.004918,28.5893417 C27.2885246,29.7805643 28.904918,30.3523511 30.7590164,30.4476489 L31.1393443,30.4476489 C34.3721311,30.4476489 36.4639344,29.0658307 37.3196721,26.49279 L37.3196721,26.8739812 C37.3196721,27.7793103 37.604918,28.4940439 37.8901639,29.0658307 C38.2704918,29.6376176 38.6983607,29.9711599 39.2688525,30.1141066 C39.6016393,30.1617555 39.8868852,30.1617555 40.1721311,30.1617555 C40.504918,30.1617555 40.7901639,30.1617555 40.9803279,30.1141066 C41.4081967,30.0188088 42.0262295,29.6852665 42.3590164,29.0658307 C42.7393443,28.4940439 42.9295082,27.6840125 42.9295082,26.8739812 L42.9295082,18.154232 C42.9295082,16.5341693 42.6442623,15.1047022 42.2639344,14.0087774 C41.9786885,12.8652038 41.4081967,11.9598746 40.6,11.2451411 Z M37.2721311,21.7278997 C37.2721311,23.2526646 36.7016393,24.4915361 35.6557377,25.4445141 C34.6098361,26.3498433 33.4688525,26.8263323 32.4229508,26.8263323 C31.6147541,26.8263323 31.0442623,26.4451411 30.5688525,26.0163009 C30.1409836,25.5874608 29.9032787,24.8250784 29.9032787,24.1579937 C29.9032787,23.7291536 29.9032787,23.3479624 29.9983607,22.9667712 C30.0934426,22.5855799 30.2836066,22.3949843 30.4262295,22.1567398 C30.7114754,21.8708464 30.8540984,21.7278997 31.2344262,21.584953 C31.6147541,21.4896552 31.9,21.2990596 32.2803279,21.2037618 C32.6606557,21.1084639 33.0885246,21.1084639 33.6590164,20.9178683 C34.2295082,20.7749216 34.704918,20.8225705 35.2754098,20.8225705 L37.2721311,20.8225705 L37.2721311,21.7278997 L37.2721311,21.7278997 Z" id="Shape"></path>
                        <path d="M75.4,9.29153605 C74.5918033,9.29153605 73.7836066,9.29153605 73.2131148,9.38683386 C72.642623,9.48213166 71.9295082,9.67272727 71.2163934,9.95862069 C70.5508197,10.3398119 69.9327869,10.768652 69.3622951,11.3404389 C68.7918033,11.9122257 68.3163934,12.6269592 67.8409836,13.5322884 C67.5557377,12.7222571 67.2704918,12.0075235 66.795082,11.3404389 C66.3672131,10.6733542 65.8918033,10.1492163 65.2737705,9.95862069 C64.7032787,9.67272727 64.0852459,9.52978056 63.5147541,9.38683386 C62.9442623,9.29153605 62.2311475,9.29153605 61.3754098,9.29153605 C59.7590164,9.29153605 58.2852459,9.67272727 57.0967213,10.3398119 C55.9081967,11.0068966 54.957377,12.1028213 54.5770492,13.4369906 L54.5770492,13.0081505 C54.5770492,11.8169279 54.2918033,11.0068966 53.7688525,10.4827586 C53.1983607,9.91097179 52.3901639,9.67272727 51.3442623,9.67272727 C50.1557377,9.67272727 49.4901639,10.0539185 48.9196721,10.7210031 C48.3491803,11.3880878 48.1114754,12.4840125 48.1114754,13.8181818 L48.1114754,25.7780564 C48.1114754,27.1598746 48.3967213,28.3034483 48.7770492,29.0181818 C49.204918,29.6376176 49.9180328,30.0664577 50.6311475,30.0664577 L50.9163934,30.0664577 C53.1508197,30.0664577 54.2918033,28.5416928 54.2918033,25.6351097 L54.2918033,17.4394984 C54.2918033,16.1529781 54.6721311,15.1523511 55.4803279,14.3899687 C56.2885246,13.722884 57.2393443,13.3416928 58.5229508,13.3416928 C59.4262295,13.3416928 60.2819672,13.722884 60.804918,14.3899687 C61.3754098,15.0570533 61.6131148,16.1529781 61.6131148,17.4871473 L61.6131148,25.6351097 C61.6131148,28.5416928 62.8016393,30.0664577 64.8459016,30.0664577 C66.0344262,30.0664577 66.842623,29.6852665 67.3655738,29.0181818 C67.8885246,28.3510972 68.1737705,27.2551724 68.1737705,25.7780564 L68.1737705,17.8683386 C68.1737705,16.3435737 68.5540984,15.3429467 69.3622951,14.4852665 C70.1704918,13.6752351 71.2163934,13.2940439 72.404918,13.2940439 C73.3081967,13.2940439 74.1639344,13.6752351 74.6868852,14.3423197 C75.257377,15.0094044 75.5901639,15.9623824 75.5901639,17.1059561 L75.5901639,25.6827586 C75.5901639,28.5893417 76.6360656,30.1141066 78.8229508,30.1141066 C80.0114754,30.1141066 80.6770492,29.7329154 81.247541,29.0658307 C81.8180328,28.3987461 82.0557377,27.3028213 82.0557377,25.8257053 L82.0557377,16.8677116 C82.0557377,14.3423197 81.3901639,12.4363636 80.2016393,11.1498433 C79.0606557,9.95862069 77.3016393,9.29153605 75.4,9.29153605 Z" id="Shape"></path>
                        <path d="M100.881967,26.49279 L100.881967,26.7786834 C100.881967,29.2087774 101.927869,30.4 103.972131,30.4 C105.018033,30.4 105.82623,30.1141066 106.396721,29.5899687 C106.967213,29.0181818 107.204918,28.0652038 107.204918,26.9216301 L107.204918,14.199373 C107.204918,12.8175549 107.109836,11.6739812 106.539344,10.9592476 C105.968852,10.292163 105.160656,9.91097179 104.114754,9.91097179 C102.92623,9.91097179 102.118033,10.292163 101.595082,10.9592476 C101.02459,11.6263323 100.786885,12.8175549 100.786885,14.199373 L100.786885,21.6326019 C100.786885,22.9191223 100.406557,24.0626959 99.5983607,24.8727273 C98.7901639,25.6827586 97.7442623,26.1592476 96.5557377,26.1592476 C95.652459,26.1592476 94.7967213,25.8733542 94.2737705,25.2539185 C93.7032787,24.5868339 93.3704918,23.6338558 93.3704918,22.4902821 L93.3704918,14.1040752 C93.3704918,12.7222571 93.2754098,11.5786834 92.704918,10.8639498 C92.1344262,10.1492163 91.3262295,9.81567398 90.2803279,9.81567398 C89.0918033,9.81567398 88.2836066,10.1968652 87.7606557,10.8639498 C87.1901639,11.5310345 86.952459,12.7222571 86.952459,14.1040752 L86.952459,22.537931 C86.952459,24.9680251 87.6180328,26.969279 89.0918033,28.3510972 C90.4704918,29.7329154 92.1819672,30.4952978 94.3213115,30.6382445 C96.0803279,30.6382445 97.3639344,30.2570533 98.457377,29.5899687 C99.4557377,28.922884 100.263934,27.8746082 100.881967,26.49279 Z" id="Shape"></path>
                        <path d="M125.318033,29.2087774 C125.603279,28.922884 125.698361,28.6369906 125.698361,28.1605016 C125.698361,27.6840125 125.698361,27.3504702 125.603279,26.969279 C125.508197,26.5880878 125.318033,26.3021944 125.032787,26.0639498 C124.652459,25.7780564 124.367213,25.6827586 123.986885,25.6827586 L122.798361,25.7780564 C121.752459,25.7780564 120.944262,25.3968652 120.611475,24.8727273 C120.231148,24.3009404 120.040984,23.0144201 120.040984,21.2514107 L120.040984,14.0564263 L122.322951,14.0564263 C123.131148,14.0564263 123.701639,13.7705329 124.081967,13.4846395 C124.462295,13.1034483 124.652459,12.5793103 124.652459,11.8645768 C124.652459,10.3398119 123.986885,9.57742947 122.513115,9.57742947 L120.088525,9.57742947 L120.088525,5.86081505 C120.088525,3.09717868 119.280328,1.7153605 117.568852,1.7153605 C115.714754,1.7153605 114.668852,3.00188088 114.478689,5.57492163 L114.05082,9.52978056 L112.291803,9.52978056 C110.770492,9.52978056 110.104918,10.1968652 110.104918,11.6739812 C110.104918,12.4840125 110.2,13.0557994 110.67541,13.4369906 C111.103279,13.7705329 111.578689,14.0087774 112.434426,14.0087774 L113.718033,14.0087774 L113.718033,22.7285266 C113.718033,25.492163 114.145902,27.4934169 115.334426,28.6369906 C116.522951,29.8282132 117.996721,30.4952978 119.85082,30.6382445 C122.037705,30.6382445 123.701639,30.3523511 124.604918,30.0664577 C124.795082,29.8758621 125.080328,29.4946708 125.318033,29.2087774 Z" id="Shape"></path>
                        <path d="M149.183607,26.7786834 L149.183607,14.1040752 C149.183607,12.7222571 149.088525,11.5786834 148.518033,10.8639498 C147.947541,10.1968652 147.139344,9.81567398 146.093443,9.81567398 C144.904918,9.81567398 144.096721,10.1968652 143.57377,10.8639498 C143.003279,11.5310345 142.765574,12.7222571 142.765574,14.1040752 L142.765574,21.6326019 C142.765574,22.9191223 142.385246,24.0626959 141.577049,24.8727273 C140.768852,25.6827586 139.722951,26.1592476 138.534426,26.1592476 C137.631148,26.1592476 136.77541,25.8733542 136.252459,25.2539185 C135.681967,24.5868339 135.34918,23.6338558 135.34918,22.4902821 L135.34918,14.1040752 C135.34918,12.7222571 135.254098,11.5786834 134.683607,10.8639498 C134.113115,10.1968652 133.304918,9.81567398 132.259016,9.81567398 C131.070492,9.81567398 130.262295,10.1968652 129.739344,10.8639498 C129.168852,11.5310345 128.931148,12.7222571 128.931148,14.1040752 L128.931148,22.537931 C128.931148,24.9680251 129.596721,26.969279 131.070492,28.3510972 C132.44918,29.7329154 134.160656,30.4952978 136.3,30.6382445 C138.059016,30.6382445 139.342623,30.2570533 140.436066,29.5899687 C141.62459,28.922884 142.432787,27.8269592 142.955738,26.49279 L142.955738,26.7786834 C142.955738,29.2087774 144.001639,30.4 146.045902,30.4 C147.091803,30.4 147.9,30.1141066 148.470492,29.5899687 C148.898361,28.922884 149.183607,27.969906 149.183607,26.7786834 Z" id="Shape"></path>
                        <path d="M173.334426,25.8257053 L173.04918,25.3968652 L167.24918,19.1548589 L172.193443,14.0564263 C172.621311,13.4846395 172.859016,12.8652038 172.859016,12.2934169 C172.859016,11.7216301 172.763934,11.1021944 172.431148,10.6733542 C172.05082,10.2445141 171.765574,9.76802508 171.242623,9.48213166 C170.909836,9.29153605 170.481967,9.19623824 170.054098,9.19623824 C169.959016,9.19623824 169.721311,9.19623824 169.62623,9.24388715 C169.055738,9.33918495 168.437705,9.67272727 168.009836,10.292163 L160.498361,18.3448276 L160.498361,4.76489028 C160.498361,1.85830721 159.309836,0.476489028 157.122951,0.476489028 C155.934426,0.476489028 155.12623,0.857680251 154.698361,1.52476489 C154.270492,2.19184953 154.032787,3.3830721 154.032787,4.76489028 L154.032787,25.7780564 C154.032787,27.1598746 154.318033,28.3034483 154.698361,29.0181818 C155.12623,29.8282132 155.981967,30.2094044 157.218033,30.2094044 L157.218033,30.2094044 C159.404918,30.2094044 160.593443,28.8275862 160.593443,25.9210031 L160.593443,20.0125392 L168.104918,28.8275862 C168.770492,29.6852665 169.62623,30.1141066 170.529508,30.1141066 C170.719672,30.1141066 170.909836,30.1141066 171.1,30.0664577 C172.003279,29.9711599 172.716393,29.4946708 173.239344,28.6846395 C173.904918,27.7316614 173.904918,26.7786834 173.334426,25.8257053 Z" id="Shape"></path>
                        <path d="M1.23606557,37.9761755 L3.85081967,37.9761755 C4.18360656,37.9761755 4.51639344,38.0238245 4.84918033,38.0714734 C5.18196721,38.1191223 5.46721311,38.262069 5.75245902,38.4526646 C6.03770492,38.6432602 6.27540984,38.8338558 6.41803279,39.1197492 C6.60819672,39.4532915 6.70327869,39.7868339 6.70327869,40.2633229 C6.70327869,40.692163 6.60819672,41.1210031 6.27540984,41.5021944 C5.94262295,41.8833856 5.60983607,42.0739812 5.13442623,42.169279 L5.13442623,42.169279 C5.70491803,42.2169279 6.18032787,42.5028213 6.56065574,42.8363636 C6.94098361,43.2175549 7.13114754,43.6940439 7.13114754,44.4087774 C7.13114754,44.7899687 7.08360656,45.0758621 6.84590164,45.4094044 C6.75081967,45.7429467 6.46557377,45.9811912 6.22786885,46.1717868 C5.94262295,46.3623824 5.60983607,46.5529781 5.18196721,46.6959248 C4.75409836,46.8388715 4.32622951,46.8865204 3.80327869,46.8865204 L1.18852459,46.8865204 L1.23606557,37.9761755 L1.23606557,37.9761755 Z M2.09180328,41.8357367 L3.89836066,41.8357367 C4.08852459,41.8357367 4.32622951,41.8357367 4.51639344,41.7880878 C4.80163934,41.7404389 4.9442623,41.69279 5.13442623,41.5021944 C5.32459016,41.3592476 5.46721311,41.168652 5.56229508,40.9780564 C5.65737705,40.7874608 5.75245902,40.5492163 5.75245902,40.215674 C5.75245902,39.9297806 5.70491803,39.6915361 5.56229508,39.5485893 C5.41967213,39.4056426 5.27704918,39.1673981 5.13442623,39.0244514 C4.99180328,38.8815047 4.70655738,38.8338558 4.46885246,38.738558 C4.18360656,38.6909091 3.89836066,38.6909091 3.66065574,38.6909091 L2.09180328,38.6909091 L2.09180328,41.8357367 L2.09180328,41.8357367 Z M2.09180328,45.9811912 L3.7557377,45.9811912 C4.08852459,45.9811912 4.37377049,45.9811912 4.65901639,45.9335423 C4.99180328,45.8858934 5.2295082,45.7429467 5.41967213,45.6 C5.70491803,45.5047022 5.8,45.2664577 5.99016393,45.0282132 C6.0852459,44.7423197 6.18032787,44.5040752 6.18032787,44.2181818 C6.18032787,43.646395 5.99016393,43.2175549 5.60983607,42.9316614 C5.2295082,42.5981191 4.70655738,42.5028213 3.94590164,42.5028213 L2.13934426,42.5028213 L2.09180328,45.9811912 L2.09180328,45.9811912 L2.09180328,45.9811912 Z" id="Shape" stroke="#0A2530"></path>
                        <polygon id="Shape" stroke="#0A2530" points="14.452459 45.9335423 19.1590164 45.9335423 19.1590164 46.7435737 13.5491803 46.7435737 13.5491803 37.9761755 19.0163934 37.9761755 19.0163934 38.7862069 14.5 38.7862069 14.5 41.8357367 18.7786885 41.8357367 18.7786885 42.645768 14.5 42.645768 14.5 45.9335423"></polygon>
                        <polygon id="Shape" stroke="#0A2530" points="28.0967213 46.7435737 27.2409836 46.7435737 27.2409836 38.738558 24.3409836 38.738558 24.3409836 37.9285266 31.0918033 37.9285266 31.0918033 38.738558 28.1918033 38.738558 28.1918033 46.7435737"></polygon>
                        <polygon id="Shape" stroke="#0A2530" points="39.6016393 46.7435737 38.7459016 46.7435737 38.7459016 38.738558 35.8459016 38.738558 35.8459016 37.9285266 42.5967213 37.9285266 42.5967213 38.738558 39.6967213 38.738558 39.6967213 46.7435737"></polygon>
                        <polygon id="Shape" stroke="#0A2530" points="49.157377 45.9335423 53.8639344 45.9335423 53.8639344 46.7435737 48.2540984 46.7435737 48.2540984 37.9761755 53.7213115 37.9761755 53.7213115 38.7862069 49.204918 38.7862069 49.204918 41.8357367 53.4836066 41.8357367 53.4836066 42.645768 49.204918 42.645768 49.157377 45.9335423"></polygon>
                        <path d="M60.852459,46.7435737 L59.9967213,46.7435737 L59.9967213,37.9761755 L62.6114754,37.9761755 C63.0393443,37.9761755 63.4196721,38.0238245 63.8,38.0714734 C64.1803279,38.1191223 64.4655738,38.262069 64.7032787,38.5003135 C64.9885246,38.6909091 65.2262295,38.9291536 65.3213115,39.2626959 C65.4163934,39.5962382 65.6065574,39.9297806 65.6065574,40.4062696 C65.6065574,40.7398119 65.5590164,41.0257053 65.4163934,41.2639498 C65.3213115,41.5498433 65.1311475,41.7880878 64.8934426,41.9310345 C64.6081967,42.1216301 64.4655738,42.3122257 64.2278689,42.4551724 C63.942623,42.5504702 63.657377,42.645768 63.3721311,42.7410658 L65.8918033,46.8865204 L64.7983607,46.8865204 L62.3737705,42.7887147 L60.852459,42.7887147 L60.852459,46.7435737 L60.852459,46.7435737 L60.852459,46.7435737 Z M60.852459,41.8833856 L62.4213115,41.8833856 C63.1819672,41.8833856 63.704918,41.7880878 64.0852459,41.5021944 C64.4655738,41.2163009 64.6557377,40.8827586 64.6557377,40.3109718 C64.6557377,39.9774295 64.6081967,39.739185 64.4655738,39.5485893 C64.3704918,39.3579937 64.1803279,39.1673981 64.0377049,39.0244514 C63.847541,38.9291536 63.6098361,38.8338558 63.3721311,38.738558 C63.0868852,38.6909091 62.8016393,38.6909091 62.4688525,38.6909091 L60.852459,38.6909091 L60.852459,41.8833856 L60.852459,41.8833856 L60.852459,41.8833856 Z" id="Shape" stroke="#0A2530"></path>
                        <polygon id="Shape" stroke="#0A2530" points="81.8655738 46.7435737 81.0098361 46.7435737 81.0098361 38.738558 78.1098361 38.738558 78.1098361 37.9285266 84.8131148 37.9285266 84.8131148 38.738558 81.9131148 38.738558"></polygon>
                        <path d="M98.8852459,42.3122257 C98.8852459,42.9793103 98.7901639,43.5987461 98.504918,44.1705329 C98.2196721,44.7423197 97.9344262,45.2188088 97.5065574,45.6 C97.0786885,46.0288401 96.6508197,46.3623824 96.0803279,46.5053292 C95.5098361,46.7912226 94.8918033,46.8865204 94.2737705,46.8865204 C93.6081967,46.8865204 93.0377049,46.7912226 92.4672131,46.5053292 C91.8967213,46.2194357 91.4213115,45.9335423 91.0409836,45.6 C90.6131148,45.1711599 90.2803279,44.7423197 90.042623,44.1705329 C89.757377,43.5987461 89.6622951,42.9793103 89.6622951,42.3122257 C89.6622951,41.6451411 89.757377,41.0257053 90.042623,40.4539185 C90.3278689,39.8821317 90.6131148,39.4056426 91.0409836,38.9291536 C91.4688525,38.5003135 91.8967213,38.1667712 92.4672131,38.0238245 C93.0377049,37.737931 93.6557377,37.6426332 94.2737705,37.6426332 C94.9393443,37.6426332 95.5098361,37.737931 96.0803279,38.0238245 C96.6508197,38.3097179 97.1262295,38.5956113 97.5065574,38.9291536 C97.9344262,39.3579937 98.2672131,39.7868339 98.504918,40.4539185 C98.7901639,41.0733542 98.8852459,41.69279 98.8852459,42.3122257 Z M97.8868852,42.3122257 C97.8868852,41.7880878 97.8393443,41.3115987 97.6016393,40.7874608 C97.4114754,40.3586207 97.1737705,39.9297806 96.8409836,39.5485893 C96.5081967,39.1673981 96.1754098,38.9291536 95.7,38.738558 C95.2721311,38.5479624 94.7967213,38.4050157 94.1311475,38.4050157 C93.5606557,38.4050157 93.0852459,38.5003135 92.5622951,38.738558 C92.1344262,38.9291536 91.7540984,39.2626959 91.4213115,39.5485893 C91.0885246,39.8821317 90.8508197,40.3109718 90.6606557,40.7874608 C90.4704918,41.2163009 90.3754098,41.69279 90.3754098,42.3122257 C90.3754098,42.8363636 90.4229508,43.3128527 90.6606557,43.8369906 C90.8508197,44.2658307 91.0885246,44.6946708 91.4213115,45.0758621 C91.7540984,45.4570533 92.0868852,45.6952978 92.5622951,45.8858934 C92.9901639,46.076489 93.4655738,46.2194357 94.1311475,46.2194357 C94.7016393,46.2194357 95.1770492,46.1241379 95.7,45.8858934 C96.1278689,45.6952978 96.5081967,45.3617555 96.8409836,45.0758621 C97.1737705,44.6946708 97.4114754,44.3134796 97.6016393,43.8369906 C97.8393443,43.4081505 97.8868852,42.8840125 97.8868852,42.3122257 Z" id="Shape" stroke="#0A2530"></path>
                        <path d="M111.768852,39.5485893 C111.436066,39.215047 111.103279,38.9768025 110.627869,38.7862069 C110.2,38.5956113 109.72459,38.5003135 109.201639,38.5003135 C108.631148,38.5003135 108.155738,38.5956113 107.680328,38.8338558 C107.252459,39.0244514 106.872131,39.3579937 106.491803,39.6438871 C106.111475,39.9774295 105.921311,40.4062696 105.731148,40.8827586 C105.540984,41.3115987 105.445902,41.7880878 105.445902,42.4075235 C105.445902,42.9316614 105.493443,43.4081505 105.731148,43.9322884 C105.921311,44.3611285 106.159016,44.7899687 106.491803,45.1711599 C106.82459,45.5523511 107.157377,45.7905956 107.680328,45.9811912 C108.108197,46.1717868 108.583607,46.3147335 109.201639,46.3147335 C109.72459,46.3147335 110.104918,46.2670846 110.580328,46.1241379 C111.008197,46.0288401 111.340984,45.8382445 111.578689,45.6952978 L111.578689,43.0269592 L109.534426,43.0269592 L109.534426,42.2169279 L112.434426,42.2169279 L112.434426,46.1717868 C111.911475,46.5053292 111.436066,46.6959248 110.865574,46.7912226 C110.295082,46.8865204 109.72459,46.9818182 109.106557,46.9818182 C108.440984,46.9818182 107.822951,46.8865204 107.252459,46.600627 C106.681967,46.3147335 106.206557,46.0288401 105.82623,45.6952978 C105.445902,45.3617555 105.065574,44.8376176 104.922951,44.2658307 C104.637705,43.6940439 104.590164,43.0746082 104.590164,42.4075235 C104.590164,41.7404389 104.685246,41.1210031 104.970492,40.5492163 C105.255738,39.9774295 105.540984,39.5009404 105.968852,39.0244514 C106.396721,38.5956113 106.82459,38.262069 107.395082,38.1191223 C107.965574,37.8332288 108.583607,37.737931 109.201639,37.737931 C109.867213,37.737931 110.485246,37.8332288 111.055738,38.0714734 C111.62623,38.262069 112.054098,38.5956113 112.434426,38.9291536 L111.768852,39.5485893 Z" id="Shape" stroke="#0A2530"></path>
                        <polygon id="Shape" stroke="#0A2530" points="120.088525 45.9335423 124.795082 45.9335423 124.795082 46.7435737 119.185246 46.7435737 119.185246 37.9761755 124.652459 37.9761755 124.652459 38.7862069 120.136066 38.7862069 120.136066 41.8357367 124.414754 41.8357367 124.414754 42.645768 120.136066 42.645768 120.088525 45.9335423"></polygon>
                        <polygon id="Shape" stroke="#0A2530" points="133.780328 46.7435737 132.92459 46.7435737 132.92459 38.738558 130.02459 38.738558 130.02459 37.9285266 136.77541 37.9285266 136.77541 38.738558 133.780328 38.738558 133.780328 46.7435737"></polygon>
                        <polygon id="Shape" stroke="#0A2530" points="142.480328 37.9761755 143.336066 37.9761755 143.336066 41.7404389 148.090164 41.7404389 148.090164 37.9761755 148.945902 37.9761755 148.945902 46.7912226 148.090164 46.7912226 148.090164 42.645768 143.336066 42.645768 143.336066 46.7912226 142.480328 46.7912226"></polygon>
                        <polygon id="Shape" stroke="#0A2530" points="156.695082 45.9335423 161.401639 45.9335423 161.401639 46.7435737 155.791803 46.7435737 155.791803 37.9761755 161.259016 37.9761755 161.259016 38.7862069 156.742623 38.7862069 156.742623 41.8357367 161.021311 41.8357367 161.021311 42.645768 156.742623 42.645768 156.695082 45.9335423"></polygon>
                        <path d="M168.390164,46.7435737 L167.534426,46.7435737 L167.534426,37.9761755 L170.14918,37.9761755 C170.577049,37.9761755 170.957377,38.0238245 171.337705,38.0714734 C171.718033,38.1191223 172.003279,38.262069 172.240984,38.5003135 C172.52623,38.6909091 172.763934,38.9291536 172.859016,39.2626959 C172.954098,39.5962382 173.144262,39.9297806 173.144262,40.4062696 C173.144262,40.7398119 173.096721,41.0257053 172.954098,41.2639498 C172.859016,41.5498433 172.668852,41.7880878 172.431148,41.9310345 C172.145902,42.1216301 172.003279,42.3122257 171.765574,42.4551724 C171.527869,42.5504702 171.195082,42.645768 170.909836,42.7410658 L173.429508,46.8865204 L172.288525,46.8865204 L169.863934,42.7887147 L168.342623,42.7887147 L168.390164,46.7435737 L168.390164,46.7435737 Z M168.390164,41.8833856 L169.959016,41.8833856 C170.719672,41.8833856 171.242623,41.7880878 171.622951,41.5021944 C172.003279,41.2163009 172.193443,40.8827586 172.193443,40.3109718 C172.193443,39.9774295 172.145902,39.739185 172.003279,39.5485893 C171.908197,39.3579937 171.718033,39.1673981 171.57541,39.0244514 C171.385246,38.9291536 171.147541,38.8338558 170.909836,38.738558 C170.62459,38.6909091 170.339344,38.6909091 170.006557,38.6909091 L168.390164,38.6909091 L168.390164,41.8833856 L168.390164,41.8833856 L168.390164,41.8833856 Z" id="Shape" stroke="#0A2530"></path>
                    </g>
                </g>
            </g>
        </g>
    </g>
</svg>