<?xml version="1.0" encoding="UTF-8"?>
<svg width="205px" height="59px" viewBox="0 0 205 59" version="1.1" xmlns="http://www.w3.org/2000/svg" xmlns:xlink="http://www.w3.org/1999/xlink">
    <!-- Generator: Sketch 42 (36781) - http://www.bohemiancoding.com/sketch -->
    <title>Logo_white_type@2x</title>
    <desc>Created with Sketch.</desc>
    <defs></defs>
    <g id="Profile---commented" stroke="none" stroke-width="1" fill="none" fill-rule="evenodd">
        <g id="Hamutuk-Profile-Copy" transform="translate(-21.000000, -21.000000)">
            <g id="Logo_white_type" transform="translate(21.000000, 21.000000)">
                <path d="M14.4385433,23.2312894 C14.3647572,19.0426118 14.3651053,17.3169799 15.299961,15.3691471 C15.6692394,14.5801074 16.3089508,14.0373374 16.9242988,13.6428175 C16.9389168,13.6340969 16.9538829,13.6267716 16.9688489,13.618051 C17.8741205,11.2906978 19.0599185,9.10426946 20.8262598,7.20841145 C18.1295874,8.27092911 15.1485603,9.17856895 11.9284244,9.17856895 C11.0673548,9.17856895 10.2059372,9.10461828 9.27073345,8.95671694 C8.33552971,8.80846677 7.47411205,8.7345161 6.71119185,8.7345161 C-3.08321392,8.7345161 0.731387097,20.8202185 0.731387097,34.0894805 C0.731387097,47.0381732 -0.745378608,50.8609346 8.90145501,52.8834157 C7.57260951,48.5674173 8.43402716,41.7601185 12.0269219,32.2644337 C13.1096978,29.3786134 13.8235433,26.3448918 14.4385433,23.3851208 L14.4385433,23.3579125 L14.4385433,23.2312894" id="Fill-1" fill="#66C1B8"></path>
                <path d="M33.2647827,24.7389762 L33.2647827,25.5203418 C33.3414226,25.426857 33.3188538,25.1446584 33.2647827,24.7389762" id="Fill-3" fill="#092530"></path>
                <g id="Group-7" transform="translate(8.463303, 0.278013)" fill="#092530">
                    <path d="M31.1014536,0.0707763736 C30.5598916,0.0707763736 29.9448916,0.0707763736 29.3048322,0.144727045 C20.7407745,0.934115578 15.6961735,3.35111653 12.4231344,6.77935802 C12.8905623,6.55750601 13.4321242,6.38483817 13.8995521,6.16298616 C15.0724723,5.65893559 16.1709103,5.15558267 17.1812923,4.72373866 C18.8536607,4.00167314 20.3029307,3.4746002 21.4793314,3.4746002 C23.497311,3.4746002 24.5800869,5.02826194 24.5800869,9.64041183 C24.5800869,11.5108057 24.6389069,13.6965364 24.7039918,16.0378425 C25.1999596,13.4373602 26.4341361,12.5262321 28.8621158,12.5262321 C29.6591446,12.5262321 30.2905029,12.772153 30.7286947,13.2845753 C31.6980071,14.283607 31.778058,16.4620124 30.7078118,20.1229195 C29.1572601,25.5736421 32.5040852,40.7914345 32.3318017,42.6656654 C32.1379392,44.8472102 29.9062584,46.0823957 28.7263772,43.5248187 C28.5384315,43.1425077 28.3741531,42.6729907 28.2467677,42.0984777 C27.575384,38.8941811 27.5002057,33.6953094 26.418822,31.1890096 C26.4014197,31.1506389 26.3836692,31.1129659 26.3659188,31.0756418 C26.3481684,31.0372711 26.3300699,30.9992493 26.3119714,30.9619252 C25.9256387,30.2140467 25.415401,29.7926674 24.7231344,29.8585951 C24.3782193,35.6208175 23.4277015,41.2515332 21.1023959,45.564741 C18.5654774,50.313281 14.3509697,53.4935087 7.42726007,53.4935087 C6.17220064,53.4935087 4.9418526,53.419558 3.53887297,53.1729395 C2.382311,53.0246894 1.27482373,52.7780709 0.339968046,52.6301695 C1.49653002,56.4532797 4.3759273,58.2535599 8.58382204,58.2535599 C11.3156472,58.2535599 14.5639748,57.4641714 18.3047898,56.058411 C42.5939833,46.5379597 35.1127015,42.4933464 38.4595266,28.6073637 C41.757277,15.2885688 42.9385504,0.0707763736 31.1014536,0.0707763736" id="Fill-5"></path>
                </g>
                <path d="M20.34491,13.7907537 C21.7364041,14.9296638 21.6469559,17.2465523 21.2275586,19.6952962 C21.2195535,19.7416898 21.2108523,19.788781 21.2028472,19.8355234 C21.1826604,19.94924 21.1628217,20.0629566 21.1415908,20.1773709 C21.1290611,20.2453916 21.1154873,20.313761 21.1026095,20.3821305 C21.084511,20.4766618 21.0664126,20.5715419 21.047966,20.666422 C21.0357844,20.7281639 21.0229066,20.7899057 21.010725,20.8519964 C20.989146,20.9587365 20.9679151,21.0654766 20.9459881,21.1722167 C20.9445959,21.1791932 20.9432037,21.1861697 20.9414635,21.1931462 C20.47682,23.453874 19.9307334,25.6472788 20.1973379,26.9612985 C21.0608438,26.9114167 22.6698676,26.7882818 24.4734499,26.629567 C26.062983,26.4823633 27.8032207,26.3142301 29.3269728,26.1495852 C31.1855467,25.9399421 32.7061664,25.7264618 33.1909966,25.5555381 L33.2400713,25.5555381 C33.2508608,25.5503057 33.2571256,25.5332134 33.2647827,25.5203069 L33.2647827,24.7389413 C33.2351986,24.4399992 33.1955212,24.0789664 33.1662852,23.6809584 C33.0924992,22.6697178 32.944927,21.3379081 32.944927,20.3266675 C32.944927,19.0688085 33.0187131,18.0575679 33.0434244,17.0958604 C33.0775331,16.8181965 33.120343,16.5621598 33.1673294,16.3158901 C33.1022445,13.9745839 33.0434244,11.7888532 33.0434244,9.91845937 C33.0434244,5.30630949 31.9606486,3.75229892 29.9426689,3.75229892 C28.7662683,3.75229892 27.3169983,4.27972069 25.6446299,5.0017862 C24.6579151,5.42804904 23.5935857,5.92198371 22.4613871,6.4162672 C21.9936112,6.63811922 21.5261834,6.81078706 20.9846214,7.03263907 C20.9296299,7.09019502 20.8805552,7.15054156 20.8262598,7.20844633 C19.0599185,9.10430434 17.8741205,11.2907327 16.9688489,13.6180859 C18.0432716,13.0006675 19.3494941,12.9392745 20.34491,13.7907537" id="Fill-8" fill="#008886"></path>
                <path d="M33.1909618,30.0691452 C30.2377784,30.6119153 24.3317598,31.0803858 21.2062929,31.400955 C21.2062929,31.400955 23.0025662,43.017838 22.5351384,44.3496477 C21.8693234,46.1035344 20.1482284,46.0735356 19.0699771,45.7874999 C18.6951299,45.7020381 18.3780586,45.5837868 18.1793234,45.484372 C14.4385085,43.289223 14.2909363,36.4323912 14.4385085,24.9637583 L14.4385085,23.9584478 C13.8558769,26.6960179 13.1726596,29.4810281 12.1744593,32.1408105 C8.60627589,41.6612618 7.74485823,48.4441429 9.07370374,52.7353748 C10.0089075,52.9575756 11.0916834,53.1302435 12.2729567,53.2781448 C13.4051553,53.6234805 14.7340008,53.6974312 15.9890603,53.6974312 C22.8393319,53.6974312 27.0239075,50.5573182 29.5656986,45.8426141 C31.8913523,41.5294063 32.8415221,35.8990394 33.1864372,30.1368171 C33.1878294,30.1141435 33.1895696,30.0918188 33.1909618,30.0691452" id="Fill-10" fill="#008886"></path>
                <path d="M80.5318311,19.4761999 C80.0932912,19.0366818 79.4977818,18.628209 78.8396239,18.3770558 C78.1971282,18.0784625 77.5546324,17.9371888 76.8028497,17.9371888 L76.1133676,17.9371888 C73.6846919,17.9371888 72.0081469,18.8793622 70.9580874,20.7640578 L70.9580874,14.3725571 C70.9580874,12.0326463 70.018011,10.8393196 68.2788175,10.8393196 C67.3387411,10.8393196 66.6962453,11.1375641 66.3516783,11.6873106 C66.0071112,12.2367083 65.8031553,13.1788817 65.8031553,14.2626776 L65.8031553,31.0498288 C65.8031553,33.2327689 66.5396239,34.4260955 67.887264,34.4260955 L68.1848447,34.4260955 C69.1249211,34.4260955 69.8770518,34.1278511 70.2219669,33.5781046 C70.6605068,33.0283581 70.8641146,32.1803671 70.8641146,31.0027376 L70.8641146,24.846693 C70.8641146,23.7475488 71.2090297,22.8053754 71.8985119,22.1614465 C72.5406596,21.5175175 73.2927903,21.1250906 74.2328667,21.1250906 C75.0789703,21.1250906 75.721466,21.4233351 76.160354,21.9730816 C76.5988939,22.5228281 76.8968226,23.2609395 76.8968226,24.2031129 L76.8968226,31.0498288 C76.8968226,33.3897397 77.7429261,34.5830663 79.4664576,34.5830663 C80.406534,34.5830663 81.0490297,34.2848219 81.5032317,33.7350754 C81.9421197,33.1856777 82.1457275,32.3373379 82.1457275,31.1597083 L82.1457275,24.0618392 C82.1457275,23.119317 81.9421197,22.3184172 81.7068396,21.4861234 C81.4719075,20.5753441 81.0177054,19.931764 80.5318311,19.4761999" id="Fill-12" fill="#FFFFFF"></path>
                <path d="M95.5424949,27.1553144 L95.5424949,27.8306375 C95.5424949,29.0239641 95.103607,30.06032 94.2575034,30.8141285 C93.4113998,31.5522399 92.5183098,31.9136215 91.6878684,31.9136215 C91.0457207,31.9136215 90.5911706,31.6150282 90.1992691,31.2696925 C89.854702,30.9243568 89.6510942,30.3275191 89.6510942,29.7777726 C89.6510942,29.4324369 89.6510942,29.1338437 89.7450671,28.8355992 C89.8390399,28.5373548 89.9486749,28.3957322 90.0896341,28.1916702 C90.29359,27.9876083 90.4345492,27.8463346 90.7321299,27.7521521 C91.0300586,27.6579696 91.2806528,27.5477413 91.5782334,27.4535588 C91.8761621,27.3593764 92.2207292,27.3593764 92.6752793,27.2494968 C93.1138192,27.1553144 93.5213829,27.1553144 93.9599228,27.1553144 L95.5424949,27.1553144 Z M87.394702,25.9302448 C85.8121299,26.6683562 85.0599992,28.0660936 85.0599992,30.10776 C85.0599992,31.5051487 85.4988871,32.5885958 86.5485985,33.4369355 C87.5826477,34.379109 88.8833014,34.8343242 90.3562385,34.9285066 L90.6538192,34.9285066 C93.2234542,34.9285066 94.9156613,33.8293625 95.6051435,31.7563019 L95.6051435,32.0548952 C95.6051435,32.7930066 95.8087513,33.3424043 96.0440314,33.7979683 C96.3416121,34.2374864 96.6861791,34.5360797 97.1407292,34.6459593 C97.3913234,34.6930505 97.6419177,34.6930505 97.8771978,34.6930505 C98.1121299,34.6930505 98.3783862,34.6930505 98.5196935,34.6459593 C98.8642606,34.5517768 99.3657971,34.3006236 99.6163913,33.7979683 C99.913972,33.3581013 100.054931,32.6988241 100.054931,32.0548952 L100.054931,25.0979509 C100.054931,23.8104418 99.8513234,22.6642064 99.5067564,21.7687754 C99.3031486,20.7795107 98.8642606,20.0257023 98.2217649,19.4763046 C97.5792691,18.9265581 96.8274864,18.5341312 95.9966969,18.2826291 C95.1505934,17.9843847 94.210517,17.9372934 93.1294813,17.9372934 C92.0954321,17.9372934 90.9983862,18.0314759 89.8077156,18.2826291 C88.617045,18.5812224 87.6766205,18.8323756 86.9405,19.2248025 C86.3919771,19.5233958 86.0000756,19.9629139 86.0000756,20.62254 C86.0000756,21.2664689 86.2980042,21.7216842 86.6425713,22.2086423 C86.8935136,22.5068868 87.1910942,22.6485093 87.4886749,22.6485093 C87.6922827,22.6485093 87.8805764,22.6014181 88.0841842,22.5068868 C89.9173506,21.6588958 91.4999228,21.3135602 92.7849143,21.3135602 C94.5710942,21.3135602 95.4641842,22.1615511 95.4641842,23.7947447 L95.4641842,24.8311006 C91.6565441,24.8311006 88.9772742,25.1767851 87.394702,25.9302448 L87.394702,25.9302448 Z" id="Fill-14" fill="#FFFFFF"></path>
                <path d="M130.750114,33.719448 C131.188654,33.1697015 131.39261,32.3217106 131.39261,31.144081 L131.39261,24.0458631 C131.39261,22.0045455 130.844087,20.5126256 129.90401,19.4762697 C128.93261,18.4399138 127.553645,17.8901673 126.018059,17.8901673 C125.375564,17.8901673 124.733416,17.8901673 124.278866,17.9843498 C123.840326,18.0785322 123.244817,18.1884118 122.696294,18.4242167 C122.148119,18.7224612 121.662244,19.0677969 121.207694,19.5233609 C120.769154,19.9628791 120.361591,20.5597168 120.017024,21.2664341 C119.813416,20.6225051 119.578136,20.0731074 119.17092,19.5233609 C118.826353,18.9736144 118.434452,18.5811875 117.98025,18.4242167 C117.541362,18.2198059 117.039825,18.0785322 116.585623,17.9843498 C116.146735,17.8901673 115.551574,17.8901673 114.893416,17.8901673 C113.608424,17.8901673 112.417754,18.1884118 111.477677,18.7381583 C110.537601,19.2879048 109.78547,20.1358957 109.440555,21.2193428 L109.440555,20.8736583 C109.440555,19.9314849 109.236947,19.2879048 108.798407,18.8323407 C108.35952,18.3771255 107.701362,18.1884118 106.87092,18.1884118 C105.930844,18.1884118 105.382321,18.4870051 104.943781,19.0364027 C104.504893,19.5861492 104.301285,20.4341402 104.301285,21.5175873 L104.301285,31.0498986 C104.301285,32.1490427 104.504893,33.0912162 104.849808,33.6252656 C105.194375,34.127572 105.742898,34.4732565 106.338407,34.4732565 L106.542015,34.4732565 C108.328195,34.4732565 109.221285,33.2795811 109.221285,30.940019 L109.221285,24.3915476 C109.221285,23.3548429 109.518866,22.554292 110.161362,21.9574542 C110.803857,21.4077077 111.555988,21.1094633 112.590037,21.1094633 C113.326506,21.1094633 113.984664,21.4077077 114.423204,21.9574542 C114.862092,22.5072007 115.065699,23.3548429 115.065699,24.4386388 L115.065699,30.940019 C115.065699,33.2795811 116.005776,34.4732565 117.635334,34.4732565 C118.575411,34.4732565 119.217907,34.1746633 119.672457,33.6252656 C120.110997,33.0755191 120.314604,32.2275281 120.314604,31.0498986 L120.314604,24.7368832 C120.314604,23.5435566 120.612533,22.6955657 121.255029,22.0516367 C121.897177,21.4077077 122.74328,21.1094633 123.683357,21.1094633 C124.419825,21.1094633 125.077983,21.4077077 125.516871,21.9574542 C125.955411,22.5072007 126.25334,23.2449633 126.25334,24.1874856 L126.25334,31.0342015 C126.25334,33.3741124 127.099443,34.567439 128.822975,34.567439 C129.763051,34.567439 130.311226,34.2691945 130.750114,33.719448" id="Fill-16" fill="#FFFFFF"></path>
                <path d="M151.417107,31.8821227 L151.417107,21.8004137 C151.417107,20.7012695 151.323134,19.7587473 150.868584,19.2250467 C150.430044,18.6753002 149.771886,18.3770558 148.941445,18.3770558 C148.001368,18.3770558 147.358873,18.6753002 146.904671,19.2250467 C146.465783,19.7744444 146.262175,20.7169666 146.262175,21.8004137 L146.262175,27.8148358 C146.262175,28.8511916 145.964246,29.7462738 145.322098,30.3902028 C144.679603,31.0341317 143.833499,31.4265586 142.893423,31.4265586 C142.156954,31.4265586 141.498796,31.2224966 141.059908,30.688796 C140.621368,30.1390495 140.323788,29.4009381 140.323788,28.4587647 L140.323788,21.7062313 C140.323788,20.6067383 140.229815,19.6645648 139.775265,19.1308642 C139.336377,18.5811177 138.678567,18.2828733 137.848126,18.2828733 C136.907701,18.2828733 136.265553,18.5811177 135.811003,19.1308642 C135.372463,19.6802619 135.168508,20.6224353 135.168508,21.7062313 L135.168508,28.4587647 C135.168508,30.3902028 135.717031,31.9920022 136.860715,33.0754493 C137.957761,34.1749423 139.336377,34.7714312 141.028584,34.9130537 C142.423211,34.9130537 143.45726,34.6144605 144.35035,34.0650628 C145.228126,33.5781046 145.885935,32.7458107 146.37181,31.6466665 L146.37181,31.7879402 C146.37181,33.7193783 147.217913,34.6615517 148.847472,34.6615517 C149.693576,34.6615517 150.336071,34.4574897 150.774611,34.0179716 C151.213499,33.5781046 151.417107,32.8242961 151.417107,31.8821227" id="Fill-18" fill="#FFFFFF"></path>
                <path d="M165.659978,31.3481779 C165.362397,31.1441159 165.111455,31.0499335 164.813874,31.0499335 L163.873798,31.1441159 C163.027694,31.1441159 162.385199,30.8455226 162.134604,30.4060045 C161.836676,29.9661375 161.695716,28.9140846 161.695716,27.5320442 L161.695716,21.7216842 L163.513221,21.7216842 C164.155716,21.7216842 164.610267,21.5176222 164.907847,21.282166 C165.205428,20.9839216 165.346735,20.5440546 165.346735,19.9943081 C165.346735,18.8009815 164.798212,18.1570525 163.654528,18.1570525 L161.727041,18.1570525 L161.727041,15.2206527 C161.727041,12.9906214 161.084545,11.8914772 159.690267,11.8914772 C158.201667,11.8914772 157.355564,12.9278331 157.214604,14.9691507 L156.869689,18.1413554 L155.475411,18.1413554 C154.284392,18.1413554 153.736217,18.6911019 153.736217,19.8373373 C153.736217,20.4812663 153.83019,20.9364815 154.174757,21.2350748 C154.519672,21.5333192 154.911226,21.6745929 155.569384,21.6745929 L156.603433,21.6745929 L156.603433,28.6315372 C156.603433,30.8612197 156.948,32.4473221 157.888424,33.3424043 C158.828501,34.2849265 160.019171,34.8343242 161.507771,34.9285066 C163.246964,34.9285066 164.578942,34.7244446 165.315411,34.4889885 C165.503357,34.3320177 165.691302,34.0334245 165.89491,33.8764537 C166.098518,33.6723917 166.192839,33.4365867 166.192839,33.0284627 C166.192839,32.6203387 166.192839,32.3845338 166.098866,32.0862893 C166.004545,31.7880449 165.89491,31.5365428 165.659978,31.3481779" id="Fill-20" fill="#FFFFFF"></path>
                <path d="M179.949835,31.8036024 C179.949835,33.7350405 180.795939,34.6772139 182.425497,34.6772139 C183.271601,34.6772139 183.914097,34.4731519 184.352637,34.0336337 C184.775862,33.5780697 184.97947,32.8399583 184.97947,31.8977849 L184.97947,21.8160759 C184.97947,20.7169317 184.885497,19.7747583 184.430947,19.2407089 C183.992407,18.6909624 183.33425,18.3927179 182.503808,18.3927179 C181.563732,18.3927179 180.921236,18.6909624 180.467034,19.2407089 C180.012484,19.7904554 179.824538,20.7326288 179.824538,21.8160759 L179.824538,27.830498 C179.824538,28.8668538 179.526958,29.7622848 178.884462,30.405865 C178.241966,31.0497939 177.395862,31.4425697 176.455786,31.4425697 C175.719317,31.4425697 175.06116,31.2381588 174.62262,30.7044582 C174.183732,30.1547117 173.886151,29.4166003 173.886151,28.4744269 L173.886151,21.7218935 C173.886151,20.6227493 173.792178,19.680227 173.337628,19.1465264 C172.899088,18.5967799 172.24093,18.2985355 171.410489,18.2985355 C170.470413,18.2985355 169.827917,18.5967799 169.373367,19.1465264 C168.934827,19.6959241 168.731219,20.6384464 168.731219,21.7218935 L168.731219,28.4744269 C168.731219,30.405865 169.279394,32.0076644 170.423426,33.0914603 C171.520124,34.1906045 172.899088,34.7874422 174.591295,34.9287159 C175.985574,34.9287159 177.019971,34.6301227 177.913061,34.080725 C178.853138,33.5309785 179.495633,32.6829875 179.949835,31.5995404 L179.949835,31.8036024 Z" id="Fill-22" fill="#FFFFFF"></path>
                <path d="M194.25539,31.2539606 L194.25539,26.5427447 L200.256425,33.5938714 C200.804948,34.2848916 201.447444,34.6302273 202.183913,34.6302273 C202.324872,34.6302273 202.481493,34.6302273 202.622452,34.5831361 C203.358921,34.4889536 203.907444,34.1436179 204.31466,33.4839919 C204.737885,32.6360009 204.737885,31.8978895 204.298997,31.1597781 L204.09539,30.8144424 L199.488632,25.8046333 L203.452894,21.7376952 C203.797461,21.2978282 204.001417,20.7951729 204.001417,20.3399577 C204.001417,19.9000908 203.907444,19.3977843 203.656502,19.0520998 C203.358921,18.7067641 203.108327,18.3139884 202.716425,18.1099264 C202.465831,17.9686527 202.120916,17.9058644 201.776349,17.9058644 C201.682376,17.9058644 201.525755,17.9058644 201.431782,17.9529556 C200.992894,18.0471381 200.491705,18.2982913 200.14679,18.8009466 L194.145755,25.3023268 L194.145755,14.3726269 C194.145755,12.032716 193.205678,10.9492689 191.466485,10.9492689 C190.526408,10.9492689 189.883913,11.2475134 189.538997,11.7972599 C189.19443,12.3466576 188.990823,13.288831 188.990823,14.3726269 L188.990823,31.1597781 C188.990823,32.2589223 189.19443,33.2010957 189.538997,33.7351451 C189.883913,34.3790741 190.573395,34.6773185 191.57612,34.6773185 C193.315313,34.6773185 194.25539,33.5781744 194.25539,31.2539606" id="Fill-24" fill="#FFFFFF"></path>
                <path d="M18.1792886,45.4842673 C18.3780238,45.584031 18.6950951,45.7022823 19.0699423,45.7873953 C20.1795178,46.0402926 21.798983,46.0026197 22.3875314,44.3251254 C22.8549593,42.9933157 21.0586859,31.3764326 21.0586859,31.3764326 C24.1594414,31.0558635 30.0901715,30.5870441 33.0433548,30.0446229 C33.8094075,29.9228834 34.3607148,30.3972839 34.7752394,31.2400425 C34.7936859,31.2770178 34.8114363,31.3150396 34.8291868,31.3537591 C34.8469372,31.3917809 34.8650357,31.4277098 34.88209,31.4671269 C35.9634737,33.9734267 36.039,39.1722985 36.7100357,42.376595 C36.8374211,42.951108 37.0016995,43.420625 37.1896452,43.8025872 C38.3813599,46.2251693 40.5545688,44.9969603 40.7459949,42.8450655 C40.8935671,40.9708346 37.5467419,25.7530422 39.121657,20.3019708 C40.1598829,16.7519898 40.0794839,14.6007926 39.1919626,13.5626926 C38.7541188,13.0499215 38.1224126,12.8043494 37.3253837,12.8043494 C34.8977521,12.8043494 33.6632275,13.7154775 33.1672598,16.315611 C33.1202733,16.5622295 33.0774635,16.8182663 33.0433548,17.0959301 C33.0186435,18.0576377 32.9448574,19.0688782 32.9448574,20.3267373 C32.9448574,21.3379778 33.0924295,22.6697876 33.1662156,23.6810281 C33.1954516,24.0790362 33.2354771,24.4397201 33.2647131,24.7390111 C33.3047385,25.1446933 33.3217929,25.4268918 33.2647131,25.5203767 C33.257056,25.5332831 33.2507912,25.5503755 33.2403497,25.5556079 L33.190927,25.5556079 C32.7064448,25.7265316 31.1854771,25.9400118 29.3269032,26.149655 C27.8087199,26.3209276 26.0663939,26.4890607 24.4737284,26.6296367 C22.670146,26.7883516 21.0607742,26.9114865 20.1972683,26.9613683 C19.9306638,25.6473486 20.4767504,23.4539437 20.9417419,21.1932159 C20.9431341,21.1862394 20.9445263,21.179263 20.9459185,21.1722865 C20.9678455,21.0655464 20.9890764,20.9588062 21.0106553,20.8520661 C21.022837,20.7899755 21.0357148,20.7282336 21.0478964,20.666143 C21.066691,20.5716117 21.0844414,20.4767316 21.1025399,20.3818515 C21.1154177,20.3138308 21.1289915,20.2454613 21.1415212,20.1774407 C21.1627521,20.0630264 21.1825908,19.9493098 21.2027776,19.8355932 C21.2111307,19.7888508 21.2198319,19.7417596 21.227837,19.695366 C21.6468862,17.2466221 21.7366825,14.9297336 20.3448404,13.7908235 C19.3494244,12.9393443 18.0435501,13.0007373 16.9687793,13.6181556 C16.9541613,13.6265274 16.9388472,13.6342015 16.9242292,13.6429221 C16.3088812,14.037442 15.6691698,14.5798632 15.2998913,15.3692517 C14.3653837,17.3167357 14.3650357,19.0427164 14.4384737,23.2313941 C14.4384737,23.2331382 14.4384737,23.2352311 14.4388217,23.2373241 L14.4388217,23.3580172 L14.4388217,23.3852254 L14.4388217,23.958692 L14.4388217,24.9636537 C14.2909015,36.4326354 14.4388217,43.2891184 18.1792886,45.4842673" id="Fill-26" fill="#FFFFFF"></path>
                <path d="M67.8278175,44.8252343 L68.9213829,44.8252343 C69.463989,44.8252343 69.815865,44.908952 70.0372233,45.0955728 C70.2408311,45.2563806 70.3438531,45.5134639 70.3438531,45.8584507 C70.3438531,46.0346068 70.3170535,46.1685552 70.2488362,46.3251771 L70.2154236,46.3701754 C70.1110093,46.5128444 70.0567139,46.5833068 69.9662216,46.6255145 L69.9129703,46.656211 C69.7692267,46.7566723 69.6230467,46.8184142 69.4479788,46.8512036 C69.2471553,46.8916672 69.0202284,46.8916672 68.7804236,46.8916672 L67.8278175,46.8916672 L67.8278175,44.8252343 Z M70.0306104,42.6705489 C70.0306104,42.9136792 69.9790993,43.027047 69.947775,43.0737894 C69.8896511,43.1609953 69.7921978,43.3075014 69.6930042,43.3741268 C69.5920705,43.4452868 69.5033183,43.4801692 69.2910093,43.5300511 C69.1834626,43.5624917 69.0070025,43.5624917 68.8900586,43.5624917 L67.8121553,43.5624917 L67.8121553,41.8256974 L68.7021129,41.8256974 C68.8890144,41.8256974 69.1009754,41.8256974 69.2415866,41.8570915 L69.3651435,41.8944157 C69.4956613,41.9324375 69.6303557,41.9722034 69.6999652,42.0189458 C69.7925458,42.0803388 69.8896511,42.2268449 69.9390739,42.3004467 C70.0024185,42.4057916 70.0306104,42.4842769 70.0306104,42.6705489 L70.0306104,42.6705489 Z M70.7924864,44.1397953 C70.8819346,44.0675887 70.9689465,43.9835222 71.0521299,43.8844562 C71.3350925,43.5474923 71.4788362,43.1390194 71.4788362,42.6705489 C71.4788362,42.2083572 71.3994813,41.8752304 71.2219771,41.5905901 C71.0246341,41.2731603 70.7848294,41.0830512 70.5714762,40.9358476 C70.3111367,40.7617844 70.0198209,40.6435331 69.7065781,40.5849307 C69.3439126,40.5162124 69.0696511,40.4844694 68.8430722,40.4844694 L66.4119601,40.4844694 L66.3945577,48.2799864 L68.82741,48.2799864 C69.2551604,48.2799864 69.632792,48.2314999 70.0156443,48.1265039 C70.46741,48.0026714 70.8064083,47.7965164 70.9821723,47.6740792 C71.1937852,47.5108296 71.4509924,47.2833964 71.5842946,46.9565484 C71.7496171,46.6799311 71.8234032,46.3834307 71.8234032,45.9997244 C71.8234032,45.3638184 71.6465951,44.8768602 71.2828854,44.512688 C71.1363574,44.3658332 70.9710348,44.2406054 70.7924864,44.1397953 L70.7924864,44.1397953 Z" id="Fill-28" fill="#FFFFFF"></path>
                <polygon id="Fill-30" fill="#FFFFFF" points="77.7148735 44.903929 81.1306121 44.903929 81.1306121 43.5623522 77.6835492 43.5623522 77.6835492 41.8259067 81.3028956 41.8259067 81.3028956 40.4843299 76.2509856 40.4843299 76.2509856 48.2331045 81.4128786 48.2331045 81.4128786 46.8915277 77.7148735 46.8915277"></polygon>
                <polygon id="Fill-32" fill="#FFFFFF" points="84.8374576 41.8258369 87.1721604 41.8258369 87.1721604 48.1855946 88.6047241 48.1855946 88.6047241 41.8258369 90.9390789 41.8258369 90.9390789 40.4842601 84.8374576 40.4842601"></polygon>
                <polygon id="Fill-34" fill="#FFFFFF" points="94.0506935 41.8258369 96.3853964 41.8258369 96.3853964 48.1855946 97.8179601 48.1855946 97.8179601 41.8258369 100.152315 41.8258369 100.152315 40.4842601 94.0506935 40.4842601"></polygon>
                <polygon id="Fill-36" fill="#FFFFFF" points="105.44838 44.903929 108.864119 44.903929 108.864119 43.5623522 105.432718 43.5623522 105.432718 41.8259067 109.052065 41.8259067 109.052065 40.4843299 104.000154 40.4843299 104.000154 48.2331045 109.161699 48.2331045 109.161699 46.8915277 105.44838 46.8915277"></polygon>
                <path d="M114.724334,41.8258369 L115.66093,41.8258369 C115.936584,41.8258369 116.154114,41.8258369 116.295073,41.8572311 L116.418978,41.8942064 C116.549148,41.9329259 116.683494,41.972343 116.753104,42.0187365 C116.845684,42.0804784 116.943138,42.2266356 116.992212,42.3002374 C117.031542,42.3658163 117.083749,42.4805794 117.083749,42.7177797 C117.083749,43.1206713 116.938613,43.2745027 116.79661,43.3721733 C116.56655,43.5294929 116.184394,43.6093736 115.66093,43.6093736 L114.724334,43.6093736 L114.724334,41.8258369 Z M117.264385,44.7144478 C117.432144,44.6370089 117.558138,44.5344547 117.679606,44.4350398 C117.737382,44.3882974 117.797246,44.3391133 117.889479,44.2735344 C118.140769,44.0631935 118.275812,43.8162262 118.369784,43.6114666 C118.484292,43.3815916 118.547289,43.0809054 118.547289,42.7645221 C118.547289,42.3504681 118.416771,42.001993 118.314445,41.7299103 C118.193324,41.4518977 117.9838,41.1965586 117.722764,41.0078448 C117.431796,40.7106468 117.06565,40.623092 116.81262,40.5829773 C116.507382,40.5344908 116.192051,40.4842601 115.8179,40.4842601 L113.385744,40.4842601 L113.385744,48.1855946 L114.802645,48.1855946 L114.802645,44.9980416 L115.446533,44.9980416 L117.373672,48.2801259 L119.087458,48.2801259 L116.972025,44.822932 C117.071567,44.7929332 117.169716,44.7583996 117.264385,44.7144478 L117.264385,44.7144478 Z" id="Fill-38" fill="#FFFFFF"></path>
                <polygon id="Fill-40" fill="#FFFFFF" points="127.847989 41.8258369 130.182692 41.8258369 130.182692 48.1855946 131.568269 48.1855946 131.567921 41.8258369 133.902624 41.8258369 133.902624 40.4842601 127.847989 40.4842601"></polygon>
                <path d="M139.954022,46.8701447 C139.645652,46.7438705 139.397494,46.5652726 139.195278,46.324933 C138.974964,46.0622685 138.788063,45.7518153 138.656849,45.4305484 C138.536424,45.1288157 138.477952,44.7806895 138.477952,44.3662866 C138.477952,43.9452562 138.536076,43.5981764 138.656849,43.3023737 C138.814862,42.9071562 138.984362,42.6214694 139.17544,42.4303139 C139.461187,42.1435806 139.708649,41.9632386 139.951586,41.8638238 C140.331654,41.7113878 140.694319,41.6374371 141.060117,41.6374371 C141.445058,41.6374371 141.786144,41.7068531 142.166212,41.8631262 C142.473886,41.9890516 142.722044,42.1673006 142.924956,42.4086868 C143.14527,42.6706536 143.331823,42.980758 143.463385,43.3023737 C143.583462,43.6037576 143.641934,43.9518838 143.641934,44.3662866 C143.641934,44.7744106 143.584854,45.1141651 143.463385,45.4305484 C143.328343,45.7689076 143.167197,46.0361068 142.944795,46.3026082 C142.659048,46.5889927 142.411934,46.7696835 142.168649,46.8690983 C141.788581,47.0218832 141.425915,47.095485 141.060117,47.095485 C140.675177,47.095485 140.33409,47.026069 139.954022,46.8701447 M143.93847,41.4344216 C143.646458,41.1421071 143.251424,40.8857216 142.691068,40.6251501 C142.185355,40.3973681 141.696696,40.2958603 141.107104,40.2958603 C140.541178,40.2958603 139.999964,40.4071351 139.540194,40.6171271 C139.083903,40.7629355 138.693046,41.0158329 138.280958,41.4288404 C137.846246,41.8463826 137.585559,42.3424103 137.404922,42.7320466 C137.18426,43.2256324 137.076713,43.7603795 137.076713,44.3662866 C137.076713,44.9812632 137.188088,45.532405 137.404922,46.0012244 C137.616883,46.4745784 137.885576,46.8603777 138.275737,47.2514093 C138.566705,47.5430261 138.96139,47.7997605 139.523139,48.0610296 C140.029548,48.2884628 140.518207,48.3899706 141.107104,48.3899706 C141.672333,48.3899706 142.213199,48.2790446 142.674014,48.0690526 C143.129608,47.9232442 143.520117,47.6706956 143.914107,47.2733852 C144.350907,46.9116548 144.61055,46.4292313 144.809285,46.0012244 C145.029947,45.5072897 145.137494,44.9725426 145.137494,44.3662866 C145.137494,43.7523565 145.026467,43.2008659 144.81381,42.7432089 C144.607766,42.2342748 144.345686,41.8428944 143.93847,41.4344216" id="Fill-42" fill="#FFFFFF"></path>
                <path d="M151.157498,42.4335579 C151.441157,42.1939159 151.70985,41.9671804 152.015784,41.8416037 C152.331115,41.6978883 152.693084,41.6218447 153.062362,41.6218447 C153.445563,41.6218447 153.786301,41.6818424 154.062303,41.7945125 C154.395733,41.9465997 154.646675,42.1133376 154.852719,42.320539 L155.092524,42.5605298 L156.178432,41.5308016 L155.925053,41.2775555 C155.555775,40.9074533 155.13951,40.646533 154.69575,40.5035152 C154.168806,40.3214291 153.644994,40.2328278 153.093339,40.2328278 C152.528458,40.2328278 151.987592,40.3441027 151.526777,40.5540947 C151.071183,40.6999031 150.680325,40.9528004 150.267541,41.3661567 C149.832829,41.7833502 149.571794,42.2797266 149.391853,42.6693629 C149.170843,43.1629488 149.063296,43.6976958 149.063296,44.303603 C149.063296,44.8055606 149.096013,45.389143 149.33721,45.9210995 C149.477821,46.3613153 149.752082,46.7872293 150.152337,47.1887256 C150.443653,47.4806913 150.838687,47.7370768 151.399739,47.9979971 C151.891879,48.2195003 152.425435,48.3272869 153.031038,48.3272869 C153.551717,48.3272869 154.032023,48.2784516 154.509892,48.1755485 C154.882303,48.0820637 155.37131,47.9359065 155.850919,47.6282438 L156.011369,47.5253407 L156.011369,43.8135054 L152.980571,43.8135054 L152.980571,45.1550822 L154.61013,45.1550822 L154.61013,46.7464169 C154.46395,46.8245535 154.288186,46.8904812 154.071352,46.9497812 C153.726437,47.0397778 153.415283,47.0798926 153.062362,47.0798926 C152.715011,47.0798926 152.378449,47.0083837 151.98968,46.84932 C151.654162,46.7282781 151.409833,46.5615402 151.197524,46.3086429 C150.976862,46.0463273 150.790308,45.7365717 150.659094,45.414956 C150.539018,45.1135721 150.480546,44.7654459 150.480546,44.3506942 C150.480546,43.9293149 150.53867,43.5822351 150.659094,43.2867813 C150.799009,42.936562 150.919434,42.6341317 151.157498,42.4335579" id="Fill-44" fill="#FFFFFF"></path>
                <polygon id="Fill-46" fill="#FFFFFF" points="162.13798 44.903929 165.553371 44.903929 165.553371 43.5623522 162.13798 43.5623522 162.13798 41.8259067 165.741665 41.8259067 165.741665 40.4843299 160.674093 40.4843299 160.674093 48.2331045 165.835638 48.2331045 165.835638 46.8915277 162.13798 46.8915277"></polygon>
                <polygon id="Fill-48" fill="#FFFFFF" points="169.307307 41.8258369 171.64201 41.8258369 171.64201 48.1855946 173.027587 48.1855946 173.027587 41.8258369 175.409277 41.8258369 175.409277 40.4842601 169.307307 40.4842601"></polygon>
                <polygon id="Fill-50" fill="#FFFFFF" points="183.769622 43.5150865 180.658425 43.5150865 180.658425 40.4845043 179.272848 40.4845043 179.272848 48.23293 180.658425 48.23293 180.658425 44.9037545 183.769622 44.9037545 183.769622 48.23293 185.155199 48.23293 185.155199 40.4845043 183.769622 40.4845043"></polygon>
                <polygon id="Fill-52" fill="#FFFFFF" points="191.344424 44.903929 194.759815 44.903929 194.759815 43.5623522 191.344424 43.5623522 191.344424 41.8259067 194.963771 41.8259067 194.963771 40.4843299 189.911861 40.4843299 189.911861 48.2331045 195.073406 48.2331045 195.073406 46.8915277 191.344424 46.8915277"></polygon>
                <path d="M200.636006,41.8258369 L201.572602,41.8258369 C201.847907,41.8258369 202.065785,41.8258369 202.206396,41.8575799 L202.329605,41.8942064 C202.460123,41.932577 202.595166,41.972343 202.664775,42.0190854 C202.757704,42.0804784 202.854461,42.2266356 202.903884,42.3002374 C202.943213,42.3658163 202.995072,42.4802306 202.995072,42.7177797 C202.995072,43.1206713 202.849936,43.2745027 202.707933,43.3721733 C202.477874,43.5294929 202.096065,43.6093736 201.572602,43.6093736 L200.636006,43.6093736 L200.636006,41.8258369 Z M202.883697,44.822932 C202.983239,44.7929332 203.081388,44.7583996 203.176057,44.7144478 C203.343816,44.6370089 203.469809,44.5344547 203.591278,44.4350398 C203.649053,44.3879486 203.708918,44.3387644 203.800802,44.2735344 C204.052093,44.0638912 204.187135,43.816575 204.281456,43.6118154 C204.395963,43.3819404 204.45896,43.0812542 204.45896,42.7645221 C204.45896,42.427907 204.383086,42.0895478 204.226116,41.7299103 C204.104996,41.4518977 203.895471,41.1965586 203.634087,41.007496 C203.34312,40.7106468 202.977322,40.623092 202.723943,40.5829773 C202.419053,40.5344908 202.103722,40.4842601 201.729571,40.4842601 L199.297415,40.4842601 L199.297415,48.1855946 L200.679512,48.1855946 L200.710836,44.9980416 L201.357857,44.9980416 L203.284996,48.2801259 L204.99913,48.2801259 L202.883697,44.822932 Z" id="Fill-54" fill="#FFFFFF"></path>
            </g>
        </g>
    </g>
</svg>