<?xml version="1.0" encoding="UTF-8"?>
<svg width="13px" height="13px" viewBox="0 0 13 13" version="1.1" xmlns="http://www.w3.org/2000/svg" xmlns:xlink="http://www.w3.org/1999/xlink">
    <!-- Generator: Sketch 41.2 (35397) - http://www.bohemiancoding.com/sketch -->
    <title>Page 1 Copy</title>
    <desc>Created with Sketch.</desc>
    <defs>
        <polygon id="path-1" points="12.4920357 0.0454326923 3.39458413e-05 0.0454326923 3.39458413e-05 12.4298058 12.4920357 12.4298058 12.4920357 0.0454326923"></polygon>
    </defs>
    <g id="Profile---commented" stroke="none" stroke-width="1" fill="none" fill-rule="evenodd">
        <g id="Hamutuk-Profile---Popovers" transform="translate(-151.000000, -1811.000000)">
            <g id="People" transform="translate(112.000000, 1640.000000)">
                <g id="1st-Row" transform="translate(27.000000, 75.000000)">
                    <g id="Group-2-Copy-2" transform="translate(7.000000, 91.000000)">
                        <g id="Page-1-Copy" transform="translate(5.000000, 5.000000)">
                            <mask id="mask-2" fill="white">
                                <use xlink:href="#path-1"></use>
                            </mask>
                            <g id="Clip-4"></g>
                            <path d="M12.461756,6.08942115 C12.4418637,6.04183462 12.4133492,5.99902692 12.3768235,5.96321923 L11.0423446,4.64008462 C10.8895204,4.488575 10.6420552,4.488575 10.489231,4.64008462 C10.3368142,4.79119038 10.3368142,5.03672885 10.489231,5.18810385 L11.1567421,5.84987308 L6.63631015,5.84967115 L6.63664961,1.36906538 L7.3330825,2.05984423 C7.4098001,2.1357 7.50953298,2.17366154 7.60987689,2.17366154 C7.70981344,2.17366154 7.80995368,2.1357 7.88626393,2.05984423 C8.0390881,1.90873846 8.0390881,1.66299808 7.88626393,1.51148846 L6.52232002,0.158873077 C6.48599797,0.122863462 6.44302253,0.0945942308 6.39502311,0.0748730769 C6.29936373,0.0355653846 6.19182331,0.0355653846 6.09623182,0.0748730769 C6.04857186,0.0943923077 6.0058001,0.122459615 5.97008907,0.157863462 C5.97008907,0.157863462 5.96974961,0.158267308 5.96934226,0.158469231 L4.63350551,1.482075 C4.48102079,1.63358462 4.48102079,1.87892115 4.63350551,2.03043077 C4.71022311,2.10608462 4.809956,2.14404615 4.91023201,2.14404615 C5.01016857,2.14404615 5.1103088,2.10608462 5.18661905,2.03043077 L5.85453743,1.36866154 L5.85419797,5.84967115 L1.33566702,5.84946923 L2.00256702,5.18810385 C2.15505174,5.03672885 2.15505174,4.79119038 2.00256702,4.64008462 C1.84974284,4.488575 1.60227766,4.488575 1.44945348,4.64008462 L0.11477089,5.96362308 C0.0380532882,6.03927692 3.39458413e-05,6.13835385 3.39458413e-05,6.23763269 C3.39458413e-05,6.33691154 0.0380532882,6.43598846 0.11477089,6.51184423 L1.4787148,7.86425769 C1.55522872,7.94031538 1.65516528,7.97800769 1.75530551,7.97800769 C1.85544574,7.97800769 1.9553823,7.94031538 2.03189623,7.86425769 C2.18451673,7.71274808 2.18451673,7.46734423 2.03189623,7.31603654 L1.33485232,6.62505577 L5.85399429,6.62525769 L5.85379062,11.1054596 L5.18661905,10.4442962 C5.03379487,10.293325 4.78632969,10.2929212 4.63350551,10.4444308 C4.48102079,10.5959404 4.48102079,10.8415462 4.63350551,10.9928538 L5.96934226,12.3162577 C6.04565251,12.3921135 6.14579275,12.4298058 6.2457293,12.4298058 C6.34586954,12.4298058 6.44580609,12.3921135 6.52211634,12.3162577 L7.88639971,10.9634404 C8.03929178,10.8119308 8.03929178,10.5661904 7.88639971,10.4150173 C7.73357553,10.2635077 7.48611035,10.2635077 7.33328617,10.4150173 L6.63610648,11.1066038 L6.63644594,6.62525769 L11.1569457,6.62545962 L10.4601055,7.31603654 C10.3076887,7.46734423 10.3076887,7.71274808 10.4601055,7.86425769 C10.5368231,7.94031538 10.636556,7.97800769 10.7368999,7.97800769 C10.8368365,7.97800769 10.9369767,7.94031538 11.0132869,7.86425769 L12.3774345,6.51184423 C12.3781813,6.51090192 12.3785887,6.50948846 12.3797428,6.50854615 C12.4142997,6.47334423 12.4424069,6.43195 12.4619597,6.38604615 C12.4818519,6.33845962 12.4920357,6.28818077 12.4920357,6.23743077 C12.491832,6.18735385 12.4816483,6.13680577 12.461756,6.08942115" id="Fill-3" fill="#9EA39B" mask="url(#mask-2)"></path>
                        </g>
                    </g>
                </g>
            </g>
        </g>
    </g>
</svg>