<?xml version="1.0" encoding="UTF-8"?>
<svg width="22px" height="17px" viewBox="0 0 22 17" version="1.1" xmlns="http://www.w3.org/2000/svg" xmlns:xlink="http://www.w3.org/1999/xlink">
    <!-- Generator: Sketch 42 (36781) - http://www.bohemiancoding.com/sketch -->
    <title>medical_response@2x</title>
    <desc>Created with Sketch.</desc>
    <defs>
        <polygon id="path-1" points="0 17 22 17 22 0 0 0"></polygon>
    </defs>
    <g id="icons" stroke="none" stroke-width="1" fill="none" fill-rule="evenodd">
        <g id="Desktop-Landscape" transform="translate(-168.000000, -231.000000)">
            <g id="medical_response" transform="translate(168.000000, 231.000000)">
                <path d="M21.5,12 C21.224,12 21,11.776 21,11.5 L21,4.707 L20.293,4 L4.75,4 L2,7.667 L2,11.5 C2,11.776 1.776,12 1.5,12 C1.224,12 1,11.776 1,11.5 L1,7.5 C1,7.392 1.035,7.286 1.1,7.2 L4.1,3.2 C4.194,3.074 4.343,3 4.5,3 L20.5,3 C20.633,3 20.76,3.053 20.853,3.146 L21.853,4.146 C21.947,4.24 22,4.367 22,4.5 L22,11.5 C22,11.776 21.776,12 21.5,12 Z" id="Fill-1" fill="#6D6D6D"></path>
                <path d="M4.4341,8 L6.0001,8 L6.0001,6 L5.7671,6 L4.4341,8 Z M6.5001,9 L3.5001,9 C3.3151,9 3.1461,8.898 3.0591,8.736 C2.9721,8.573 2.9821,8.376 3.0841,8.223 L5.0841,5.223 C5.1771,5.084 5.3331,5 5.5001,5 L6.5001,5 C6.7761,5 7.0001,5.224 7.0001,5.5 L7.0001,8.5 C7.0001,8.776 6.7761,9 6.5001,9 L6.5001,9 Z" id="Fill-3" fill="#6D6D6D"></path>
                <path d="M21.5,14 L20.5,14 C20.224,14 20,13.776 20,13.5 C20,13.224 20.224,13 20.5,13 L21,13 L21,12 L5.5,12 C5.422,12 5.346,11.981 5.276,11.947 L3.276,10.947 C3.029,10.823 2.929,10.523 3.053,10.276 C3.176,10.03 3.477,9.929 3.724,10.053 L5.618,11 L21.5,11 C21.776,11 22,11.224 22,11.5 L22,13.5 C22,13.776 21.776,14 21.5,14" id="Fill-5" fill="#6D6D6D"></path>
                <path d="M1.5,14 L0.5,14 C0.224,14 0,13.776 0,13.5 L0,11.5 C0,11.224 0.224,11 0.5,11 L1.5,11 C1.776,11 2,11.224 2,11.5 C2,11.776 1.776,12 1.5,12 L1,12 L1,13 L1.5,13 C1.776,13 2,13.224 2,13.5 C2,13.776 1.776,14 1.5,14" id="Fill-7" fill="#6D6D6D"></path>
                <path d="M4,14 C3.449,14 3,14.448 3,15 C3,15.552 3.449,16 4,16 C4.551,16 5,15.552 5,15 C5,14.448 4.551,14 4,14 M4,17 C2.897,17 2,16.102 2,15 C2,13.898 2.897,13 4,13 C5.103,13 6,13.898 6,15 C6,16.102 5.103,17 4,17" id="Fill-9" fill="#6D6D6D"></path>
                <path d="M18,14 C17.449,14 17,14.448 17,15 C17,15.552 17.449,16 18,16 C18.551,16 19,15.552 19,15 C19,14.448 18.551,14 18,14 M18,17 C16.897,17 16,16.102 16,15 C16,13.898 16.897,13 18,13 C19.103,13 20,13.898 20,15 C20,16.102 19.103,17 18,17" id="Fill-11" fill="#6D6D6D"></path>
                <path d="M15.5,14 L6.5,14 C6.224,14 6,13.776 6,13.5 C6,13.224 6.224,13 6.5,13 L15.5,13 C15.776,13 16,13.224 16,13.5 C16,13.776 15.776,14 15.5,14" id="Fill-13" fill="#6D6D6D"></path>
                <path d="M17.5,10 C17.224,10 17,9.776 17,9.5 L17,5.5 C17,5.224 17.224,5 17.5,5 C17.776,5 18,5.224 18,5.5 L18,9.5 C18,9.776 17.776,10 17.5,10" id="Fill-15" fill="#6D6D6D"></path>
                <path d="M19.2314,9 C19.1464,9 19.0604,8.979 18.9814,8.933 L15.5184,6.933 C15.2784,6.795 15.1964,6.489 15.3354,6.25 C15.4734,6.011 15.7784,5.927 16.0184,6.067 L19.4814,8.067 C19.7214,8.205 19.8034,8.511 19.6654,8.75 C19.5724,8.91 19.4044,9 19.2314,9" id="Fill-17" fill="#6D6D6D"></path>
                <path d="M15.7686,9 C15.5956,9 15.4276,8.91 15.3346,8.75 C15.1966,8.511 15.2786,8.205 15.5186,8.067 L18.9816,6.067 C19.2206,5.927 19.5266,6.011 19.6646,6.25 C19.8036,6.489 19.7216,6.795 19.4816,6.933 L16.0186,8.933 C15.9396,8.979 15.8536,9 15.7686,9" id="Fill-19" fill="#6D6D6D"></path>
                <mask id="mask-2" fill="white">
                    <use xlink:href="#path-1"></use>
                </mask>
                <g id="Clip-22"></g>
                <path d="M10,8 L13,8 L13,6 L10,6 L10,8 Z M13.5,9 L9.5,9 C9.224,9 9,8.776 9,8.5 L9,5.5 C9,5.224 9.224,5 9.5,5 L13.5,5 C13.776,5 14,5.224 14,5.5 L14,8.5 C14,8.776 13.776,9 13.5,9 L13.5,9 Z" id="Fill-21" fill="#6D6D6D" mask="url(#mask-2)"></path>
                <path d="M9,3 L10,3 L10,1.5 C10,1.225 9.776,1 9.5,1 C9.224,1 9,1.225 9,1.5 L9,3 Z M10.5,4 L8.5,4 C8.224,4 8,3.776 8,3.5 L8,1.5 C8,0.673 8.673,0 9.5,0 C10.327,0 11,0.673 11,1.5 L11,3.5 C11,3.776 10.776,4 10.5,4 L10.5,4 Z" id="Fill-23" fill="#6D6D6D" mask="url(#mask-2)"></path>
            </g>
        </g>
    </g>
</svg>