<?xml version="1.0" encoding="UTF-8"?>
<svg width="20px" height="20px" viewBox="0 0 20 20" version="1.1" xmlns="http://www.w3.org/2000/svg" xmlns:xlink="http://www.w3.org/1999/xlink">
    <!-- Generator: Sketch 42 (36781) - http://www.bohemiancoding.com/sketch -->
    <title>Fishing@2x</title>
    <desc>Created with Sketch.</desc>
    <defs></defs>
    <g id="icons" stroke="none" stroke-width="1" fill="none" fill-rule="evenodd">
        <g id="Desktop-Landscape" transform="translate(-265.000000, -172.000000)" fill="#6D6D6D">
            <g id="Fishing" transform="translate(265.000000, 172.000000)">
                <path d="M2.08333333,13.3406667 L0.416666667,13.3406667 C0.186666667,13.3406667 0,13.154 0,12.924 C0,12.694 0.186666667,12.5073333 0.416666667,12.5073333 L2.08333333,12.5073333 C2.31333333,12.5073333 2.5,12.694 2.5,12.924 C2.5,13.154 2.31333333,13.3406667 2.08333333,13.3406667" id="Fill-1"></path>
                <path d="M19.5833333,13.3333333 L14.5833333,13.3333333 C14.3533333,13.3333333 14.1666667,13.1466667 14.1666667,12.9166667 C14.1666667,12.6866667 14.3533333,12.5 14.5833333,12.5 L19.5833333,12.5 C19.8133333,12.5 20,12.6866667 20,12.9166667 C20,13.1466667 19.8133333,13.3333333 19.5833333,13.3333333" id="Fill-3"></path>
                <path d="M7.91666667,16.6666667 L5.41666667,16.6666667 C5.18666667,16.6666667 5,16.48 5,16.25 C5,16.02 5.18666667,15.8333333 5.41666667,15.8333333 L7.91666667,15.8333333 C8.14666667,15.8333333 8.33333333,16.02 8.33333333,16.25 C8.33333333,16.48 8.14666667,16.6666667 7.91666667,16.6666667" id="Fill-5"></path>
                <path d="M1.26625,16.6666667 C1.03708333,16.6666667 0.845416667,16.48 0.845416667,16.25 C0.845416667,16.02 1.02791667,15.8333333 1.25791667,15.8333333 L1.26625,15.8333333 C1.49625,15.8333333 1.68291667,16.02 1.68291667,16.25 C1.68291667,16.48 1.49625,16.6666667 1.26625,16.6666667" id="Fill-7"></path>
                <path d="M9.59958333,16.6666667 C9.37041667,16.6666667 9.17875,16.48 9.17875,16.25 C9.17875,16.02 9.36125,15.8333333 9.59125,15.8333333 L9.59958333,15.8333333 C9.82958333,15.8333333 10.01625,16.02 10.01625,16.25 C10.01625,16.48 9.82958333,16.6666667 9.59958333,16.6666667" id="Fill-9"></path>
                <path d="M6.26625,19.9926667 C6.03708333,19.9926667 5.84541667,19.806 5.84541667,19.576 C5.84541667,19.346 6.02791667,19.1593333 6.25791667,19.1593333 L6.26625,19.1593333 C6.49625,19.1593333 6.68291667,19.346 6.68291667,19.576 C6.68291667,19.806 6.49625,19.9926667 6.26625,19.9926667" id="Fill-11"></path>
                <path d="M8.76625,20 C8.53708333,20 8.34541667,19.8133333 8.34541667,19.5833333 C8.34541667,19.3533333 8.52791667,19.1666667 8.75791667,19.1666667 L8.76625,19.1666667 C8.99625,19.1666667 9.18291667,19.3533333 9.18291667,19.5833333 C9.18291667,19.8133333 8.99625,20 8.76625,20" id="Fill-13"></path>
                <path d="M10.4329167,20 C10.20375,20 10.0120833,19.8133333 10.0120833,19.5833333 C10.0120833,19.3533333 10.1945833,19.1666667 10.4245833,19.1666667 L10.4329167,19.1666667 C10.6629167,19.1666667 10.8495833,19.3533333 10.8495833,19.5833333 C10.8495833,19.8133333 10.6629167,20 10.4329167,20" id="Fill-15"></path>
                <path d="M16.26625,16.6666667 C16.0370833,16.6666667 15.8454167,16.48 15.8454167,16.25 C15.8454167,16.02 16.0279167,15.8333333 16.2579167,15.8333333 L16.26625,15.8333333 C16.49625,15.8333333 16.6829167,16.02 16.6829167,16.25 C16.6829167,16.48 16.49625,16.6666667 16.26625,16.6666667" id="Fill-17"></path>
                <path d="M12.0833333,16.6666667 C12.03,16.6666667 11.9766667,16.6566667 11.925,16.635 C11.7125,16.5475 11.6108333,16.3041667 11.6975,16.0916667 C12.705,13.6383333 13.2983333,11.1325 12.9425,10.8341667 C11.3983333,10.8341667 10.985,10.0508333 10.8741667,9.38666667 C5.52916667,12.0333333 5.8275,16.1708333 5.83166667,16.2133333 C5.85166667,16.4425 5.6825,16.645 5.45333333,16.665 C5.22166667,16.6833333 5.02083333,16.5158333 5.00166667,16.2866667 C4.98333333,16.0816667 4.63333333,11.235 11.0808333,8.36916667 C11.21,8.31166667 11.3591667,8.32333333 11.4766667,8.40083333 C11.595,8.4775 11.6666667,8.60916667 11.6666667,8.75 C11.6666667,9.5275 11.7508333,10 12.9166667,10 C13.22,10 13.4791667,10.1358333 13.6433333,10.3816667 C14.3916667,11.4975 12.9333333,15.2766667 12.4691667,16.4083333 C12.4025,16.5691667 12.2466667,16.6666667 12.0833333,16.6666667" id="Fill-19"></path>
                <path d="M9.58333333,11.6666667 C9.475,11.6666667 9.36666667,11.625 9.29083333,11.5416667 C9.20833333,11.4666667 9.16666667,11.3583333 9.16666667,11.25 C9.16666667,11.1416667 9.20833333,11.0333333 9.28333333,10.9583333 C9.45,10.8 9.71666667,10.8 9.875,10.9583333 C9.95833333,11.0333333 10,11.1416667 10,11.25 C10,11.3583333 9.95833333,11.4666667 9.875,11.5416667 C9.8,11.625 9.69166667,11.6666667 9.58333333,11.6666667" id="Fill-21"></path>
                <path d="M11.2508333,15 C11.24,15 11.23,14.9991667 11.22,14.9991667 C10.8391667,14.9708333 7.5,14.6766667 7.5,12.9166667 C7.5,12.6866667 7.68666667,12.5 7.91666667,12.5 C8.14666667,12.5 8.33333333,12.6866667 8.33333333,12.9166667 C8.33333333,13.6925 10.3575,14.1 11.28,14.1675 C11.5091667,14.1841667 11.6825,14.3841667 11.6658333,14.6133333 C11.6491667,14.8325 11.4666667,15 11.2508333,15" id="Fill-23"></path>
                <path d="M3.75,16.6666667 C3.63,16.6666667 3.51166667,16.6158333 3.42916667,16.5158333 C2.0725,14.8808333 3.34083333,12.7858333 3.39583333,12.6975 C3.47166667,12.575 3.60583333,12.5 3.75,12.5 L6.25,12.5 C6.48,12.5 6.66666667,12.6866667 6.66666667,12.9166667 C6.66666667,13.1466667 6.48,13.3333333 6.25,13.3333333 L4,13.3333333 C3.76916667,13.8108333 3.2975,15.0516667 4.07083333,15.9841667 C4.2175,16.1616667 4.19333333,16.4233333 4.01583333,16.5708333 C3.93833333,16.635 3.84333333,16.6666667 3.75,16.6666667" id="Fill-25"></path>
                <path d="M5.41666667,15 L3.33333333,15 C3.10333333,15 2.91666667,14.8133333 2.91666667,14.5833333 C2.91666667,14.3533333 3.10333333,14.1666667 3.33333333,14.1666667 L5.41666667,14.1666667 C5.64666667,14.1666667 5.83333333,14.3533333 5.83333333,14.5833333 C5.83333333,14.8133333 5.64666667,15 5.41666667,15" id="Fill-27"></path>
                <path d="M12.0833333,10 C11.9766667,10 11.87,9.95916667 11.7883333,9.87833333 C11.6258333,9.715 11.6258333,9.45166667 11.7883333,9.28833333 C12.7325,8.345 13.83,6.15583333 13.3333333,5.00666667 C13.0775,4.415 12.3633333,4.125 11.2633333,4.16666667 C10.06,4.19583333 8.865,3.69 7.9075,2.76166667 C7.14166667,2.01833333 6.66666667,1.12 6.66666667,0.416666667 C6.66666667,0.186666667 6.85333333,0 7.08333333,0 C7.31333333,0 7.5,0.186666667 7.5,0.416666667 C7.5,0.809166667 7.805,1.50083333 8.4875,2.16333333 C9.285,2.93583333 10.2858333,3.37583333 11.2366667,3.33333333 C13.1075,3.2825 13.82,4.0325 14.0983333,4.67583333 C14.8316667,6.37333333 13.3141667,8.94166667 12.3775,9.87833333 C12.2966667,9.95916667 12.19,10 12.0833333,10" id="Fill-29"></path>
                <path d="M14.5833333,16.6666667 L11.25,16.6666667 C11.02,16.6666667 10.8333333,16.48 10.8333333,16.25 C10.8333333,16.02 11.02,15.8333333 11.25,15.8333333 L14.5833333,15.8333333 C14.8133333,15.8333333 15,16.02 15,16.25 C15,16.48 14.8133333,16.6666667 14.5833333,16.6666667" id="Fill-31"></path>
                <path d="M12.0833333,18.3333333 L6.25,18.3333333 C6.02,18.3333333 5.83333333,18.1466667 5.83333333,17.9166667 C5.83333333,17.6866667 6.02,17.5 6.25,17.5 L12.0833333,17.5 C12.3133333,17.5 12.5,17.6866667 12.5,17.9166667 C12.5,18.1466667 12.3133333,18.3333333 12.0833333,18.3333333" id="Fill-33"></path>
                <path d="M13.76625,18.3333333 C13.5370833,18.3333333 13.3454167,18.1466667 13.3454167,17.9166667 C13.3454167,17.6866667 13.5279167,17.5 13.7579167,17.5 L13.76625,17.5 C13.99625,17.5 14.1829167,17.6866667 14.1829167,17.9166667 C14.1829167,18.1466667 13.99625,18.3333333 13.76625,18.3333333" id="Fill-35"></path>
                <path d="M4.59958333,18.3333333 C4.37041667,18.3333333 4.17875,18.1466667 4.17875,17.9166667 C4.17875,17.6866667 4.36125,17.5 4.59125,17.5 L4.59958333,17.5 C4.82958333,17.5 5.01625,17.6866667 5.01625,17.9166667 C5.01625,18.1466667 4.82958333,18.3333333 4.59958333,18.3333333" id="Fill-37"></path>
            </g>
        </g>
    </g>
</svg>