<?xml version="1.0" encoding="UTF-8"?>
<svg width="17px" height="22px" viewBox="0 0 17 22" version="1.1" xmlns="http://www.w3.org/2000/svg" xmlns:xlink="http://www.w3.org/1999/xlink">
    <!-- Generator: Sketch 42 (36781) - http://www.bohemiancoding.com/sketch -->
    <title>Forestry@2x</title>
    <desc>Created with Sketch.</desc>
    <defs>
        <polygon id="path-1" points="0 22 17 22 17 0 0 0"></polygon>
    </defs>
    <g id="icons" stroke="none" stroke-width="1" fill="none" fill-rule="evenodd">
        <g id="Desktop-Landscape" transform="translate(-216.000000, -168.000000)">
            <g id="Forestry" transform="translate(216.000000, 168.000000)">
                <path d="M3.25,17 L13.75,17 C12.273,15.984 10.91,14.341 9.927,12.765 C9.83,12.611 9.825,12.417 9.913,12.257 C10.001,12.099 10.169,12 10.351,12 L12.797,12 C11.335,10.994 9.961,9.362 9.057,7.744 C8.97,7.589 8.972,7.4 9.061,7.247 C9.151,7.094 9.315,7 9.493,7 L11.351,7 C10.167,5.965 9.098,4.286 8.5,2.736 C7.902,4.286 6.833,5.965 5.649,7 L7.507,7 C7.685,7 7.849,7.094 7.938,7.247 C8.028,7.4 8.03,7.589 7.943,7.744 C7.039,9.362 5.665,10.994 4.203,12 L6.649,12 C6.831,12 6.999,12.099 7.087,12.257 C7.175,12.417 7.17,12.611 7.073,12.765 C6.09,14.341 4.727,15.984 3.25,17 Z M16.5,18 L0.5,18 C0.224,18 0,17.776 0,17.5 C0,17.224 0.224,17 0.5,17 C2.195,17 4.244,15.095 5.718,13 L1.5,13 C1.224,13 1,12.776 1,12.5 C1,12.224 1.224,12 1.5,12 C3.192,12 5.277,10.053 6.619,8 L3.5,8 C3.224,8 3,7.776 3,7.5 C3,7.224 3.224,7 3.5,7 C5.266,7 8,2.682 8,0.5 C8,0.224 8.224,0 8.5,0 C8.776,0 9,0.224 9,0.5 C9,2.682 11.734,7 13.5,7 C13.776,7 14,7.224 14,7.5 C14,7.776 13.776,8 13.5,8 L10.381,8 C11.723,10.053 13.808,12 15.5,12 C15.776,12 16,12.224 16,12.5 C16,12.776 15.776,13 15.5,13 L11.282,13 C12.756,15.095 14.805,17 16.5,17 C16.776,17 17,17.224 17,17.5 C17,17.776 16.776,18 16.5,18 Z" id="Fill-1" fill="#6D6D6D"></path>
                <mask id="mask-2" fill="white">
                    <use xlink:href="#path-1"></use>
                </mask>
                <g id="Clip-4"></g>
                <path d="M8,21 L9,21 L9,18 L8,18 L8,21 Z M9.5,22 L7.5,22 C7.224,22 7,21.776 7,21.5 L7,17.5 C7,17.224 7.224,17 7.5,17 L9.5,17 C9.776,17 10,17.224 10,17.5 L10,21.5 C10,21.776 9.776,22 9.5,22 L9.5,22 Z" id="Fill-3" fill="#6D6D6D" mask="url(#mask-2)"></path>
            </g>
        </g>
    </g>
</svg>