<?xml version="1.0" encoding="UTF-8"?>
<svg width="20px" height="20px" viewBox="0 0 20 20" version="1.1" xmlns="http://www.w3.org/2000/svg" xmlns:xlink="http://www.w3.org/1999/xlink">
    <!-- Generator: Sketch 42 (36781) - http://www.bohemiancoding.com/sketch -->
    <title>Government@2x</title>
    <desc>Created with Sketch.</desc>
    <defs>
        <polygon id="path-1" points="19.9997881 0 0.000203270223 0 0.000203270223 6.66666667 19.9997881 6.66666667 19.9997881 -2.96059473e-15"></polygon>
        <polygon id="path-3" points="0 20.0003333 20 20.0003333 20 0.000333333333 0 0.000333333333"></polygon>
    </defs>
    <g id="icons" stroke="none" stroke-width="1" fill="none" fill-rule="evenodd">
        <g id="Desktop-Landscape" transform="translate(-296.000000, -196.000000)">
            <g id="Government" transform="translate(296.000000, 196.000000)">
                <g id="Group-3" transform="translate(0.000000, 0.000333)">
                    <mask id="mask-2" fill="white">
                        <use xlink:href="#path-1"></use>
                    </mask>
                    <g id="Clip-2"></g>
                    <path d="M1.95808333,5.83333333 L18.1530833,5.83333333 L10.40725,0.904166667 L1.95808333,5.83333333 Z M19.5830833,6.66666667 L0.416416667,6.66666667 C0.228083333,6.66666667 0.0639166667,6.54083333 0.01475,6.35833333 C-0.0344166667,6.1775 0.0439166667,5.985 0.206416667,5.89 L10.2064167,0.0566666667 C10.3414167,-0.0225 10.5080833,-0.0191666667 10.6405833,0.065 L19.80725,5.89833333 C19.9639167,5.99833333 20.03475,6.18833333 19.9830833,6.36666667 C19.9314167,6.54416667 19.7689167,6.66666667 19.5830833,6.66666667 L19.5830833,6.66666667 Z" id="Fill-1" fill="#6D6D6D" mask="url(#mask-2)"></path>
                </g>
                <mask id="mask-4" fill="white">
                    <use xlink:href="#path-3"></use>
                </mask>
                <g id="Clip-5"></g>
                <path d="M0.833333333,19.167 L19.1666667,19.167 L19.1666667,17.5003333 L0.833333333,17.5003333 L0.833333333,19.167 Z M19.5833333,20.0003333 L0.416666667,20.0003333 C0.186666667,20.0003333 0,19.8136667 0,19.5836667 L0,17.0836667 C0,16.8536667 0.186666667,16.667 0.416666667,16.667 L19.5833333,16.667 C19.8141667,16.667 20,16.8536667 20,17.0836667 L20,19.5836667 C20,19.8136667 19.8141667,20.0003333 19.5833333,20.0003333 L19.5833333,20.0003333 Z" id="Fill-4" fill="#6D6D6D" mask="url(#mask-4)"></path>
                <path d="M3.33333333,15.0003333 L5,15.0003333 L5,8.33366667 L3.33333333,8.33366667 L3.33333333,15.0003333 Z M5.41666667,15.8336667 L2.91666667,15.8336667 C2.68666667,15.8336667 2.5,15.647 2.5,15.417 L2.5,7.917 C2.5,7.687 2.68666667,7.50033333 2.91666667,7.50033333 L5.41666667,7.50033333 C5.6475,7.50033333 5.83333333,7.687 5.83333333,7.917 L5.83333333,15.417 C5.83333333,15.647 5.6475,15.8336667 5.41666667,15.8336667 L5.41666667,15.8336667 Z" id="Fill-6" fill="#6D6D6D" mask="url(#mask-4)"></path>
                <path d="M2.91683333,8.33366667 L2.0835,8.33366667 C1.8535,8.33366667 1.66683333,8.147 1.66683333,7.917 C1.66683333,7.687 1.8535,7.50033333 2.0835,7.50033333 L2.91683333,7.50033333 C3.14683333,7.50033333 3.3335,7.687 3.3335,7.917 C3.3335,8.147 3.14683333,8.33366667 2.91683333,8.33366667" id="Fill-7" fill="#6D6D6D" mask="url(#mask-4)"></path>
                <path d="M2.91683333,15.8336667 L2.0835,15.8336667 C1.8535,15.8336667 1.66683333,15.647 1.66683333,15.417 C1.66683333,15.187 1.8535,15.0003333 2.0835,15.0003333 L2.91683333,15.0003333 C3.14683333,15.0003333 3.3335,15.187 3.3335,15.417 C3.3335,15.647 3.14683333,15.8336667 2.91683333,15.8336667" id="Fill-8" fill="#6D6D6D" mask="url(#mask-4)"></path>
                <path d="M6.25016667,15.8336667 L5.41683333,15.8336667 C5.18683333,15.8336667 5.00016667,15.647 5.00016667,15.417 C5.00016667,15.187 5.18683333,15.0003333 5.41683333,15.0003333 L6.25016667,15.0003333 C6.48016667,15.0003333 6.66683333,15.187 6.66683333,15.417 C6.66683333,15.647 6.48016667,15.8336667 6.25016667,15.8336667" id="Fill-9" fill="#6D6D6D" mask="url(#mask-4)"></path>
                <path d="M6.25016667,8.33366667 L5.41683333,8.33366667 C5.18683333,8.33366667 5.00016667,8.147 5.00016667,7.917 C5.00016667,7.687 5.18683333,7.50033333 5.41683333,7.50033333 L6.25016667,7.50033333 C6.48016667,7.50033333 6.66683333,7.687 6.66683333,7.917 C6.66683333,8.147 6.48016667,8.33366667 6.25016667,8.33366667" id="Fill-10" fill="#6D6D6D" mask="url(#mask-4)"></path>
                <path d="M9.16666667,15.0003333 L10.8333333,15.0003333 L10.8333333,8.33366667 L9.16666667,8.33366667 L9.16666667,15.0003333 Z M11.25,15.8336667 L8.75,15.8336667 C8.52,15.8336667 8.33333333,15.647 8.33333333,15.417 L8.33333333,7.917 C8.33333333,7.687 8.52,7.50033333 8.75,7.50033333 L11.25,7.50033333 C11.4808333,7.50033333 11.6666667,7.687 11.6666667,7.917 L11.6666667,15.417 C11.6666667,15.647 11.4808333,15.8336667 11.25,15.8336667 L11.25,15.8336667 Z" id="Fill-11" fill="#6D6D6D" mask="url(#mask-4)"></path>
                <path d="M8.75016667,8.33366667 L7.91683333,8.33366667 C7.68683333,8.33366667 7.50016667,8.147 7.50016667,7.917 C7.50016667,7.687 7.68683333,7.50033333 7.91683333,7.50033333 L8.75016667,7.50033333 C8.98016667,7.50033333 9.16683333,7.687 9.16683333,7.917 C9.16683333,8.147 8.98016667,8.33366667 8.75016667,8.33366667" id="Fill-12" fill="#6D6D6D" mask="url(#mask-4)"></path>
                <path d="M8.75016667,15.8336667 L7.91683333,15.8336667 C7.68683333,15.8336667 7.50016667,15.647 7.50016667,15.417 C7.50016667,15.187 7.68683333,15.0003333 7.91683333,15.0003333 L8.75016667,15.0003333 C8.98016667,15.0003333 9.16683333,15.187 9.16683333,15.417 C9.16683333,15.647 8.98016667,15.8336667 8.75016667,15.8336667" id="Fill-13" fill="#6D6D6D" mask="url(#mask-4)"></path>
                <path d="M12.0835,15.8336667 L11.2501667,15.8336667 C11.0201667,15.8336667 10.8335,15.647 10.8335,15.417 C10.8335,15.187 11.0201667,15.0003333 11.2501667,15.0003333 L12.0835,15.0003333 C12.3135,15.0003333 12.5001667,15.187 12.5001667,15.417 C12.5001667,15.647 12.3135,15.8336667 12.0835,15.8336667" id="Fill-14" fill="#6D6D6D" mask="url(#mask-4)"></path>
                <path d="M12.0835,8.33366667 L11.2501667,8.33366667 C11.0201667,8.33366667 10.8335,8.147 10.8335,7.917 C10.8335,7.687 11.0201667,7.50033333 11.2501667,7.50033333 L12.0835,7.50033333 C12.3135,7.50033333 12.5001667,7.687 12.5001667,7.917 C12.5001667,8.147 12.3135,8.33366667 12.0835,8.33366667" id="Fill-15" fill="#6D6D6D" mask="url(#mask-4)"></path>
                <path d="M15,15.0003333 L16.6666667,15.0003333 L16.6666667,8.33366667 L15,8.33366667 L15,15.0003333 Z M17.0833333,15.8336667 L14.5833333,15.8336667 C14.3533333,15.8336667 14.1666667,15.647 14.1666667,15.417 L14.1666667,7.917 C14.1666667,7.687 14.3533333,7.50033333 14.5833333,7.50033333 L17.0833333,7.50033333 C17.3141667,7.50033333 17.5,7.687 17.5,7.917 L17.5,15.417 C17.5,15.647 17.3141667,15.8336667 17.0833333,15.8336667 L17.0833333,15.8336667 Z" id="Fill-16" fill="#6D6D6D" mask="url(#mask-4)"></path>
                <path d="M14.5835,8.33366667 L13.7501667,8.33366667 C13.5201667,8.33366667 13.3335,8.147 13.3335,7.917 C13.3335,7.687 13.5201667,7.50033333 13.7501667,7.50033333 L14.5835,7.50033333 C14.8135,7.50033333 15.0001667,7.687 15.0001667,7.917 C15.0001667,8.147 14.8135,8.33366667 14.5835,8.33366667" id="Fill-17" fill="#6D6D6D" mask="url(#mask-4)"></path>
                <path d="M14.5835,15.8336667 L13.7501667,15.8336667 C13.5201667,15.8336667 13.3335,15.647 13.3335,15.417 C13.3335,15.187 13.5201667,15.0003333 13.7501667,15.0003333 L14.5835,15.0003333 C14.8135,15.0003333 15.0001667,15.187 15.0001667,15.417 C15.0001667,15.647 14.8135,15.8336667 14.5835,15.8336667" id="Fill-18" fill="#6D6D6D" mask="url(#mask-4)"></path>
                <path d="M17.9168333,15.8336667 L17.0835,15.8336667 C16.8535,15.8336667 16.6668333,15.647 16.6668333,15.417 C16.6668333,15.187 16.8535,15.0003333 17.0835,15.0003333 L17.9168333,15.0003333 C18.1468333,15.0003333 18.3335,15.187 18.3335,15.417 C18.3335,15.647 18.1468333,15.8336667 17.9168333,15.8336667" id="Fill-19" fill="#6D6D6D" mask="url(#mask-4)"></path>
                <path d="M17.9168333,8.33366667 L17.0835,8.33366667 C16.8535,8.33366667 16.6668333,8.147 16.6668333,7.917 C16.6668333,7.687 16.8535,7.50033333 17.0835,7.50033333 L17.9168333,7.50033333 C18.1468333,7.50033333 18.3335,7.687 18.3335,7.917 C18.3335,8.147 18.1468333,8.33366667 17.9168333,8.33366667" id="Fill-20" fill="#6D6D6D" mask="url(#mask-4)"></path>
            </g>
        </g>
    </g>
</svg>