<?xml version="1.0" encoding="UTF-8"?>
<svg width="31px" height="29px" viewBox="0 0 31 29" version="1.1" xmlns="http://www.w3.org/2000/svg" xmlns:xlink="http://www.w3.org/1999/xlink">
    <!-- Generator: Sketch 49.2 (51160) - http://www.bohemiancoding.com/sketch -->
    <title>Group 7</title>
    <desc>Created with Sketch.</desc>
    <defs></defs>
    <g id="Page-1" stroke="none" stroke-width="1" fill="none" fill-rule="evenodd" stroke-linecap="round" stroke-linejoin="round">
        <g id="-Icon54---30x_Grid_set_2_Smart_Stroke" transform="translate(-936.000000, -2015.000000)" stroke="#000000">
            <g id="Settings" transform="translate(876.000000, 1973.000000)">
                <g id="Group-7" transform="translate(60.000000, 43.000000)">
                    <path d="M26.9212,17.302 L26.9352,17.307 C28.0432,17.722 29.2322,16.983 29.3832,15.809 C29.4592,15.214 29.5002,14.608 29.5002,13.993 C29.5002,13.377 29.4592,12.771 29.3832,12.176 C29.2322,11.003 28.0432,10.263 26.9352,10.678 L26.9212,10.683 C26.0152,11.023 25.0052,10.554 24.6102,9.67 C24.3182,9.018 23.9632,8.401 23.5502,7.827 C22.9782,7.031 23.0732,5.942 23.8302,5.319 L23.8312,5.318 C24.7462,4.565 24.6972,3.162 23.7532,2.446 C22.7972,1.721 21.7492,1.113 20.6282,0.641 C19.5332,0.18 18.2912,0.835 18.0962,2.006 C17.9342,2.978 17.0322,3.604 16.0532,3.502 C15.7072,3.465 15.3562,3.446 15.0002,3.446 C14.6442,3.446 14.2932,3.465 13.9472,3.502 C12.9672,3.604 12.0662,2.978 11.9042,2.006 C11.7092,0.835 10.4662,0.18 9.3722,0.641 C8.2512,1.113 7.2022,1.721 6.2462,2.446 C5.3022,3.162 5.2542,4.565 6.1692,5.318 L6.1702,5.319 C6.9272,5.942 7.0222,7.031 6.4492,7.827 C6.0372,8.401 5.6812,9.018 5.3902,9.67 C4.9942,10.554 3.9852,11.023 3.0792,10.683 L3.0642,10.678 C1.9562,10.263 0.7682,11.003 0.6172,12.176 C0.5402,12.771 0.5002,13.377 0.5002,13.993 C0.5002,14.608 0.5402,15.214 0.6172,15.809 C0.7682,16.983 1.9562,17.722 3.0642,17.307 L3.0792,17.302 C3.9852,16.962 4.9942,17.432 5.3902,18.315 C5.6812,18.967 6.0372,19.584 6.4492,20.158 C7.0222,20.954 6.9272,22.043 6.1702,22.666 L6.1692,22.667 C5.2542,23.42 5.3022,24.823 6.2462,25.539 C7.2022,26.264 8.2512,26.872 9.3722,27.344 C10.4662,27.805 11.7092,27.15 11.9042,25.979 C12.0662,25.007 12.9672,24.381 13.9472,24.484 C14.2932,24.52 14.6442,24.539 15.0002,24.539 C15.3562,24.539 15.7072,24.52 16.0532,24.484 C17.0322,24.381 17.9342,25.007 18.0962,25.979 C18.2912,27.15 19.5332,27.805 20.6282,27.344 C21.7492,26.872 22.7972,26.264 23.7532,25.539 C24.6972,24.823 24.7462,23.42 23.8312,22.667 L23.8302,22.666 C23.0732,22.043 22.9782,20.954 23.5502,20.158 C23.9632,19.584 24.3182,18.967 24.6102,18.315 C25.0052,17.432 26.0152,16.962 26.9212,17.302 L26.9212,17.302 Z" id="Stroke-3"></path>
                    <path d="M20.5,14 C20.5,17.038 18.038,19.5 15,19.5 C11.962,19.5 9.5,17.038 9.5,14 C9.5,10.962 11.962,8.5 15,8.5 C18.038,8.5 20.5,10.962 20.5,14 L20.5,14 Z" id="Stroke-5"></path>
                </g>
            </g>
        </g>
    </g>
</svg>