<?xml version="1.0" encoding="UTF-8"?>
<svg width="120px" height="120px" viewBox="0 0 120 120" version="1.1" xmlns="http://www.w3.org/2000/svg" xmlns:xlink="http://www.w3.org/1999/xlink">
    <!-- Generator: Sketch 48.2 (47327) - http://www.bohemiancoding.com/sketch -->
    <title>Group</title>
    <desc>Created with Sketch.</desc>
    <defs></defs>
    <g id="Page-1" stroke="none" stroke-width="1" fill="none" fill-rule="evenodd">
        <g id="Group">
            <g id="user_noprofile" fill="#E5E5E5" fill-rule="nonzero">
                <rect id="Rectangle-6" x="0" y="0" width="120" height="120" rx="60"></rect>
            </g>
            <path d="M90,90 L88.4583043,83.8383478 C87.8221304,81.2859565 85.9238696,79.2363478 83.427913,78.4026522 L72.0434783,74.6086957 C68.1956522,73.0054348 66.9130435,66.8335217 66.9130435,65.6304348 C68.7574348,64.1066957 70.7608696,61.4619565 70.7608696,59.2173913 C70.7608696,56.9728261 72.0434783,56.6521739 72.0434783,56.6521739 C72.0434783,56.6521739 73.326087,53.4456522 73.326087,51.5217391 C73.326087,51.5217391 73.0054348,50.2391304 72.0434783,50.2391304 L72.0434783,42.5434783 C72.0434783,36.2381739 68.8369565,36.7717391 69.4782609,36.1304348 C69.4782609,34.634913 67.662087,31 60.5,31 C53.2045217,31 48.9565217,37.9466087 48.9565217,42.5434783 L48.9565217,50.2391304 C47.9945652,50.2391304 47.673913,51.5217391 47.673913,51.5217391 C47.673913,53.4456522 48.9565217,56.6521739 48.9565217,56.6521739 C48.9565217,56.6521739 50.2391304,56.9728261 50.2391304,59.2173913 C50.2391304,61.4619565 52.2425652,64.1066957 54.0869565,65.6304348 C54.0869565,66.8335217 52.8043478,73.0054348 48.9565217,74.6086957 L37.572087,78.4026522 C35.0761304,79.2363478 33.1778696,81.2859565 32.5416957,83.8383478 L31,90" id="Stroke-850" stroke="#FFFFFF" stroke-width="2" stroke-linecap="round" stroke-linejoin="round"></path>
        </g>
    </g>
</svg>