<?xml version="1.0" encoding="UTF-8"?>
<svg width="11px" height="12px" viewBox="0 0 11 12" version="1.1" xmlns="http://www.w3.org/2000/svg" xmlns:xlink="http://www.w3.org/1999/xlink">
    <!-- Generator: Sketch 51.3 (57544) - http://www.bohemiancoding.com/sketch -->
    <title>mosaic_Fill 127</title>
    <desc>Created with Sketch.</desc>
    <defs></defs>
    <g id="Project-List-Filters" transform="translate(-995.000000, -230.000000)" fill="#2E4369">
        <path d="M996.833333,238.142857 C996.225767,238.142857 995.733333,237.663214 995.733333,237.071429 C995.733333,236.48 996.225767,236 996.833333,236 C997.4409,236 997.933333,236.48 997.933333,237.071429 C997.933333,237.663214 997.4409,238.142857 996.833333,238.142857 L996.833333,238.142857 Z M997.2,235.321786 L997.2,231.357143 C997.2,231.16 997.0361,231 996.833333,231 C996.630567,231 996.466667,231.16 996.466667,231.357143 L996.466667,235.321786 C995.629933,235.487143 995,236.2075 995,237.071429 C995,237.935357 995.629933,238.655714 996.466667,238.821071 L996.466667,240.642857 C996.466667,240.840357 996.630567,241 996.833333,241 C997.0361,241 997.2,240.840357 997.2,240.642857 L997.2,238.821071 C998.036733,238.655714 998.666667,237.935357 998.666667,237.071429 C998.666667,236.2075 998.036733,235.487143 997.2,235.321786 L997.2,235.321786 Z M1000.5,234.571429 C999.892433,234.571429 999.4,234.091786 999.4,233.5 C999.4,232.908571 999.892433,232.428571 1000.5,232.428571 C1001.10757,232.428571 1001.6,232.908571 1001.6,233.5 C1001.6,234.091786 1001.10757,234.571429 1000.5,234.571429 L1000.5,234.571429 Z M1000.86667,231.750357 L1000.86667,231.357143 C1000.86667,231.16 1000.70277,231 1000.5,231 C1000.29723,231 1000.13333,231.16 1000.13333,231.357143 L1000.13333,231.750357 C999.2966,231.915714 998.666667,232.636071 998.666667,233.5 C998.666667,234.363929 999.2966,235.084286 1000.13333,235.249643 L1000.13333,240.642857 C1000.13333,240.840357 1000.29723,241 1000.5,241 C1000.70277,241 1000.86667,240.840357 1000.86667,240.642857 L1000.86667,235.249643 C1001.7034,235.084286 1002.33333,234.363929 1002.33333,233.5 C1002.33333,232.636071 1001.7034,231.915714 1000.86667,231.750357 L1000.86667,231.750357 Z M1004.16667,239.571429 C1003.5591,239.571429 1003.06667,239.091786 1003.06667,238.5 C1003.06667,237.908571 1003.5591,237.428571 1004.16667,237.428571 C1004.77423,237.428571 1005.26667,237.908571 1005.26667,238.5 C1005.26667,239.091786 1004.77423,239.571429 1004.16667,239.571429 L1004.16667,239.571429 Z M1004.53333,236.750357 L1004.53333,231.357143 C1004.53333,231.16 1004.36943,231 1004.16667,231 C1003.9639,231 1003.8,231.16 1003.8,231.357143 L1003.8,236.750357 C1002.96327,236.915714 1002.33333,237.636071 1002.33333,238.5 C1002.33333,239.363929 1002.96327,240.084286 1003.8,240.249643 L1003.8,240.642857 C1003.8,240.840357 1003.9639,241 1004.16667,241 C1004.36943,241 1004.53333,240.840357 1004.53333,240.642857 L1004.53333,240.249643 C1005.37007,240.084286 1006,239.363929 1006,238.5 C1006,237.636071 1005.37007,236.915714 1004.53333,236.750357 L1004.53333,236.750357 Z" id="Fill-127" transform="translate(1000.500000, 236.000000) rotate(-270.000000) translate(-1000.500000, -236.000000) "></path>
    </g>
</svg>
