<?xml version="1.0" encoding="UTF-8"?>
<svg width="500px" height="128px" viewBox="0 0 500 128" version="1.1" xmlns="http://www.w3.org/2000/svg" xmlns:xlink="http://www.w3.org/1999/xlink" style="background: #FFFFFF;">
    <!-- Generator: Sketch 42 (36781) - http://www.bohemiancoding.com/sketch -->
    <title>Banner Placeholder@2x</title>
    <desc>Created with Sketch.</desc>
    <defs></defs>
    <g id="UIs" stroke="none" stroke-width="1" fill="none" fill-rule="evenodd">
        <g id="Banner-Placeholder">
            <rect id="Rectangle" fill="#FDFDFD" x="0" y="0" width="502" height="128"></rect>
            <path d="M10,10.75 L10,11 L10,32 L10,32.5 L11,32.5 L11,32 L11,11 L31.5,11 L32,11 L32,10 L31.5,10 L10.5,10 L10,10 L10,10.75 Z" id="Combined-Shape-Copy-4" stroke="#037E78" stroke-linecap="square"></path>
            <path d="M470.25,10.75 L470.25,31.75 L470.25,32.25 L469.25,32.25 L469.25,31.75 L469.25,10.75 L469.25,9.75 L469.75,9.75 L490.75,9.75 L491.25,9.75 L491.25,10.75 L490.75,10.75 L470.25,10.75 Z" id="Combined-Shape-Copy-6" stroke="#037E78" stroke-linecap="square" transform="translate(480.250000, 21.000000) rotate(-270.000000) translate(-480.250000, -21.000000) "></path>
            <path d="M470,95.75 L470,96 L470,117 L470,117.5 L471,117.5 L471,117 L471,96 L491.5,96 L492,96 L492,95 L491.5,95 L470.5,95 L470,95 L470,95.75 Z" id="Combined-Shape-Copy-7" stroke="#037E78" stroke-linecap="square" transform="translate(481.000000, 106.250000) rotate(-180.000000) translate(-481.000000, -106.250000) "></path>
            <path d="M10.25,96.5 L10.25,96.75 L10.25,117.75 L10.25,118.25 L11.25,118.25 L11.25,117.75 L11.25,96.75 L31.75,96.75 L32.25,96.75 L32.25,95.75 L31.75,95.75 L10.75,95.75 L10.25,95.75 L10.25,96.5 Z" id="Combined-Shape-Copy-5" stroke="#037E78" stroke-linecap="square" transform="translate(21.250000, 107.000000) rotate(-90.000000) translate(-21.250000, -107.000000) "></path>
            <text id="Your-Activity’s" font-family="AvenirNext-Medium, Avenir Next" font-size="12" font-weight="400" letter-spacing="-0.210000008" fill="#037E78">
                <tspan x="214.849" y="51">Your Activity’s</tspan>
                <tspan x="210.382" y="67" font-family="AvenirNext-Bold, Avenir Next" font-size="14" font-weight="bold">Banner Here</tspan>
                <tspan x="292.618" y="67" font-family="AvenirNext-DemiBold, Avenir Next" font-size="14" font-weight="500"></tspan>
                <tspan x="203.806" y="86">(1500px X 350px)</tspan>
            </text>
        </g>
    </g>
</svg>
