<?xml version="1.0" encoding="UTF-8"?>
<svg width="48px" height="48px" viewBox="0 0 48 48" version="1.1" xmlns="http://www.w3.org/2000/svg" xmlns:xlink="http://www.w3.org/1999/xlink">
    <!-- Generator: Sketch 55.2 (78181) - https://sketchapp.com -->
    <title>Group 34 Copy 5@2x</title>
    <desc>Created with Sketch.</desc>
    <defs>
        <filter x="-7.1%" y="-7.1%" width="114.3%" height="114.3%" filterUnits="objectBoundingBox" id="filter-1">
            <feOffset dx="0" dy="0" in="SourceAlpha" result="shadowOffsetOuter1"></feOffset>
            <feGaussianBlur stdDeviation="0.5" in="shadowOffsetOuter1" result="shadowBlurOuter1"></feGaussianBlur>
            <feColorMatrix values="0 0 0 0 0   0 0 0 0 0   0 0 0 0 0  0 0 0 0.5 0" type="matrix" in="shadowBlurOuter1" result="shadowMatrixOuter1"></feColorMatrix>
            <feMerge>
                <feMergeNode in="shadowMatrixOuter1"></feMergeNode>
                <feMergeNode in="SourceGraphic"></feMergeNode>
            </feMerge>
        </filter>
        <polygon id="path-2" points="0.0312678571 0 0.464303571 0 0.464303571 0.1106113 0.0312678571 0.1106113"></polygon>
        <polygon id="path-4" points="0.0925140796 0.0306294564 0.2 0.0306294564 0.2 0.500015385 0.0925140796 0.500015385"></polygon>
        <polygon id="path-6" points="8.33333334e-06 0.0910241788 0.463175 0.0910241788 0.463175 0.2 8.33333334e-06 0.2"></polygon>
    </defs>
    <g id="Landing-page" stroke="none" stroke-width="1" fill="none" fill-rule="evenodd">
        <g id="Project-List/Serch" transform="translate(-506.000000, -760.000000)">
            <g id="Group-34-Copy-5" filter="url(#filter-1)" transform="translate(507.000000, 761.000000)">
                <path d="M4.22375683,16.1718406 C5.37210736,16.7033871 6.65141485,17 8,17 C12.9705627,17 17,12.9705627 17,8 C17,6.65124538 16.7033126,5.37178583 16.1716402,4.22332392 C16.6024858,4.14153248 17.0367999,4.07950118 17.4746483,4.03771429 C17.7066667,4.01558163 17.9417125,4.00676531 18.1761162,4.01579592 C18.29263,4.00639796 18.4107339,4.03502041 18.5259939,4 L19.4434251,4 C19.5580734,4.03502041 19.6756269,4.00636735 19.7913456,4.01576531 C20.9216514,4.01117347 22.0181346,4.2284898 23.0999388,4.53213265 C24.0343731,4.79438776 24.9343119,5.14820408 25.798685,5.59070408 C26.8187768,6.11291837 27.7714679,6.73844898 28.6449541,7.48064286 C29.7737615,8.43984694 30.7559327,9.53172449 31.5663609,10.7744286 C32.4336697,12.1043163 33.0738532,13.5364796 33.4891131,15.0698776 C33.704159,15.8640204 33.8559633,16.6696735 33.9315291,17.4884592 C33.9529664,17.7206531 33.9615596,17.956 33.9536391,18.1905816 C33.9629969,18.3072143 33.9344343,18.4254388 33.969419,18.5408163 L33.969419,19.4897959 C33.9344037,19.6045612 33.9630275,19.7222041 33.9536391,19.8380102 C33.9590214,20.6633163 33.8278899,21.4721531 33.6506728,22.2744082 C33.3765749,23.5153061 32.949419,24.7021735 32.3719878,25.8339694 C31.8345566,26.887398 31.181315,27.8634082 30.410948,28.7610816 C29.4691743,29.8584388 28.4004893,30.8114592 27.1896942,31.6022347 C25.8654434,32.4671224 24.4395107,33.1059082 22.9123547,33.5186224 C22.1190826,33.7329694 21.3150459,33.8889388 20.4967278,33.9619796 C20.2646483,33.9827041 20.0297554,33.9920408 19.795474,33.9842041 C19.6884098,33.9928367 19.5797248,33.9662959 19.4740061,34 L18.5565749,34 C18.4323242,33.9642755 18.3053211,33.994 18.1800612,33.9842347 C17.3551988,33.9947041 16.5468807,33.8638673 15.7449235,33.6882755 C14.509419,33.4177551 13.3266667,32.9953673 12.1992355,32.4220918 C11.0399083,31.8325918 9.97299694,31.1068673 9.00311927,30.2375408 C7.74345566,29.1084388 6.69039755,27.8141837 5.8646789,26.3363776 C5.26247706,25.2585816 4.80311927,24.1225 4.48006116,22.9303673 C4.26486239,22.1361633 4.11440367,21.3302653 4.03743119,20.5116633 C4.01461774,20.2691531 4.00697248,20.0236735 4.01577982,19.7788673 C4.00639144,19.6622347 4.03498471,19.5439796 4,19.4285714 L4,18.5714286 C4.03568807,18.447051 4.00599388,18.3199184 4.01574924,18.1945612 C4.01001087,17.5094966 4.09259084,16.837056 4.22375683,16.1718406 Z" id="Combined-Shape" fill="#4385F5"></path>
                <g id="Group-2">
                    <circle id="Oval" fill="#4385F5" cx="8" cy="8" r="8"></circle>
                    <g id="Group" transform="translate(2.000000, 2.000000)" stroke="#FFFFFF" stroke-linecap="round" stroke-linejoin="round">
                        <path d="M8,2 C10.209,2 12,3.791 12,6 C12,8.209 10.209,10 8,10" id="Stroke-348"></path>
                        <path d="M4,10 C1.791,10 0,8.209 0,6 C0,3.791 1.791,2 4,2" id="Stroke-350"></path>
                        <polyline id="Stroke-342" points="4 0 6 2 4 4"></polyline>
                        <polyline id="Stroke-343" points="8 8 6 10 8 12"></polyline>
                    </g>
                </g>
                <path d="M17.932756,26.8818676 C17.1131846,27.7022752 15.7804145,27.6983634 14.9697281,26.8869404 L9.76040829,21.6728876 C8.9435445,20.8552816 8.95083308,19.5223104 9.77020917,18.7020982 L10.3518373,18.1198765 C11.174114,17.2967608 12.5009278,17.2903943 13.3240945,18.114401 L16.4487908,21.2422857 L24.905953,12.7764938 C25.7283316,11.953276 27.0644887,11.955925 27.8838648,12.7759269 L28.465493,13.3579992 C29.2877696,14.1809039 29.2846135,15.5184265 28.4703914,16.3334794 L17.932756,26.8818676 Z" id="Page-1" fill="#FFFFFF"></path>
                <g id="Group-9" transform="translate(18.128440, 4.000000)">
                    <mask id="mask-3" fill="white">
                        <use xlink:href="#path-2"></use>
                    </mask>
                    <g id="Clip-8"></g>
                    <path d="M0.0312678571,0.08477 C0.0345178571,0.05727 0.0360178571,0.02897 0.0357321429,-3e-05 L0.464303571,-3e-05 C0.323196429,0.15847 0.176875,0.10667 0.0312678571,0.08477" id="Fill-7" fill="#787878" mask="url(#mask-3)"></path>
                </g>
                <path d="M19.8103976,4 C19.8125382,4.02591646 19.8137615,4.05221688 19.8140979,4.07899722 C19.6894801,4.10155415 19.5646177,4.13534154 19.4434251,4 L19.8103976,4 Z" id="Fill-10" fill="#888888"></path>
                <g id="Group-14" transform="translate(33.908257, 18.142857)">
                    <mask id="mask-5" fill="white">
                        <use xlink:href="#path-4"></use>
                    </mask>
                    <g id="Clip-13"></g>
                    <path d="M0.11631,0.0338230769 C0.14681,0.0283615385 0.17471,0.0299 0.20001,0.0384769231 L0.20001,0.500015385 C0.04771,0.347938462 0.09551,0.190515385 0.11631,0.0338230769" id="Fill-12" fill="#828282" mask="url(#mask-5)"></path>
                </g>
                <path d="M4.07197862,19.8011806 L4.03150853,19.8060173 L4.00001223,19.7959153 L4.00001223,19.4285684 C4.14526469,19.5499459 4.09661259,19.6758235 4.07197862,19.8011806" id="Fill-15" fill="#696969"></path>
                <path d="M34.0381802,19.8571429 L33.9966729,19.8599592 L33.9542845,19.8596837 C33.9420477,19.7354898 33.8984846,19.6105918 34.0381802,19.4897959 L34.0381802,19.8571429 Z" id="Fill-17" fill="#989898"></path>
                <g id="Group-21" transform="translate(19.474006, 33.938776)">
                    <mask id="mask-7" fill="white">
                        <use xlink:href="#path-6"></use>
                    </mask>
                    <g id="Clip-20"></g>
                    <path d="M0.463175,0.11641 C0.461175,0.14411 0.459591667,0.17211 0.458341667,0.20001 L8.33333334e-06,0.20001 C0.1503,0.04151 0.3073,0.09691 0.463175,0.11641" id="Fill-19" fill="#858585" mask="url(#mask-7)"></path>
                </g>
            </g>
        </g>
    </g>
</svg>
