<?xml version="1.0" encoding="UTF-8"?>
<svg width="29px" height="29px" viewBox="0 0 29 29" version="1.1" xmlns="http://www.w3.org/2000/svg" xmlns:xlink="http://www.w3.org/1999/xlink">
    <!-- Generator: Sketch 49.2 (51160) - http://www.bohemiancoding.com/sketch -->
    <title>Group 278</title>
    <desc>Created with Sketch.</desc>
    <defs></defs>
    <g id="Page-1" stroke="none" stroke-width="1" fill="none" fill-rule="evenodd" stroke-linecap="round" stroke-linejoin="round">
        <g id="-Icon54---30x_Grid_set_1_Smart_Stroke" transform="translate(-1145.000000, -4454.000000)" stroke="#000000">
            <g id="Charts" transform="translate(840.000000, 4279.000000)">
                <g id="Group-278" transform="translate(305.000000, 175.000000)">
                    <path d="M5.5,18.5 L5.5,17 C5.5,15.619 6.619,14.5 8,14.5 L21,14.5 C22.381,14.5 23.5,15.619 23.5,17 L23.5,18.5" id="Stroke-270"></path>
                    <path d="M19.5,5.5 C19.5,8.261 17.262,10.5 14.5,10.5 C11.738,10.5 9.5,8.261 9.5,5.5 C9.5,2.739 11.738,0.5 14.5,0.5 C17.262,0.5 19.5,2.739 19.5,5.5 L19.5,5.5 Z" id="Stroke-272"></path>
                    <path d="M10.5,23.5 C10.5,26.261 8.262,28.5 5.5,28.5 C2.738,28.5 0.5,26.261 0.5,23.5 C0.5,20.739 2.738,18.5 5.5,18.5 C8.262,18.5 10.5,20.739 10.5,23.5 L10.5,23.5 Z" id="Stroke-274"></path>
                    <path d="M28.5,23.5 C28.5,26.261 26.262,28.5 23.5,28.5 C20.738,28.5 18.5,26.261 18.5,23.5 C18.5,20.739 20.738,18.5 23.5,18.5 C26.262,18.5 28.5,20.739 28.5,23.5 L28.5,23.5 Z" id="Stroke-276"></path>
                    <path d="M14.5,10.5 L14.5,14.5" id="Stroke-269"></path>
                </g>
            </g>
        </g>
    </g>
</svg>