<?xml version="1.0" encoding="UTF-8"?>
<svg width="20px" height="20px" viewBox="0 0 20 20" version="1.1" xmlns="http://www.w3.org/2000/svg" xmlns:xlink="http://www.w3.org/1999/xlink">
    <!-- Generator: Sketch 42 (36781) - http://www.bohemiancoding.com/sketch -->
    <title>food_aid_security@2x</title>
    <desc>Created with Sketch.</desc>
    <defs>
        <polygon id="path-1" points="20 0.000434782609 20 20 0.000434782609 20 0.000434782609 0.000434782609 20 0.000434782609"></polygon>
    </defs>
    <g id="icons" stroke="none" stroke-width="1" fill="none" fill-rule="evenodd">
        <g id="Desktop-Landscape" transform="translate(-146.000000, -200.000000)">
            <g id="food_aid_security" transform="translate(146.000000, 200.000000)">
                <g id="Group-3">
                    <mask id="mask-2" fill="white">
                        <use xlink:href="#path-1"></use>
                    </mask>
                    <g id="Clip-2"></g>
                    <path d="M12.736087,15.7795652 C12.6273913,15.8882609 12.5143478,16.0056522 12.396087,16.1291304 C11.2508696,17.3247826 9.51956522,19.1308696 4.78304348,19.1308696 C3.02043478,19.1308696 2.14565217,17.996087 1.83695652,17.4752174 C8.37347826,11.0569565 13.75,10.87 14.3482609,10.87 C15.856087,10.87 17.5952174,11.203913 18.5934783,11.6404348 C16.6352174,12.5343478 13.816087,14.6995652 12.736087,15.7795652 M8.68826087,5.77956522 L9.42478261,5.10217391 C12.5813043,2.19782609 16.9134783,1.08913043 17.75,0.896956522 C17.83,0.877826087 17.9091304,0.87 18.0004348,0.87 C18.623913,0.87 19.1308696,1.37695652 19.1308696,2.00304348 C19.1308696,2.09086957 19.1221739,2.17 19.1030435,2.25 C18.9265217,3.01695652 17.923913,6.93956522 15.3456522,10.0465217 C15.0030435,10.0186957 14.6647826,10.0004348 14.3482609,10.0004348 C13.7143478,10.0004348 8.01869565,10.2056522 1.24130435,16.8517391 C1.00565217,16.3482609 0.87,15.7952174 0.87,15.2178261 C0.87,12.9552174 5.02304348,9.14304348 8.68826087,5.77956522 M3.87086957,7.60391304 C3.99434783,7.48565217 4.11173913,7.37347826 4.22043478,7.26391304 C5.29956522,6.18478261 7.46391304,3.3673913 8.35869565,1.40913043 C8.65869565,2.10043478 8.91086957,3.15956522 9.03782609,4.2873913 C8.97173913,4.34652174 8.90217391,4.40217391 8.83608696,4.46304348 L8.10043478,5.13869565 C5.39782609,7.61869565 2.63695652,10.1552174 1.13869565,12.3569565 C1.68478261,9.70652174 2.95521739,8.48043478 3.87086957,7.60391304 M16.3682609,10.1665217 C18.8126087,6.98826087 19.7743478,3.21086957 19.9508696,2.44478261 C19.983913,2.30043478 20.0004348,2.15608696 20.0004348,1.99956522 C20.0004348,0.896956522 19.1030435,0.000434782609 17.9969565,0.000434782609 C17.843913,0.000434782609 17.6995652,0.0160869565 17.5552174,0.0491304348 C16.7656522,0.230869565 12.9978261,1.19956522 9.83086957,3.63434783 C9.62565217,2.28130435 9.2126087,0.77173913 8.56826087,0.127391304 C8.45782609,0.0169565217 8.29695652,-0.0239130435 8.14826087,0.0152173913 C7.99782609,0.0552173913 7.88043478,0.172608696 7.84043478,0.323043478 C7.40478261,1.9673913 4.79695652,5.45782609 3.60565217,6.64913043 C3.50043478,6.75434783 3.38826087,6.86217391 3.26913043,6.97608696 C1.9673913,8.22304348 0.000434782609,10.1091304 0.000434782609,15.2178261 C0.000434782609,17.0769565 1.10043478,18.7430435 2.77173913,19.5221739 C3.30565217,19.8021739 3.96652174,20.0004348 4.78304348,20.0004348 C9.89086957,20.0004348 11.7769565,18.0326087 13.023913,16.7308696 C13.1378261,16.6126087 13.2456522,16.4995652 13.3508696,16.3943478 C14.5421739,15.2030435 18.0326087,12.5952174 19.6769565,12.1595652 C19.8273913,12.1195652 19.9447826,12.0021739 19.9847826,11.8517391 C20.0256522,11.7021739 19.9821739,11.5413043 19.8726087,11.4317391 C19.2708696,10.83 17.8404348,10.39 16.3682609,10.1665217" id="Fill-1" fill="#6D6D6D" mask="url(#mask-2)"></path>
                </g>
                <path d="M16.9565217,3.47826087 C17.1965217,3.47826087 17.3913043,3.28347826 17.3913043,3.04347826 C17.3913043,2.80347826 17.1965217,2.60869565 16.9565217,2.60869565 C16.7165217,2.60869565 16.5217391,2.80347826 16.5217391,3.04347826 C16.5217391,3.28347826 16.7165217,3.47826087 16.9565217,3.47826087" id="Fill-4" fill="#6D6D6D"></path>
                <path d="M13.4782609,4.34782609 C13.7182609,4.34782609 13.9130435,4.15304348 13.9130435,3.91304348 C13.9130435,3.67304348 13.7182609,3.47826087 13.4782609,3.47826087 C13.2382609,3.47826087 13.0434783,3.67304348 13.0434783,3.91304348 C13.0434783,4.15304348 13.2382609,4.34782609 13.4782609,4.34782609" id="Fill-6" fill="#6D6D6D"></path>
                <path d="M10.8695652,6.08695652 C11.1095652,6.08695652 11.3043478,5.89217391 11.3043478,5.65217391 C11.3043478,5.41217391 11.1095652,5.2173913 10.8695652,5.2173913 C10.6295652,5.2173913 10.4347826,5.41217391 10.4347826,5.65217391 C10.4347826,5.89217391 10.6295652,6.08695652 10.8695652,6.08695652" id="Fill-8" fill="#6D6D6D"></path>
                <path d="M8.26086957,8.69565217 C8.50086957,8.69565217 8.69565217,8.50086957 8.69565217,8.26086957 C8.69565217,8.02086957 8.50086957,7.82608696 8.26086957,7.82608696 C8.02086957,7.82608696 7.82608696,8.02086957 7.82608696,8.26086957 C7.82608696,8.50086957 8.02086957,8.69565217 8.26086957,8.69565217" id="Fill-10" fill="#6D6D6D"></path>
                <path d="M10.8695652,8.69565217 C11.1095652,8.69565217 11.3043478,8.50086957 11.3043478,8.26086957 C11.3043478,8.02086957 11.1095652,7.82608696 10.8695652,7.82608696 C10.6295652,7.82608696 10.4347826,8.02086957 10.4347826,8.26086957 C10.4347826,8.50086957 10.6295652,8.69565217 10.8695652,8.69565217" id="Fill-12" fill="#6D6D6D"></path>
                <path d="M13.4782609,6.95652174 C13.7182609,6.95652174 13.9130435,6.76173913 13.9130435,6.52173913 C13.9130435,6.28173913 13.7182609,6.08695652 13.4782609,6.08695652 C13.2382609,6.08695652 13.0434783,6.28173913 13.0434783,6.52173913 C13.0434783,6.76173913 13.2382609,6.95652174 13.4782609,6.95652174" id="Fill-14" fill="#6D6D6D"></path>
                <path d="M16.0869565,6.08695652 C16.3269565,6.08695652 16.5217391,5.89217391 16.5217391,5.65217391 C16.5217391,5.41217391 16.3269565,5.2173913 16.0869565,5.2173913 C15.8469565,5.2173913 15.6521739,5.41217391 15.6521739,5.65217391 C15.6521739,5.89217391 15.8469565,6.08695652 16.0869565,6.08695652" id="Fill-16" fill="#6D6D6D"></path>
                <path d="M14.3478261,9.56521739 C14.5878261,9.56521739 14.7826087,9.37043478 14.7826087,9.13043478 C14.7826087,8.89043478 14.5878261,8.69565217 14.3478261,8.69565217 C14.1078261,8.69565217 13.9130435,8.89043478 13.9130435,9.13043478 C13.9130435,9.37043478 14.1078261,9.56521739 14.3478261,9.56521739" id="Fill-18" fill="#6D6D6D"></path>
                <path d="M5.65217391,11.3043478 C5.89217391,11.3043478 6.08695652,11.1095652 6.08695652,10.8695652 C6.08695652,10.6295652 5.89217391,10.4347826 5.65217391,10.4347826 C5.41217391,10.4347826 5.2173913,10.6295652 5.2173913,10.8695652 C5.2173913,11.1095652 5.41217391,11.3043478 5.65217391,11.3043478" id="Fill-20" fill="#6D6D6D"></path>
                <path d="M3.04347826,13.9130435 C3.28347826,13.9130435 3.47826087,13.7182609 3.47826087,13.4782609 C3.47826087,13.2382609 3.28347826,13.0434783 3.04347826,13.0434783 C2.80347826,13.0434783 2.60869565,13.2382609 2.60869565,13.4782609 C2.60869565,13.7182609 2.80347826,13.9130435 3.04347826,13.9130435" id="Fill-22" fill="#6D6D6D"></path>
            </g>
        </g>
    </g>
</svg>