<?xml version="1.0" encoding="UTF-8"?>
<svg width="30px" height="30px" viewBox="0 0 30 30" version="1.1" xmlns="http://www.w3.org/2000/svg" xmlns:xlink="http://www.w3.org/1999/xlink">
    <!-- Generator: Sketch 49.2 (51160) - http://www.bohemiancoding.com/sketch -->
    <title>Group 399</title>
    <desc>Created with Sketch.</desc>
    <defs></defs>
    <g id="Page-1" stroke="none" stroke-width="1" fill="none" fill-rule="evenodd" stroke-linecap="round" stroke-linejoin="round">
        <g id="-Icon54---30x_Grid_set_2_Smart_Stroke" transform="translate(-240.000000, -3844.000000)" stroke="#000000">
            <g id="Objects" transform="translate(179.000000, 3679.000000)">
                <g id="Group-399" transform="translate(61.000000, 165.000000)">
                    <path d="M23.3559,6.3941 C28.1619,11.2001 30.7819,16.8431 28.8599,18.7651 C26.9369,20.6881 21.1999,18.1621 16.3939,13.3561 C11.5879,8.5501 9.2509,3.0951 11.1729,1.1731 C13.0949,-0.7499 18.5499,1.5881 23.3559,6.3941 L23.3559,6.3941 Z" id="Stroke-393"></path>
                    <path d="M10.5,4.25 L2.152,24.522 C1.506,24.215 0.95,24.149 0.679,24.429 C0.25,24.875 0.718,26.647 2,27.928 C3.282,29.21 4.736,29.833 5.249,29.321 C5.527,29.042 5.461,28.482 5.146,27.827 L25.5,19.5" id="Stroke-395"></path>
                    <path d="M11.125,25.5 L12.393,27.81 C12.689,28.401 13.393,28.659 14,28.399 L20.244,26 C20.903,25.717 21.189,24.938 20.868,24.296 L19.875,21.75" id="Stroke-397"></path>
                </g>
            </g>
        </g>
    </g>
</svg>