<?xml version="1.0" encoding="UTF-8"?>
<svg width="20px" height="20px" viewBox="0 0 20 20" version="1.1" xmlns="http://www.w3.org/2000/svg" xmlns:xlink="http://www.w3.org/1999/xlink">
    <!-- Generator: Sketch 42 (36781) - http://www.bohemiancoding.com/sketch -->
    <title>schooling@2x</title>
    <desc>Created with Sketch.</desc>
    <defs></defs>
    <g id="icons" stroke="none" stroke-width="1" fill="none" fill-rule="evenodd">
        <g id="Desktop-Landscape" transform="translate(-149.000000, -141.000000)" fill="#6D6D6D">
            <g id="schooling" transform="translate(149.000000, 141.000000)">
                <path d="M0.8,18.40072 L18.4,18.40072 L18.4,18.21352 C18.4,16.34232 17.2128,14.67192 15.4456,14.05752 L13.6304,13.42632 C12.496,14.57272 11.0744,15.20072 9.6,15.20072 C8.1256,15.20072 6.704,14.57272 5.5696,13.42632 L3.7544,14.05752 C1.9872,14.67192 0.8,16.34232 0.8,18.21352 L0.8,18.40072 Z M18.8,19.20072 L0.4,19.20072 C0.1792,19.20072 0,19.02152 0,18.80072 L0,18.21352 C0,16.00152 1.4032,14.02792 3.492,13.30152 L5.5496,12.58632 C5.7008,12.53432 5.8688,12.57672 5.976,12.69352 C6.9848,13.79432 8.272,14.40072 9.6,14.40072 C10.928,14.40072 12.2152,13.79432 13.224,12.69352 C13.3312,12.57672 13.4992,12.53432 13.6496,12.58632 L15.708,13.30152 C17.7968,14.02792 19.2,16.00152 19.2,18.21352 L19.2,18.80072 C19.2,19.02152 19.0208,19.20072 18.8,19.20072 L18.8,19.20072 Z" id="Fill-1"></path>
                <path d="M8.4,8.00072 L7.6,8.00072 C7.3792,8.00072 7.2,7.82152 7.2,7.60072 C7.2,7.37992 7.3792,7.20072 7.6,7.20072 L8.4,7.20072 C8.6208,7.20072 8.8,7.37992 8.8,7.60072 C8.8,7.82152 8.6208,8.00072 8.4,8.00072" id="Fill-3"></path>
                <path d="M11.6,8.00072 L10.8,8.00072 C10.5792,8.00072 10.4,7.82152 10.4,7.60072 C10.4,7.37992 10.5792,7.20072 10.8,7.20072 L11.6,7.20072 C11.8208,7.20072 12,7.37992 12,7.60072 C12,7.82152 11.8208,8.00072 11.6,8.00072" id="Fill-5"></path>
                <path d="M9.6,13.60072 C7.628,13.60072 5.8776,12.00872 5.1512,9.59912 C4.4912,9.55912 4,8.71352 4,7.60072 C4,6.69432 4.3256,5.96552 4.8032,5.70472 C4.8008,5.67032 4.8,5.63592 4.8,5.60072 L4.8,4.40072 C4.8,4.17992 4.9792,4.00072 5.2,4.00072 C5.4208,4.00072 5.6,4.17992 5.6,4.40072 L5.6,5.60072 C5.6,5.69112 5.6112,5.77832 5.6208,5.86632 L5.632,5.96632 C5.6448,6.08552 5.6024,6.20472 5.5184,6.29032 C5.432,6.37432 5.3144,6.41432 5.1944,6.40552 C5.1904,6.40552 5.1864,6.40472 5.1832,6.40392 C5.0696,6.44712 4.8,6.86712 4.8,7.60072 C4.8,8.37512 5.1008,8.80072 5.2,8.80072 C5.308,8.73432 5.456,8.71352 5.5736,8.76152 C5.692,8.81032 5.7928,8.90232 5.8232,9.02632 C6.3832,11.28392 7.9008,12.80072 9.6,12.80072 C11.2992,12.80072 12.8168,11.28392 13.3768,9.02632 C13.4072,8.90232 13.4952,8.80072 13.6136,8.75192 C13.7296,8.70392 13.8648,8.71432 13.9744,8.78232 C14.1208,8.79512 14.4,8.37672 14.4,7.60072 C14.4,6.86712 14.1304,6.44712 14.0168,6.40392 C14.0136,6.40472 14.0096,6.40552 14.0056,6.40552 C13.8848,6.41512 13.7672,6.37592 13.6824,6.29032 C13.5976,6.20472 13.5552,6.08552 13.568,5.96632 L13.5792,5.86632 C13.5888,5.77832 13.6,5.69112 13.6,5.60072 L13.6,4.40072 C13.6,4.17992 13.7792,4.00072 14,4.00072 C14.2208,4.00072 14.4,4.17992 14.4,4.40072 L14.4,5.60072 C14.4,5.64312 14.3984,5.68552 14.396,5.72792 C14.8888,5.99992 15.2,6.71592 15.2,7.60072 C15.2,8.71352 14.7088,9.55912 14.0488,9.59912 C13.3224,12.00872 11.572,13.60072 9.6,13.60072" id="Fill-7"></path>
                <path d="M5.05624,1.8488 L9.97304,2.3952 L14.14344,1.3528 L9.22744,0.8064 L5.05624,1.8488 Z M10.00024,3.2008 C9.98504,3.2008 9.97064,3.2 9.95544,3.1984 L2.75544,2.3984 C2.56344,2.3768 2.41384,2.2208 2.40104,2.028 C2.38824,1.8344 2.51464,1.66 2.70344,1.6128 L9.10344,0.0128 C9.14904,-1.11022302e-17 9.19624,-0.0032 9.24424,0.0032 L16.44424,0.8032 C16.63704,0.8248 16.78584,0.9808 16.79944,1.1736 C16.81144,1.3672 16.68504,1.5416 16.49704,1.5888 L10.09704,3.1888 C10.06504,3.1968 10.03304,3.2008 10.00024,3.2008 L10.00024,3.2008 Z" id="Fill-9"></path>
                <path d="M9.6,5.60072 C6.3968,5.60072 5.044,4.77432 4.9872,4.73912 C4.8712,4.66632 4.8,4.53832 4.8,4.40072 L4.8,2.00072 C4.8,1.77992 4.9792,1.60072 5.2,1.60072 C5.4208,1.60072 5.6,1.77992 5.6,2.00072 L5.6,4.15432 C6.0456,4.35272 7.3032,4.80072 9.6,4.80072 C11.8952,4.80072 13.1528,4.35352 13.6,4.15432 L13.6,1.60072 C13.6,1.37992 13.7792,1.20072 14,1.20072 C14.2208,1.20072 14.4,1.37992 14.4,1.60072 L14.4,4.40072 C14.4,4.53832 14.3288,4.66632 14.2128,4.73912 C14.156,4.77432 12.8032,5.60072 9.6,5.60072" id="Fill-11"></path>
                <path d="M16.08672,5.2796 L16.40032,5.906 L16.71312,5.2796 L16.40032,4.966 L16.08672,5.2796 Z M16.40032,7.2004 C16.24832,7.2004 16.10992,7.1148 16.04192,6.9796 L15.24192,5.3796 C15.16512,5.226 15.19552,5.0396 15.31712,4.918 L16.00032,4.2348 L16.00032,1.2004 C16.00032,0.9796 16.17872,0.8004 16.40032,0.8004 C16.62112,0.8004 16.80032,0.9796 16.80032,1.2004 L16.80032,4.2348 L17.48272,4.918 C17.60512,5.0396 17.63552,5.226 17.55792,5.3796 L16.75792,6.9796 C16.68992,7.1148 16.55152,7.2004 16.40032,7.2004 L16.40032,7.2004 Z" id="Fill-13"></path>
            </g>
        </g>
    </g>
</svg>