<?xml version="1.0" encoding="UTF-8"?>
<svg width="30px" height="21px" viewBox="0 0 30 21" version="1.1" xmlns="http://www.w3.org/2000/svg" xmlns:xlink="http://www.w3.org/1999/xlink">
    <!-- Generator: Sketch 49.2 (51160) - http://www.bohemiancoding.com/sketch -->
    <title>Group 481</title>
    <desc>Created with Sketch.</desc>
    <defs></defs>
    <g id="Page-1" stroke="none" stroke-width="1" fill="none" fill-rule="evenodd" stroke-linecap="round" stroke-linejoin="round">
        <g id="-Icon54---30x_Grid_set_1_Smart_Stroke" transform="translate(-576.000000, -1272.000000)" stroke="#000000">
            <g id="Business" transform="translate(156.000000, 1092.000000)">
                <g id="Group-481" transform="translate(420.000000, 180.000000)">
                    <path d="M5.5,12.5 C6.185,11.129 7.968,10.5 9.5,10.5 L12.5,7.5 C13.069,6.931 13.931,6.431 14.5,7 L15,7.5 C15.239,7.812 15.386,8.422 15,9 L13,11.5 C12.668,11.955 12.5,12.436 12.5,13 C12.5,14.522 13.494,15.715 15,15.5 L18,15.522 L21.5,15.5 L17,18.5 C16.357,19.142 13.373,19.75 12.5,19.5 L4.5,18 L5.5,12.5 L5.5,12.5 Z" id="Stroke-471"></path>
                    <path d="M0.5,19.5 C2.062,19.5 4.5,18 4.5,18 C4.5,18 5.219,14.715 5.5,11.5 C4.51,10.562 0.5,10.5 0.5,10.5 L0.5,19.5 L0.5,19.5 Z" id="Stroke-473"></path>
                    <path d="M24.5,10.5 L25.592,10.5 C25.742,10.076 26.076,9.743 26.5,9.592 L26.5,4.408 C26.076,4.257 25.742,3.924 25.592,3.5 L24.5,3.5" id="Stroke-475"></path>
                    <path d="M12.3545,4.4082 C12.7785,4.2572 13.1125,3.9242 13.2625,3.5002 L14.3545,3.5002" id="Stroke-477"></path>
                    <path d="M16.0654,5.0918 C16.6904,4.1338 17.7714,3.4998 19.0004,3.4998 C20.9324,3.4998 22.5004,5.0678 22.5004,6.9998 C22.5004,8.9328 20.9324,10.4998 19.0004,10.4998 C18.2414,10.4998 17.5394,10.2588 16.9654,9.8478" id="Stroke-479"></path>
                    <polyline id="Stroke-470" points="9.5 6.5 9.5 0.5 29.5 0.5 29.5 13.5 15.5 13.5"></polyline>
                </g>
            </g>
        </g>
    </g>
</svg>