<?xml version="1.0" encoding="UTF-8"?>
<svg width="30px" height="30px" viewBox="0 0 30 30" version="1.1" xmlns="http://www.w3.org/2000/svg" xmlns:xlink="http://www.w3.org/1999/xlink">
    <!-- Generator: Sketch 49.2 (51160) - http://www.bohemiancoding.com/sketch -->
    <title>Group 266</title>
    <desc>Created with Sketch.</desc>
    <defs></defs>
    <g id="Page-1" stroke="none" stroke-width="1" fill="none" fill-rule="evenodd" stroke-linecap="round" stroke-linejoin="round">
        <g id="30_Px_Grid_set_3_Smartstroke.ai" transform="translate(-210.000000, -2751.000000)" stroke="#000000">
            <g id="Notes-and-Tasks" transform="translate(29.000000, 2656.000000)">
                <g id="Group-266" transform="translate(181.000000, 95.000000)">
                    <path d="M7.5,9.5 L19.5,9.5" id="Stroke-235"></path>
                    <path d="M4.5,9.5 C4.5,10.052 4.052,10.5 3.5,10.5 C2.948,10.5 2.5,10.052 2.5,9.5 C2.5,8.948 2.948,8.5 3.5,8.5 C4.052,8.5 4.5,8.948 4.5,9.5 L4.5,9.5 Z" id="Stroke-237"></path>
                    <path d="M7.5,14.5 L18.5,14.5" id="Stroke-239"></path>
                    <path d="M4.5,14.5 C4.5,15.052 4.052,15.5 3.5,15.5 C2.948,15.5 2.5,15.052 2.5,14.5 C2.5,13.948 2.948,13.5 3.5,13.5 C4.052,13.5 4.5,13.948 4.5,14.5 L4.5,14.5 Z" id="Stroke-241"></path>
                    <path d="M7.5,19.5 L13.5,19.5" id="Stroke-243"></path>
                    <path d="M4.5,19.5 C4.5,20.052 4.052,20.5 3.5,20.5 C2.948,20.5 2.5,20.052 2.5,19.5 C2.5,18.948 2.948,18.5 3.5,18.5 C4.052,18.5 4.5,18.948 4.5,19.5 L4.5,19.5 Z" id="Stroke-245"></path>
                    <path d="M7.5,24.5 L12.5,24.5" id="Stroke-247"></path>
                    <path d="M4.5,24.5 C4.5,25.052 4.052,25.5 3.5,25.5 C2.948,25.5 2.5,25.052 2.5,24.5 C2.5,23.948 2.948,23.5 3.5,23.5 C4.052,23.5 4.5,23.948 4.5,24.5 L4.5,24.5 Z" id="Stroke-249"></path>
                    <path d="M14.5,1.5 L12.408,1.5 C12.202,0.919 11.652,0.5 11,0.5 C10.348,0.5 9.798,0.919 9.592,1.5 L7.5,1.5 C6.395,1.5 5.5,2.395 5.5,3.5 L5.5,4.5 L16.5,4.5 L16.5,3.5 C16.5,2.395 15.605,1.5 14.5,1.5 L14.5,1.5 Z" id="Stroke-251"></path>
                    <path d="M23.5,10 L27,13.5" id="Stroke-253"></path>
                    <path d="M13.5,19.5 C13.5,19.5 14.875,19.542 16.167,20.833 C17.458,22.125 17.5,23.5 17.5,23.5" id="Stroke-255"></path>
                    <path d="M21.5,11.2616 L21.5,4.7386 C21.5,4.0546 20.947,3.4996 20.265,3.4996 L16.559,3.4996" id="Stroke-257"></path>
                    <path d="M5.4412,3.5 L1.7352,3.5 C1.0532,3.5 0.5002,4.054 0.5002,4.738 L0.5002,28.262 C0.5002,28.946 1.0532,29.5 1.7352,29.5 L20.2652,29.5 C20.9472,29.5 21.5002,28.946 21.5002,28.262 L21.5002,19.5" id="Stroke-259"></path>
                    <path d="M12.5,24.5 L13.5,19.5 L25.103,8.254 C25.586,7.771 26.241,7.5 26.923,7.5 L26.926,7.5 C28.347,7.5 29.5,8.653 29.5,10.074 L29.5,10.077 C29.5,10.759 29.229,11.414 28.746,11.897 L17.5,23.5 L12.5,24.5 L12.5,24.5 Z" id="Stroke-261"></path>
                </g>
            </g>
        </g>
    </g>
</svg>