<?xml version="1.0" encoding="UTF-8"?>
<svg width="30px" height="19px" viewBox="0 0 30 19" version="1.1" xmlns="http://www.w3.org/2000/svg" xmlns:xlink="http://www.w3.org/1999/xlink">
    <!-- Generator: Sketch 49.2 (51160) - http://www.bohemiancoding.com/sketch -->
    <title>Group 362</title>
    <desc>Created with Sketch.</desc>
    <defs></defs>
    <g id="Page-1" stroke="none" stroke-width="1" fill="none" fill-rule="evenodd" stroke-linecap="round" stroke-linejoin="round">
        <g id="-Icon54---30x_Grid_set_1_Smart_Stroke" transform="translate(-336.000000, -1271.000000)" stroke="#000000">
            <g id="Business" transform="translate(156.000000, 1092.000000)">
                <g id="Group-362" transform="translate(180.000000, 179.000000)">
                    <path d="M5,10.5 C5.455,10.884 6.839,12.444 7.5,13 C9.893,15.003 13.012,17.18 13.5,17.5 C13.914,17.772 14.404,18 15,18 C15.571,18 16.316,18.007 16.5,17.5 C17.431,18.351 18.887,17.22 19,16 C19.761,16.71 21.641,15.805 21.5,14.5 C22.403,15.123 24.175,14.405 23.5,13 C22.654,11.239 17.431,7.431 15.5,5.5 C14.4,5.897 14.334,6.417 13.5,6.5 C12.892,7.409 12.051,8.011 10.5,7.5 C8.95,6.989 10.411,4.589 11.5,3.5 C13.664,1.336 14.962,0.865 17.5,2 C20.036,3.135 22,4 22,4" id="Stroke-346"></path>
                    <path d="M12.5,2.5 L6.5,2.5" id="Stroke-348"></path>
                    <path d="M23.5,13 L25,12" id="Stroke-350"></path>
                    <path d="M21.5,14.5 C20.851,13.988 17.5,10.5 17.5,10.5" id="Stroke-352"></path>
                    <path d="M19,16 C18.182,15.346 15.839,12.868 15.5,12.5" id="Stroke-354"></path>
                    <path d="M16.5,17.5 C15.659,16.79 14.183,15.231 13.5,14.5" id="Stroke-356"></path>
                    <path d="M0.5,11.522 C2.076,11.522 4.5,11.5 4.5,11.5 C4.5,11.5 6.217,4.744 6.5,1.5 C5.5,0.5 0.5,0.5 0.5,0.5 L0.5,11.522 L0.5,11.522 Z" id="Stroke-358"></path>
                    <path d="M21.5,2.5 C22.347,3.862 25.049,10.867 25.5,12.5 L29.5,12.5 L29.5,1.5 C24.634,1.5 21.5,2.5 21.5,2.5 L21.5,2.5 Z" id="Stroke-360"></path>
                </g>
            </g>
        </g>
    </g>
</svg>