<?xml version="1.0" encoding="UTF-8"?>
<svg width="27px" height="31px" viewBox="0 0 27 31" version="1.1" xmlns="http://www.w3.org/2000/svg" xmlns:xlink="http://www.w3.org/1999/xlink">
    <!-- Generator: Sketch 49.2 (51160) - http://www.bohemiancoding.com/sketch -->
    <title>Group 159</title>
    <desc>Created with Sketch.</desc>
    <defs></defs>
    <g id="Page-1" stroke="none" stroke-width="1" fill="none" fill-rule="evenodd" stroke-linecap="round" stroke-linejoin="round">
        <g id="-Icon54---30x_Grid_set_1_Smart_Stroke" transform="translate(-217.000000, -2986.000000)" stroke="#000000">
            <g id="Industry" transform="translate(156.000000, 2872.000000)">
                <g id="Group-159" transform="translate(61.000000, 114.002000)">
                    <path d="M11.0208,4.5 L24.9998,4.5 C25.8288,4.5 26.4998,3.828 26.4998,3 C26.4998,2.171 25.8288,1.5 24.9998,1.5 L11.0208,1.5 C10.1928,1.5 9.5208,2.171 9.5208,3 C9.5208,3.828 10.1928,4.5 11.0208,4.5 L11.0208,4.5 Z" id="Stroke-140"></path>
                    <path d="M3.5,5.5 L6.5,5.5" id="Stroke-142"></path>
                    <path d="M25,21.5 L16.5,21.5 L16.5,24.5 L25,24.5 C25.828,24.5 26.5,23.828 26.5,23 C26.5,22.171 25.828,21.5 25,21.5 L25,21.5 Z" id="Stroke-144"></path>
                    <path d="M16,9.5 L2.021,9.5 C1.192,9.5 0.521,8.828 0.521,8 C0.521,7.171 1.192,6.5 2.021,6.5 L16,6.5 C16.828,6.5 17.5,7.171 17.5,8 C17.5,8.828 16.828,9.5 16,9.5 L16,9.5 Z" id="Stroke-146"></path>
                    <path d="M16,19.5 L2.021,19.5 C1.192,19.5 0.521,18.828 0.521,18 C0.521,17.171 1.192,16.5 2.021,16.5 L16,16.5 C16.828,16.5 17.5,17.171 17.5,18 C17.5,18.828 16.828,19.5 16,19.5 L16,19.5 Z" id="Stroke-148"></path>
                    <path d="M10.5,4.5 L10.5,6.5 L15.979,6.5 C16.808,6.5 17.479,7.171 17.479,8 C17.479,8.828 16.808,9.5 15.979,9.5 L16.5,9.5 L16.5,11.5 L25.5,11.5 L25.5,4.5 L10.5,4.5 L10.5,4.5 Z" id="Stroke-150"></path>
                    <path d="M16,29.5 L2.021,29.5 C1.192,29.5 0.521,28.828 0.521,28 C0.521,27.171 1.192,26.5 2.021,26.5 L16,26.5 C16.828,26.5 17.5,27.171 17.5,28 C17.5,28.828 16.828,29.5 16,29.5 L16,29.5 Z" id="Stroke-152"></path>
                    <polygon id="Stroke-154" points="1.521 16.5 16.521 16.5 16.521 9.5 1.521 9.5"></polygon>
                    <polygon id="Stroke-156" points="1.521 26.5 16.521 26.5 16.521 19.5 1.521 19.5"></polygon>
                    <path d="M16.5,14.5 L16.5,16.5 L15.979,16.5 C16.808,16.5 17.479,17.171 17.479,18 C17.479,18.828 16.808,19.5 15.979,19.5 L16.5,19.5 L16.5,21.5 L25.5,21.5 L25.5,14.5 L16.5,14.5 L16.5,14.5 Z" id="Stroke-157"></path>
                    <path d="M25,11.5 L16.5,11.5 L16.5,14.5 L25,14.5 C25.828,14.5 26.5,13.828 26.5,13 C26.5,12.171 25.828,11.5 25,11.5 L25,11.5 Z" id="Stroke-158"></path>
                    <path d="M23.5,0.5 L20.5,0.5" id="Stroke-139"></path>
                </g>
            </g>
        </g>
    </g>
</svg>