<?xml version="1.0" encoding="UTF-8"?>
<svg width="22px" height="22px" viewBox="0 0 22 22" version="1.1" xmlns="http://www.w3.org/2000/svg" xmlns:xlink="http://www.w3.org/1999/xlink">
    <!-- Generator: Sketch 43.2 (39069) - http://www.bohemiancoding.com/sketch -->
    <title>Group 6</title>
    <desc>Created with Sketch.</desc>
    <defs></defs>
    <g id="Approval-Process---Admin" stroke="none" stroke-width="1" fill="none" fill-rule="evenodd" stroke-linecap="round" stroke-linejoin="round">
        <g id="Activity-Editor-Published---Ministry" transform="translate(-374.000000, -574.000000)" stroke="#000000">
            <g id="Group-6" transform="translate(374.000000, 574.000000)">
                <g id="Group-75">
                    <path d="M21,10.7466 C21,11.5875531 19.2105045,12.1825878 19.0033768,12.9576699 C18.7889301,13.7605642 20.0346239,15.1687398 19.6284194,15.8713638 C19.2156278,16.5842344 17.369776,16.2058421 16.7908431,16.784775 C16.2126421,17.362976 16.5910344,19.2095597 15.8781638,19.6216194 C15.1755398,20.0278239 13.7673642,18.7821301 12.9644699,18.9965768 C12.1893878,19.2037045 11.5943531,20.9932 10.7534,20.9932 C9.9124469,20.9932 9.3174122,19.2037045 8.5423301,18.9965768 C7.7394358,18.7821301 6.3312602,20.0278239 5.6286362,19.6216194 C4.9157656,19.2088278 5.2941579,17.362976 4.715225,16.7840431 C4.137024,16.2058421 2.2911722,16.5842344 1.8783806,15.8713638 C1.4721761,15.1687398 2.7178699,13.7605642 2.5034232,12.9576699 C2.2962955,12.1825878 0.5068,11.5875531 0.5068,10.7466 C0.5068,9.9056469 2.2962955,9.3106122 2.5034232,8.5355301 C2.7178699,7.7326358 1.4721761,6.3244602 1.8783806,5.6218362 C2.2911722,4.9089656 4.137024,5.2873579 4.7159569,4.708425 C5.2941579,4.130224 4.9157656,2.2836403 5.6286362,1.8715806 C6.3312602,1.4653761 7.7394358,2.7110699 8.5423301,2.4966232 C9.3174122,2.2894955 9.9124469,0.5 10.7534,0.5 C11.5943531,0.5 12.1893878,2.2894955 12.9644699,2.4966232 C13.7673642,2.7110699 15.1755398,1.4653761 15.8781638,1.8715806 C16.5910344,2.2843722 16.2126421,4.130224 16.791575,4.7091569 C17.369776,5.2873579 19.2156278,4.9089656 19.6284194,5.6218362 C20.0346239,6.3244602 18.7889301,7.7326358 19.0033768,8.5355301 C19.2105045,9.3106122 21,9.9056469 21,10.7466 L21,10.7466 Z" id="Stroke-61"></path>
                </g>
                <polyline id="Stroke-525" points="8 11 10 13 15 8"></polyline>
            </g>
        </g>
    </g>
</svg>