<?xml version="1.0" encoding="UTF-8"?>
<svg width="54px" height="40px" viewBox="0 0 54 40" version="1.1" xmlns="http://www.w3.org/2000/svg" xmlns:xlink="http://www.w3.org/1999/xlink">
    <!-- Generator: Sketch 42 (36781) - http://www.bohemiancoding.com/sketch -->
    <title>Group 16</title>
    <desc>Created with Sketch.</desc>
    <defs></defs>
    <g id="Page-1" stroke="none" stroke-width="1" fill="none" fill-rule="evenodd">
        <g id="Group-16" fill="#5E5E5E">
            <path d="M2.22222222,37.7777778 L51.1111111,37.7777778 L51.1111111,2.22222222 L14.9044444,2.22222222 L2.22222222,14.9111111 L2.22222222,37.7777778 L2.22222222,37.7777778 Z M52.2222222,40 L1.11111111,40 C0.497777778,40 0,39.5111111 0,38.8888889 L0,14.4444444 C0,14.1555556 0.117777778,13.8666667 0.324444444,13.6666667 L13.6577778,0.333333333 C13.8666667,0.111111111 14.1488889,0 14.4444444,0 L52.2222222,0 C52.8355556,0 53.3333333,0.488888889 53.3333333,1.11111111 L53.3333333,38.8888889 C53.3333333,39.5111111 52.8355556,40 52.2222222,40 L52.2222222,40 Z" id="Fill-6105"></path>
            <path d="M14.4444444,15.5555556 L1.11111111,15.5555556 C0.497777778,15.5555556 0,15.0666667 0,14.4444444 C0,13.8222222 0.497777778,13.3333333 1.11111111,13.3333333 L13.3333333,13.3333333 L13.3333333,1.11111111 C13.3333333,0.488888889 13.8311111,0 14.4444444,0 C15.0577778,0 15.5555556,0.488888889 15.5555556,1.11111111 L15.5555556,14.4444444 C15.5555556,15.0666667 15.0577778,15.5555556 14.4444444,15.5555556" id="Fill-6106"></path>
            <path d="M47.7777778,35.5555556 L5.55555556,35.5555556 C4.94222222,35.5555556 4.44444444,35.0666667 4.44444444,34.4444444 L4.44444444,14.4444444 C4.44444444,13.8222222 4.94222222,13.3333333 5.55555556,13.3333333 C6.16888889,13.3333333 6.66666667,13.8222222 6.66666667,14.4444444 L6.66666667,33.3333333 L46.6666667,33.3333333 L46.6666667,6.66666667 L14.4444444,6.66666667 C13.8311111,6.66666667 13.3333333,6.17777778 13.3333333,5.55555556 C13.3333333,4.93333333 13.8311111,4.44444444 14.4444444,4.44444444 L47.7777778,4.44444444 C48.3911111,4.44444444 48.8888889,4.93333333 48.8888889,5.55555556 L48.8888889,34.4444444 C48.8888889,35.0666667 48.3911111,35.5555556 47.7777778,35.5555556" id="Fill-6107"></path>
            <path d="M5.55555556,31.1111111 C5.27111111,31.1111111 4.98666667,31 4.76888889,30.7777778 C4.33555556,30.3555556 4.33555556,29.6444444 4.76888889,29.2222222 L20.3244444,13.6666667 C20.5466667,13.4444444 20.8688889,13.2888889 21.1711111,13.3333333 C21.4888889,13.3555556 21.7822222,13.5111111 21.98,13.7555556 L30.2733333,24.1111111 L37.2266667,20.1555556 C37.64,19.9111111 38.16,19.9555556 38.5155556,20.2888889 L48.5155556,29.1777778 C48.9733333,29.5777778 49.0177778,30.2888889 48.6088889,30.7333333 C48.1977778,31.2 47.4933333,31.2222222 47.04,30.8222222 L37.6377778,22.4666667 L30.5511111,26.5111111 C30.0777778,26.7777778 29.4733333,26.6666667 29.1311111,26.2444444 L21.02,16.1111111 L6.34222222,30.7777778 C6.12444444,31 5.84,31.1111111 5.55555556,31.1111111" id="Fill-6108"></path>
            <path d="M37.7777778,11.1111111 C36.5511111,11.1111111 35.5555556,12.1111111 35.5555556,13.3333333 C35.5555556,14.5555556 36.5511111,15.5555556 37.7777778,15.5555556 C39.0044444,15.5555556 40,14.5555556 40,13.3333333 C40,12.1111111 39.0044444,11.1111111 37.7777778,11.1111111 L37.7777778,11.1111111 Z M37.7777778,17.7777778 C35.3266667,17.7777778 33.3333333,15.7777778 33.3333333,13.3333333 C33.3333333,10.8888889 35.3266667,8.88888889 37.7777778,8.88888889 C40.2288889,8.88888889 42.2222222,10.8888889 42.2222222,13.3333333 C42.2222222,15.7777778 40.2288889,17.7777778 37.7777778,17.7777778 L37.7777778,17.7777778 Z" id="Fill-6109"></path>
        </g>
    </g>
</svg>