<?xml version="1.0" encoding="UTF-8"?>
<svg width="30px" height="40px" viewBox="0 0 30 40" version="1.1" xmlns="http://www.w3.org/2000/svg" xmlns:xlink="http://www.w3.org/1999/xlink">
    <!-- Generator: Sketch 42 (36781) - http://www.bohemiancoding.com/sketch -->
    <title>Group 14</title>
    <desc>Created with Sketch.</desc>
    <defs></defs>
    <g id="Page-1" stroke="none" stroke-width="1" fill="none" fill-rule="evenodd">
        <g id="Group-14" fill="#5E5E5E">
            <path d="M1.66666667,38.3333333 L28.3333333,38.3333333 L28.3333333,1.66666667 L11.1783333,1.66666667 L1.66666667,11.1833333 L1.66666667,38.3333333 L1.66666667,38.3333333 Z M29.1666667,40 L0.833333333,40 C0.373333333,40 0,39.6333333 0,39.1666667 L0,10.8333333 C0,10.6166667 0.0883333333,10.4 0.243333333,10.25 L10.2433333,0.25 C10.4,0.0833333333 10.6116667,0 10.8333333,0 L29.1666667,0 C29.6266667,0 30,0.366666667 30,0.833333333 L30,39.1666667 C30,39.6333333 29.6266667,40 29.1666667,40 L29.1666667,40 Z" id="Fill-6023"></path>
            <path d="M10.8333333,11.6666667 L0.833333333,11.6666667 C0.373333333,11.6666667 0,11.3 0,10.8333333 C0,10.3666667 0.373333333,10 0.833333333,10 L10,10 L10,0.833333333 C10,0.366666667 10.3733333,0 10.8333333,0 C11.2933333,0 11.6666667,0.366666667 11.6666667,0.833333333 L11.6666667,10.8333333 C11.6666667,11.3 11.2933333,11.6666667 10.8333333,11.6666667" id="Fill-6024"></path>
            <path d="M14.16,15 C13.9233333,15 13.7233333,15.2 13.5683333,15.5666667 C13.1666667,16.5333333 13.2416667,18.4166667 14.185,20.4166667 C14.7133333,18.1166667 14.9316667,15.95 14.4283333,15.1666667 C14.345,15.0333333 14.2733333,15 14.16,15 L14.16,15 Z M14.8083333,24.3 C14.5483333,25.0666667 14.2966667,25.7 14.0966667,26.1666667 L13.8,26.85 C13.62,27.2833333 13.4216667,27.7333333 13.2066667,28.2166667 C13.6766667,28.0166667 14.1616667,27.7833333 14.665,27.5666667 C15.49,27.2 16.4033333,26.8833333 17.345,26.6166667 C16.6016667,26.0333333 15.89,25.4 15.2433333,24.75 C15.0933333,24.6 14.9483333,24.45 14.8083333,24.3 L14.8083333,24.3 Z M21.7533333,27.55 C23.4333333,28.4166667 24.68,28.6833333 24.9966667,28.4333333 C25,28.2333333 24.98,28.1 24.75,27.95 C24.225,27.6166667 23.1216667,27.4666667 21.7533333,27.55 L21.7533333,27.55 Z M5.08166667,34.9833333 C5.12166667,35 5.17166667,35.0166667 5.23166667,35.0333333 C6.68833333,35.45 8.13166667,33.9666667 9.375,32 C6.955,33.3333333 5.43833333,34.4166667 5.08166667,34.9833333 L5.08166667,34.9833333 Z M5.755,36.7833333 C5.435,36.7833333 5.105,36.7333333 4.76833333,36.6333333 C3.595,36.3 3.37666667,35.5833333 3.35,35.2 C3.25666667,33.8 5.775,31.85 10.845,29.35 C11.4283333,28.15 11.915,27.0166667 12.2683333,26.2 L12.57,25.5 C12.9133333,24.7166667 13.26,23.75 13.5716667,22.7166667 C11.65,19.85 11.2733333,16.7666667 12.0283333,14.9333333 C12.45,13.9166667 13.23,13.3333333 14.1666667,13.3333333 L14.1816667,13.3333333 C14.87,13.35 15.455,13.6833333 15.8316667,14.2666667 C16.8566667,15.85 16.2333333,19.45 15.3966667,22.4166667 C15.7,22.8 16.04,23.2 16.4233333,23.5833333 C17.4416667,24.6 18.4733333,25.45 19.4516667,26.1333333 C21.9733333,25.7 24.395,25.7333333 25.66,26.5666667 C26.3083333,26.9833333 26.6666667,27.6166667 26.6666667,28.3333333 C26.6666667,29.1 26.2816667,29.7166667 25.6083333,30 C24.2033333,30.5666667 21.6316667,29.5666667 19.1116667,27.9 C17.8633333,28.1666667 16.5566667,28.55 15.335,29.1 C14.17,29.6166667 13.085,30.1166667 12.0883333,30.6 C10.525,33.6833333 8.39666667,36.7833333 5.755,36.7833333 L5.755,36.7833333 Z" id="Fill-6025"></path>
        </g>
    </g>
</svg>