<?xml version="1.0" encoding="UTF-8"?>
<svg width="32px" height="40px" viewBox="0 0 32 40" version="1.1" xmlns="http://www.w3.org/2000/svg" xmlns:xlink="http://www.w3.org/1999/xlink">
    <!-- Generator: Sketch 42 (36781) - http://www.bohemiancoding.com/sketch -->
    <title>Group 13</title>
    <desc>Created with Sketch.</desc>
    <defs></defs>
    <g id="Page-1" stroke="none" stroke-width="1" fill="none" fill-rule="evenodd">
        <g id="Group-13" fill="#5E5E5E">
            <path d="M1.66666667,38.3333333 L30,38.3333333 L30,1.66666667 L11.1783333,1.66666667 L1.66666667,11.1833333 L1.66666667,38.3333333 L1.66666667,38.3333333 Z M30.8333333,40 L0.833333333,40 C0.373333333,40 0,39.6333333 0,39.1666667 L0,10.8333333 C0,10.6166667 0.0883333333,10.4 0.243333333,10.25 L10.2433333,0.25 C10.4,0.0833333333 10.6116667,0 10.8333333,0 L30.8333333,0 C31.2933333,0 31.6666667,0.366666667 31.6666667,0.833333333 L31.6666667,39.1666667 C31.6666667,39.6333333 31.2933333,40 30.8333333,40 L30.8333333,40 Z" id="Fill-6013"></path>
            <path d="M10.8333333,11.6666667 L0.833333333,11.6666667 C0.373333333,11.6666667 0,11.3 0,10.8333333 C0,10.3666667 0.373333333,10 0.833333333,10 L10,10 L10,0.833333333 C10,0.366666667 10.3733333,0 10.8333333,0 C11.2933333,0 11.6666667,0.366666667 11.6666667,0.833333333 L11.6666667,10.8333333 C11.6666667,11.3 11.2933333,11.6666667 10.8333333,11.6666667" id="Fill-6014"></path>
            <path d="M21.6666667,10 L26.6083333,10 C26.24,7.45 24.2166667,5.43333333 21.6666667,5.06666667 L21.6666667,10 L21.6666667,10 Z M27.5,11.6666667 L20.8333333,11.6666667 C20.3733333,11.6666667 20,11.3 20,10.8333333 L20,4.16666667 C20,3.7 20.3733333,3.33333333 20.8333333,3.33333333 C24.9683333,3.33333333 28.3333333,6.7 28.3333333,10.8333333 C28.3333333,11.3 27.96,11.6666667 27.5,11.6666667 L27.5,11.6666667 Z" id="Fill-6015"></path>
            <path d="M20,18.3333333 C16.3233333,18.3333333 13.3333333,15.35 13.3333333,11.6666667 C13.3333333,7.98333333 16.3233333,5 20,5 C20.46,5 20.8333333,5.36666667 20.8333333,5.83333333 C20.8333333,6.3 20.46,6.66666667 20,6.66666667 C17.2433333,6.66666667 15,8.91666667 15,11.6666667 C15,14.4166667 17.2433333,16.6666667 20,16.6666667 C22.7566667,16.6666667 25,14.4166667 25,11.6666667 C25,11.2 25.3733333,10.8333333 25.8333333,10.8333333 C26.2933333,10.8333333 26.6666667,11.2 26.6666667,11.6666667 C26.6666667,15.35 23.6766667,18.3333333 20,18.3333333" id="Fill-6016"></path>
            <path d="M5.83333333,35 C5.37333333,35 5,34.6333333 5,34.1666667 L5,30.8333333 C5,30.3666667 5.37333333,30 5.83333333,30 C6.29333333,30 6.66666667,30.3666667 6.66666667,30.8333333 L6.66666667,34.1666667 C6.66666667,34.6333333 6.29333333,35 5.83333333,35" id="Fill-6017"></path>
            <path d="M9.16666667,35 C8.70666667,35 8.33333333,34.6333333 8.33333333,34.1666667 L8.33333333,25.8333333 C8.33333333,25.3666667 8.70666667,25 9.16666667,25 C9.62666667,25 10,25.3666667 10,25.8333333 L10,34.1666667 C10,34.6333333 9.62666667,35 9.16666667,35" id="Fill-6018"></path>
            <path d="M12.5,35 C12.04,35 11.6666667,34.6333333 11.6666667,34.1666667 L11.6666667,20.8333333 C11.6666667,20.3666667 12.04,20 12.5,20 C12.96,20 13.3333333,20.3666667 13.3333333,20.8333333 L13.3333333,34.1666667 C13.3333333,34.6333333 12.96,35 12.5,35" id="Fill-6019"></path>
            <path d="M25.8333333,25 L15.8333333,25 C15.3733333,25 15,24.6333333 15,24.1666667 C15,23.7 15.3733333,23.3333333 15.8333333,23.3333333 L25.8333333,23.3333333 C26.2933333,23.3333333 26.6666667,23.7 26.6666667,24.1666667 C26.6666667,24.6333333 26.2933333,25 25.8333333,25" id="Fill-6020"></path>
            <path d="M25.8333333,30 L15.8333333,30 C15.3733333,30 15,29.6333333 15,29.1666667 C15,28.7 15.3733333,28.3333333 15.8333333,28.3333333 L25.8333333,28.3333333 C26.2933333,28.3333333 26.6666667,28.7 26.6666667,29.1666667 C26.6666667,29.6333333 26.2933333,30 25.8333333,30" id="Fill-6021"></path>
            <path d="M25.8333333,35 L15.8333333,35 C15.3733333,35 15,34.6333333 15,34.1666667 C15,33.7 15.3733333,33.3333333 15.8333333,33.3333333 L25.8333333,33.3333333 C26.2933333,33.3333333 26.6666667,33.7 26.6666667,34.1666667 C26.6666667,34.6333333 26.2933333,35 25.8333333,35" id="Fill-6022"></path>
        </g>
    </g>
</svg>