<?xml version="1.0" encoding="UTF-8"?>
<svg width="48px" height="48px" viewBox="0 0 48 48" version="1.1" xmlns="http://www.w3.org/2000/svg" xmlns:xlink="http://www.w3.org/1999/xlink">
    <!-- Generator: Sketch 55.2 (78181) - https://sketchapp.com -->
    <title>Group 34 Copy 4@2x</title>
    <desc>Created with Sketch.</desc>
    <defs>
        <polygon id="path-1" points="0.0312678571 0 0.464303571 0 0.464303571 0.1106113 0.0312678571 0.1106113"></polygon>
        <polygon id="path-3" points="0.0925140796 0.0306294564 0.2 0.0306294564 0.2 0.500015385 0.0925140796 0.500015385"></polygon>
        <polygon id="path-5" points="8.33333334e-06 0.0910241788 0.463175 0.0910241788 0.463175 0.2 8.33333334e-06 0.2"></polygon>
    </defs>
    <g id="Landing-page" stroke="none" stroke-width="1" fill="none" fill-rule="evenodd">
        <g id="Project-List/Serch" transform="translate(-507.000000, -665.000000)">
            <g id="Group-34-Copy-4" transform="translate(507.000000, 665.000000)">
                <path d="M4.22375683,16.1718406 C5.37210736,16.7033871 6.65141485,17 8,17 C12.9705627,17 17,12.9705627 17,8 C17,6.65124538 16.7033126,5.37178583 16.1716402,4.22332392 C16.6024858,4.14153248 17.0367999,4.07950118 17.4746483,4.03771429 C17.7066667,4.01558163 17.9417125,4.00676531 18.1761162,4.01579592 C18.29263,4.00639796 18.4107339,4.03502041 18.5259939,4 L19.4434251,4 C19.5580734,4.03502041 19.6756269,4.00636735 19.7913456,4.01576531 C20.9216514,4.01117347 22.0181346,4.2284898 23.0999388,4.53213265 C24.0343731,4.79438776 24.9343119,5.14820408 25.798685,5.59070408 C26.8187768,6.11291837 27.7714679,6.73844898 28.6449541,7.48064286 C29.7737615,8.43984694 30.7559327,9.53172449 31.5663609,10.7744286 C32.4336697,12.1043163 33.0738532,13.5364796 33.4891131,15.0698776 C33.704159,15.8640204 33.8559633,16.6696735 33.9315291,17.4884592 C33.9529664,17.7206531 33.9615596,17.956 33.9536391,18.1905816 C33.9629969,18.3072143 33.9344343,18.4254388 33.969419,18.5408163 L33.969419,19.4897959 C33.9344037,19.6045612 33.9630275,19.7222041 33.9536391,19.8380102 C33.9590214,20.6633163 33.8278899,21.4721531 33.6506728,22.2744082 C33.3765749,23.5153061 32.949419,24.7021735 32.3719878,25.8339694 C31.8345566,26.887398 31.181315,27.8634082 30.410948,28.7610816 C29.4691743,29.8584388 28.4004893,30.8114592 27.1896942,31.6022347 C25.8654434,32.4671224 24.4395107,33.1059082 22.9123547,33.5186224 C22.1190826,33.7329694 21.3150459,33.8889388 20.4967278,33.9619796 C20.2646483,33.9827041 20.0297554,33.9920408 19.795474,33.9842041 C19.6884098,33.9928367 19.5797248,33.9662959 19.4740061,34 L18.5565749,34 C18.4323242,33.9642755 18.3053211,33.994 18.1800612,33.9842347 C17.3551988,33.9947041 16.5468807,33.8638673 15.7449235,33.6882755 C14.509419,33.4177551 13.3266667,32.9953673 12.1992355,32.4220918 C11.0399083,31.8325918 9.97299694,31.1068673 9.00311927,30.2375408 C7.74345566,29.1084388 6.69039755,27.8141837 5.8646789,26.3363776 C5.26247706,25.2585816 4.80311927,24.1225 4.48006116,22.9303673 C4.26486239,22.1361633 4.11440367,21.3302653 4.03743119,20.5116633 C4.01461774,20.2691531 4.00697248,20.0236735 4.01577982,19.7788673 C4.00639144,19.6622347 4.03498471,19.5439796 4,19.4285714 L4,18.5714286 C4.03568807,18.447051 4.00599388,18.3199184 4.01574924,18.1945612 C4.01001087,17.5094966 4.09259084,16.837056 4.22375683,16.1718406 Z" id="Combined-Shape" fill="#AEB7BC"></path>
                <g id="Group-2">
                    <circle id="Oval" fill="#AEB7BC" cx="8" cy="8" r="8"></circle>
                    <g id="Group" transform="translate(2.000000, 2.000000)" stroke="#FFFFFF" stroke-linecap="round" stroke-linejoin="round">
                        <path d="M8,2 C10.209,2 12,3.791 12,6 C12,8.209 10.209,10 8,10" id="Stroke-348"></path>
                        <path d="M4,10 C1.791,10 0,8.209 0,6 C0,3.791 1.791,2 4,2" id="Stroke-350"></path>
                        <polyline id="Stroke-342" points="4 0 6 2 4 4"></polyline>
                        <polyline id="Stroke-343" points="8 8 6 10 8 12"></polyline>
                    </g>
                </g>
                <path d="M4,18.1734694 C4.02436419,18.1698571 4.04979154,18.1685408 4.07610487,18.1695816 C4.0992287,18.3046122 4.14007194,18.4400714 4,18.5714286 L4,18.1734694 Z" id="Fill-3" fill="#6F6F6F"></path>
                <path d="M18.1590214,34.0658761 C18.1607951,34.0388737 18.1596024,34.0131271 18.1554128,33.9886366 C18.2902141,33.9667475 18.4254128,33.9262887 18.5565749,34.0658761 L18.1590214,34.0658761 Z" id="Fill-5" fill="#757575"></path>
                <g id="Group-9" transform="translate(18.128440, 4.000000)">
                    <mask id="mask-2" fill="white">
                        <use xlink:href="#path-1"></use>
                    </mask>
                    <g id="Clip-8"></g>
                    <path d="M0.0312678571,0.08477 C0.0345178571,0.05727 0.0360178571,0.02897 0.0357321429,-3e-05 L0.464303571,-3e-05 C0.323196429,0.15847 0.176875,0.10667 0.0312678571,0.08477" id="Fill-7" fill="#787878" mask="url(#mask-2)"></path>
                </g>
                <path d="M19.8103976,4 C19.8125382,4.02591646 19.8137615,4.05221688 19.8140979,4.07899722 C19.6894801,4.10155415 19.5646177,4.13534154 19.4434251,4 L19.8103976,4 Z" id="Fill-10" fill="#888888"></path>
                <g id="Group-14" transform="translate(33.908257, 18.142857)">
                    <mask id="mask-4" fill="white">
                        <use xlink:href="#path-3"></use>
                    </mask>
                    <g id="Clip-13"></g>
                    <path d="M0.11631,0.0338230769 C0.14681,0.0283615385 0.17471,0.0299 0.20001,0.0384769231 L0.20001,0.500015385 C0.04771,0.347938462 0.09551,0.190515385 0.11631,0.0338230769" id="Fill-12" fill="#828282" mask="url(#mask-4)"></path>
                </g>
                <path d="M4.07197862,19.8011806 L4.03150853,19.8060173 L4.00001223,19.7959153 L4.00001223,19.4285684 C4.14526469,19.5499459 4.09661259,19.6758235 4.07197862,19.8011806" id="Fill-15" fill="#696969"></path>
                <path d="M34.0381802,19.8571429 L33.9966729,19.8599592 L33.9542845,19.8596837 C33.9420477,19.7354898 33.8984846,19.6105918 34.0381802,19.4897959 L34.0381802,19.8571429 Z" id="Fill-17" fill="#989898"></path>
                <g id="Group-21" transform="translate(19.474006, 33.938776)">
                    <mask id="mask-6" fill="white">
                        <use xlink:href="#path-5"></use>
                    </mask>
                    <g id="Clip-20"></g>
                    <path d="M0.463175,0.11641 C0.461175,0.14411 0.459591667,0.17211 0.458341667,0.20001 L8.33333334e-06,0.20001 C0.1503,0.04151 0.3073,0.09691 0.463175,0.11641" id="Fill-19" fill="#858585" mask="url(#mask-6)"></path>
                </g>
                <path d="M12.6280183,27.2729592 C12.0367951,27.2729592 11.4455413,27.2699286 10.8543792,27.275741 C10.7460917,27.2767551 10.7211376,27.2476122 10.7214707,27.1413265 C10.7254801,25.9576735 10.7249908,24.7740204 10.7220856,23.5903673 C10.721841,23.5007347 10.7508318,23.440551 10.8130336,23.3782857 C14.7931865,19.3968878 18.7734006,15.415551 22.7481713,11.4287653 C23.1662446,11.0094082 23.6706483,10.7968673 24.2393028,10.7411837 C25.6581713,10.6022653 26.8929419,11.5089082 27.189945,12.9047041 C27.3515963,13.6644388 27.1976208,14.3715204 26.755052,15.0120816 C26.7177737,15.066051 26.6706789,15.1140204 26.6240428,15.1606735 C22.6241957,19.1653367 18.6237064,23.169449 14.6251131,27.1754286 C14.554685,27.2459898 14.4858777,27.275741 14.3863976,27.2750714 C13.8002813,27.2707857 13.2141651,27.2729592 12.6280183,27.2729592" id="Fill-22" fill="#FEFEFE"></path>
                <path d="M18.6037615,25.2746069 C19.2003364,25.2725929 19.6862997,25.7508173 19.688972,26.3425827 C19.6917125,26.9477255 19.2125994,27.4352561 18.6130581,27.4374062 C18.0149541,27.4395724 17.5213761,26.9474194 17.5245413,26.3520724 C17.527737,25.7587153 18.0106116,25.2766337 18.6037615,25.2746069" id="Fill-24" fill="#FEFEFE"></path>
                <path d="M22.7185542,26.3530061 C22.7192263,26.9497918 22.2441804,27.4311694 21.6484618,27.4373531 C21.0510917,27.4435367 20.557055,26.9549347 20.5560444,26.3569551 C20.5550673,25.7583327 21.0424373,25.2737714 21.6447615,25.2745969 C22.2389511,25.2754857 22.7178807,25.7564347 22.7185542,26.3530061" id="Fill-26" fill="#FEFEFE"></path>
                <path d="M25.7486256,26.361048 C25.7459847,26.9573133 25.264945,27.4377724 24.6710306,27.4373747 C24.0694709,27.4370071 23.5844251,26.9487418 23.5893486,26.3485888 C23.5942722,25.743752 24.0757401,25.271099 24.6832936,25.2746301 C25.2763823,25.2780786 25.7512446,25.7623643 25.7486256,26.361048" id="Fill-28" fill="#FEFEFE"></path>
                <path d="M12.1552875,25.8460765 C12.0593547,25.8483418 12.0360826,25.8187398 12.0368777,25.7255867 C12.0413119,25.2104439 12.041526,24.6952092 12.0365475,24.1800357 C12.0357462,24.0915663 12.0762966,24.0410255 12.1318012,23.9855867 C14.9498746,21.1725663 17.7671223,18.35875 20.5844924,15.5450255 C20.9127187,15.2171684 21.2427492,14.8910561 21.5677034,14.5599847 C21.6309755,14.4954847 21.6651346,14.4867602 21.7361437,14.5542602 C22.3198746,15.1091071 22.9059297,15.6615969 23.4974281,16.2081173 C23.5899358,16.2936173 23.5671223,16.3320051 23.4918318,16.4061173 C21.8783456,17.9937296 20.2673058,19.5838827 18.6556239,21.173301 C17.1273976,22.6803724 15.5977339,24.1860051 14.073055,25.6966276 C13.9621682,25.8065255 13.8540948,25.8551684 13.6990489,25.8470561 C13.460211,25.8345969 13.2202416,25.8438112 12.9807309,25.8438112 C12.7055627,25.8438112 12.4303028,25.8395867 12.1552875,25.8460765 Z" id="Fill-30" fill="#AEB7BC"></path>
                <path d="M25.8442385,13.5235184 C25.831792,13.7883143 25.7515168,14.0525898 25.5261957,14.2717122 C25.1976942,14.5911816 24.8843303,14.9263857 24.5693456,15.2594163 C24.503474,15.3290286 24.4663486,15.3399878 24.3910887,15.2680184 C23.8132294,14.7153755 23.2318532,14.1663755 22.6482141,13.6198245 C22.5777554,13.5538245 22.5736575,13.5192939 22.6442691,13.4477837 C22.9950948,13.0927122 23.3397125,12.7314265 23.6851254,12.3710592 C23.7357982,12.3182224 23.7929847,12.2830184 23.8617309,12.2572122 C24.5944832,11.9822837 25.2886422,12.2036714 25.6679083,12.8358449 C25.7887645,13.0372735 25.8476636,13.255202 25.8442385,13.5235184" id="Fill-32" fill="#AEB7BC"></path>
            </g>
        </g>
    </g>
</svg>
