<?xml version="1.0" encoding="UTF-8"?>
<svg width="48px" height="48px" viewBox="0 0 48 48" version="1.1" xmlns="http://www.w3.org/2000/svg" xmlns:xlink="http://www.w3.org/1999/xlink">
    <!-- Generator: Sketch 55.2 (78181) - https://sketchapp.com -->
    <title>Group 34 Copy 2@2x</title>
    <desc>Created with Sketch.</desc>
    <defs>
        <polygon id="path-1" points="0.0312678571 0 0.464303571 0 0.464303571 0.1106113 0.0312678571 0.1106113"></polygon>
        <polygon id="path-3" points="0.0925140796 0.0306294564 0.2 0.0306294564 0.2 0.500015385 0.0925140796 0.500015385"></polygon>
        <polygon id="path-5" points="8.33333334e-06 0.0910241788 0.463175 0.0910241788 0.463175 0.2 8.33333334e-06 0.2"></polygon>
    </defs>
    <g id="Landing-page" stroke="none" stroke-width="1" fill="none" fill-rule="evenodd">
        <g id="Project-List/Serch" transform="translate(-511.000000, -477.000000)">
            <g id="Group-34-Copy-2" transform="translate(511.000000, 477.000000)">
                <path d="M0,15.4285714 L0,14.5714286 C0.0356880734,14.447051 0.00599388379,14.3199184 0.0157492355,14.1945612 C0.00709480122,13.1613673 0.199327217,12.1568878 0.456146789,11.162602 C0.728807339,10.1068469 1.11840979,9.09459184 1.61691131,8.12540816 C2.13186544,7.12423469 2.74749235,6.18829592 3.4766055,5.33014286 C4.4358104,4.20110204 5.52474006,3.21618367 6.76700306,2.40557143 C8.09626911,1.53823469 9.52678899,0.89755102 11.0583486,0.480428571 C11.8517431,0.264367347 12.6570336,0.115744898 13.4746483,0.0377142857 C13.7066667,0.0155816327 13.9417125,0.00676530612 14.1761162,0.0157959184 C14.29263,0.00639795918 14.4107339,0.0350204082 14.5259939,0 L15.4434251,0 C15.5580734,0.0350204082 15.6756269,0.00636734694 15.7913456,0.0157653061 C16.9216514,0.0111734694 18.0181346,0.228489796 19.0999388,0.532132653 C20.0343731,0.794387755 20.9343119,1.14820408 21.798685,1.59070408 C22.8187768,2.11291837 23.7714679,2.73844898 24.6449541,3.48064286 C25.7737615,4.43984694 26.7559327,5.53172449 27.5663609,6.77442857 C28.4336697,8.10431633 29.0738532,9.53647959 29.4891131,11.0698776 C29.704159,11.8640204 29.8559633,12.6696735 29.9315291,13.4884592 C29.9529664,13.7206531 29.9615596,13.956 29.9536391,14.1905816 C29.9629969,14.3072143 29.9344343,14.4254388 29.969419,14.5408163 L29.969419,15.4897959 C29.9344037,15.6045612 29.9630275,15.7222041 29.9536391,15.8380102 C29.9590214,16.6633163 29.8278899,17.4721531 29.6506728,18.2744082 C29.3765749,19.5153061 28.949419,20.7021735 28.3719878,21.8339694 C27.8345566,22.887398 27.181315,23.8634082 26.410948,24.7610816 C25.4691743,25.8584388 24.4004893,26.8114592 23.1896942,27.6022347 C21.8654434,28.4671224 20.4395107,29.1059082 18.9123547,29.5186224 C18.1190826,29.7329694 17.3150459,29.8889388 16.4967278,29.9619796 C16.2646483,29.9827041 16.0297554,29.9920408 15.795474,29.9842041 C15.6884098,29.9928367 15.5797248,29.9662959 15.4740061,30 L14.5565749,30 C14.4323242,29.9642755 14.3053211,29.994 14.1800612,29.9842347 C13.3551988,29.9947041 12.5468807,29.8638673 11.7449235,29.6882755 C10.509419,29.4177551 9.32666667,28.9953673 8.19923547,28.4220918 C7.03990826,27.8325918 5.97299694,27.1068673 5.00311927,26.2375408 C3.74345566,25.1084388 2.69039755,23.8141837 1.8646789,22.3363776 C1.26247706,21.2585816 0.803119266,20.1225 0.480061162,18.9303673 C0.264862385,18.1361633 0.11440367,17.3302653 0.0374311927,16.5116633 C0.014617737,16.2691531 0.00697247706,16.0236735 0.0157798165,15.7788673 C0.00639143731,15.6622347 0.0349847095,15.5439796 0,15.4285714" id="Fill-1" fill="#AEB7BC"></path>
                <path d="M0,14.1734694 C0.0243641888,14.1698571 0.0497915422,14.1685408 0.0761048662,14.1695816 C0.0992286963,14.3046122 0.140071936,14.4400714 0,14.5714286 L0,14.1734694 Z" id="Fill-3" fill="#6F6F6F"></path>
                <path d="M14.1590214,30.0658761 C14.1607951,30.0388737 14.1596024,30.0131271 14.1554128,29.9886366 C14.2902141,29.9667475 14.4254128,29.9262887 14.5565749,30.0658761 L14.1590214,30.0658761 Z" id="Fill-5" fill="#757575"></path>
                <g id="Group-9" transform="translate(14.128440, 0.000000)">
                    <mask id="mask-2" fill="white">
                        <use xlink:href="#path-1"></use>
                    </mask>
                    <g id="Clip-8"></g>
                    <path d="M0.0312678571,0.08477 C0.0345178571,0.05727 0.0360178571,0.02897 0.0357321429,-3e-05 L0.464303571,-3e-05 C0.323196429,0.15847 0.176875,0.10667 0.0312678571,0.08477" id="Fill-7" fill="#787878" mask="url(#mask-2)"></path>
                </g>
                <path d="M15.8103976,0 C15.8125382,0.0259164648 15.8137615,0.0522168773 15.8140979,0.0789972242 C15.6894801,0.101554147 15.5646177,0.135341538 15.4434251,0 L15.8103976,0 Z" id="Fill-10" fill="#888888"></path>
                <g id="Group-14" transform="translate(29.908257, 14.142857)">
                    <mask id="mask-4" fill="white">
                        <use xlink:href="#path-3"></use>
                    </mask>
                    <g id="Clip-13"></g>
                    <path d="M0.11631,0.0338230769 C0.14681,0.0283615385 0.17471,0.0299 0.20001,0.0384769231 L0.20001,0.500015385 C0.04771,0.347938462 0.09551,0.190515385 0.11631,0.0338230769" id="Fill-12" fill="#828282" mask="url(#mask-4)"></path>
                </g>
                <path d="M0.0719786222,15.8011806 L0.0315085252,15.8060173 L1.22324159e-05,15.7959153 L1.22324159e-05,15.4285684 C0.145264689,15.5499459 0.0966125942,15.6758235 0.0719786222,15.8011806" id="Fill-15" fill="#696969"></path>
                <path d="M30.0381802,15.8571429 L29.9966729,15.8599592 L29.9542845,15.8596837 C29.9420477,15.7354898 29.8984846,15.6105918 30.0381802,15.4897959 L30.0381802,15.8571429 Z" id="Fill-17" fill="#989898"></path>
                <g id="Group-21" transform="translate(15.474006, 29.938776)">
                    <mask id="mask-6" fill="white">
                        <use xlink:href="#path-5"></use>
                    </mask>
                    <g id="Clip-20"></g>
                    <path d="M0.463175,0.11641 C0.461175,0.14411 0.459591667,0.17211 0.458341667,0.20001 L8.33333334e-06,0.20001 C0.1503,0.04151 0.3073,0.09691 0.463175,0.11641" id="Fill-19" fill="#858585" mask="url(#mask-6)"></path>
                </g>
                <path d="M8.62801835,23.2729592 C8.03679511,23.2729592 7.44554128,23.2699286 6.8543792,23.275741 C6.74609174,23.2767551 6.72113761,23.2476122 6.72147067,23.1413265 C6.72548012,21.9576735 6.72499083,20.7740204 6.72208563,19.5903673 C6.72184098,19.5007347 6.7508318,19.440551 6.81303364,19.3782857 C10.7931865,15.3968878 14.7734006,11.415551 18.7481713,7.42876531 C19.1662446,7.00940816 19.6706483,6.79686735 20.2393028,6.74118367 C21.6581713,6.60226531 22.8929419,7.50890816 23.189945,8.90470408 C23.3515963,9.66443878 23.1976208,10.3715204 22.755052,11.0120816 C22.7177737,11.066051 22.6706789,11.1140204 22.6240428,11.1606735 C18.6241957,15.1653367 14.6237064,19.169449 10.6251131,23.1754286 C10.554685,23.2459898 10.4858777,23.275741 10.3863976,23.2750714 C9.80028135,23.2707857 9.21416514,23.2729592 8.62801835,23.2729592" id="Fill-22" fill="#FEFEFE"></path>
                <path d="M14.6037615,21.2746069 C15.2003364,21.2725929 15.6862997,21.7508173 15.688972,22.3425827 C15.6917125,22.9477255 15.2125994,23.4352561 14.6130581,23.4374062 C14.0149541,23.4395724 13.5213761,22.9474194 13.5245413,22.3520724 C13.527737,21.7587153 14.0106116,21.2766337 14.6037615,21.2746069" id="Fill-24" fill="#FEFEFE"></path>
                <path d="M18.7185542,22.3530061 C18.7192263,22.9497918 18.2441804,23.4311694 17.6484618,23.4373531 C17.0510917,23.4435367 16.557055,22.9549347 16.5560444,22.3569551 C16.5550673,21.7583327 17.0424373,21.2737714 17.6447615,21.2745969 C18.2389511,21.2754857 18.7178807,21.7564347 18.7185542,22.3530061" id="Fill-26" fill="#FEFEFE"></path>
                <path d="M21.7486256,22.361048 C21.7459847,22.9573133 21.264945,23.4377724 20.6710306,23.4373747 C20.0694709,23.4370071 19.5844251,22.9487418 19.5893486,22.3485888 C19.5942722,21.743752 20.0757401,21.271099 20.6832936,21.2746301 C21.2763823,21.2780786 21.7512446,21.7623643 21.7486256,22.361048" id="Fill-28" fill="#FEFEFE"></path>
                <path d="M8.15528746,21.8460765 C8.05935474,21.8483418 8.03608257,21.8187398 8.03687768,21.7255867 C8.04131193,21.2104439 8.04152599,20.6952092 8.03654746,20.1800357 C8.03574618,20.0915663 8.07629664,20.0410255 8.13180122,19.9855867 C10.9498746,17.1725663 13.7671223,14.35875 16.5844924,11.5450255 C16.9127187,11.2171684 17.2427492,10.8910561 17.5677034,10.5599847 C17.6309755,10.4954847 17.6651346,10.4867602 17.7361437,10.5542602 C18.3198746,11.1091071 18.9059297,11.6615969 19.4974281,12.2081173 C19.5899358,12.2936173 19.5671223,12.3320051 19.4918318,12.4061173 C17.8783456,13.9937296 16.2673058,15.5838827 14.6556239,17.173301 C13.1273976,18.6803724 11.5977339,20.1860051 10.073055,21.6966276 C9.9621682,21.8065255 9.8540948,21.8551684 9.69904893,21.8470561 C9.46021101,21.8345969 9.22024159,21.8438112 8.98073089,21.8438112 C8.70556269,21.8438112 8.43030275,21.8395867 8.15528746,21.8460765 Z" id="Fill-30" fill="#AEB7BC"></path>
                <path d="M21.8442385,9.52351837 C21.831792,9.78831429 21.7515168,10.0525898 21.5261957,10.2717122 C21.1976942,10.5911816 20.8843303,10.9263857 20.5693456,11.2594163 C20.503474,11.3290286 20.4663486,11.3399878 20.3910887,11.2680184 C19.8132294,10.7153755 19.2318532,10.1663755 18.6482141,9.61982449 C18.5777554,9.55382449 18.5736575,9.51929388 18.6442691,9.44778367 C18.9950948,9.09271224 19.3397125,8.73142653 19.6851254,8.37105918 C19.7357982,8.31822245 19.7929847,8.28301837 19.8617309,8.25721224 C20.5944832,7.98228367 21.2886422,8.20367143 21.6679083,8.8358449 C21.7887645,9.03727347 21.8476636,9.25520204 21.8442385,9.52351837" id="Fill-32" fill="#AEB7BC"></path>
            </g>
        </g>
    </g>
</svg>
