<?xml version="1.0" encoding="utf-8"?>
<!-- Svg Vector Icons : http://www.onlinewebfonts.com/icon -->
<!DOCTYPE svg PUBLIC "-//W3C//DTD SVG 1.1//EN" "http://www.w3.org/Graphics/SVG/1.1/DTD/svg11.dtd">
<svg version="1.1" xmlns="http://www.w3.org/2000/svg" xmlns:xlink="http://www.w3.org/1999/xlink" x="0px" y="0px" viewBox="0 0 1000 1000" enable-background="new 0 0 1000 1000" xml:space="preserve">
<metadata> Svg Vector Icons : http://www.onlinewebfonts.com/icon </metadata>
<g><path d="M500,8.4c270.6,0,490,203.6,490,454.9S770.6,918.1,500,918.1c-76.7,0-149.2-16.3-213.9-45.5l-242,119l60-260.2C44.9,656.2,10,563.5,10,463.3C10,212,229.4,8.4,500,8.4z M500,56.3c-246,0-445.4,182.2-445.4,407c0,96.2,36.5,184.6,97.6,254.3l-50.1,202l178.5-102c64.8,33.6,139.6,52.7,219.3,52.7c246,0,445.4-182.2,445.4-407S746,56.3,500,56.3z M449.6,627.3h64.9v73h-64.9V627.3L449.6,627.3z M379.4,224.5c26.5-30.7,63-46.1,109.3-46.1c42.9,0,77.1,13.2,102.9,39.5c25.8,26.3,38.7,59.9,38.7,100.8c0,24.8-4.7,44.9-14.2,60.3c-9.5,15.4-28.6,38.1-57.3,68c-20.9,21.8-34.4,40.1-40.6,55.2c-6.2,15.1-9.3,37.4-9.3,66.8h-58.1c0-33.4,3.7-60.4,11.1-80.8c7.4-20.4,23.6-43.9,48.6-70.3l26.1-27.7c7.8-7.9,14.1-16.3,18.9-24.9c8.7-15.2,13.1-31,13.1-47.4c0-22.9-6.4-42.8-19.1-59.6c-12.8-16.8-33.8-25.2-63.2-25.2c-36.3,0-61.4,14.5-75.4,43.5c-7.8,16.1-12.3,39.4-13.4,69.8h-58C339.7,295.9,352.9,255.3,379.4,224.5C379.4,224.5,352.9,255.3,379.4,224.5L379.4,224.5z"/><path d="M500,8.4c270.6,0,490,203.6,490,454.9S770.6,918.1,500,918.1c-76.7,0-149.2-16.3-213.9-45.5l-242,119l60-260.2C44.9,656.2,10,563.5,10,463.3C10,212,229.4,8.4,500,8.4z M500,56.3c-246,0-445.4,182.2-445.4,407c0,96.2,36.5,184.6,97.6,254.3l-50.1,202l178.5-102c64.8,33.6,139.6,52.7,219.3,52.7c246,0,445.4-182.2,445.4-407S746,56.3,500,56.3z M449.6,627.3h64.9v73h-64.9V627.3L449.6,627.3z M379.4,224.5c26.5-30.7,63-46.1,109.3-46.1c42.9,0,77.1,13.2,102.9,39.5c25.8,26.3,38.7,59.9,38.7,100.8c0,24.8-4.7,44.9-14.2,60.3c-9.5,15.4-28.6,38.1-57.3,68c-20.9,21.8-34.4,40.1-40.6,55.2c-6.2,15.1-9.3,37.4-9.3,66.8h-58.1c0-33.4,3.7-60.4,11.1-80.8c7.4-20.4,23.6-43.9,48.6-70.3l26.1-27.7c7.8-7.9,14.1-16.3,18.9-24.9c8.7-15.2,13.1-31,13.1-47.4c0-22.9-6.4-42.8-19.1-59.6c-12.8-16.8-33.8-25.2-63.2-25.2c-36.3,0-61.4,14.5-75.4,43.5c-7.8,16.1-12.3,39.4-13.4,69.8h-58C339.7,295.9,352.9,255.3,379.4,224.5C379.4,224.5,352.9,255.3,379.4,224.5L379.4,224.5z"/></g>
</svg>