<?xml version="1.0" encoding="UTF-8"?>
<svg width="48px" height="48px" viewBox="0 0 48 48" version="1.1" xmlns="http://www.w3.org/2000/svg" xmlns:xlink="http://www.w3.org/1999/xlink">
    <!-- Generator: Sketch 55.2 (78181) - https://sketchapp.com -->
    <title>Group 34 Copy@2x</title>
    <desc>Created with Sketch.</desc>
    <defs>
        <filter x="-8.3%" y="-8.3%" width="120.0%" height="120.0%" filterUnits="objectBoundingBox" id="filter-1">
            <feOffset dx="0" dy="0" in="SourceAlpha" result="shadowOffsetOuter1"></feOffset>
            <feGaussianBlur stdDeviation="0.5" in="shadowOffsetOuter1" result="shadowBlurOuter1"></feGaussianBlur>
            <feColorMatrix values="0 0 0 0 0   0 0 0 0 0   0 0 0 0 0  0 0 0 0.5 0" type="matrix" in="shadowBlurOuter1" result="shadowMatrixOuter1"></feColorMatrix>
            <feMerge>
                <feMergeNode in="shadowMatrixOuter1"></feMergeNode>
                <feMergeNode in="SourceGraphic"></feMergeNode>
            </feMerge>
        </filter>
        <polygon id="path-2" points="0.0312678571 0 0.464303571 0 0.464303571 0.1106113 0.0312678571 0.1106113"></polygon>
        <polygon id="path-4" points="0.0925140796 0.0306294564 0.2 0.0306294564 0.2 0.500015385 0.0925140796 0.500015385"></polygon>
        <polygon id="path-6" points="8.33333334e-06 0.0910241788 0.463175 0.0910241788 0.463175 0.2 8.33333334e-06 0.2"></polygon>
    </defs>
    <g id="Landing-page" stroke="none" stroke-width="1" fill="none" fill-rule="evenodd">
        <g id="Project-List/Serch" transform="translate(-510.000000, -380.000000)">
            <g id="Group-34-Copy" filter="url(#filter-1)" transform="translate(511.000000, 381.000000)">
                <path d="M0,15.4285714 L0,14.5714286 C0.0356880734,14.447051 0.00599388379,14.3199184 0.0157492355,14.1945612 C0.00709480122,13.1613673 0.199327217,12.1568878 0.456146789,11.162602 C0.728807339,10.1068469 1.11840979,9.09459184 1.61691131,8.12540816 C2.13186544,7.12423469 2.74749235,6.18829592 3.4766055,5.33014286 C4.4358104,4.20110204 5.52474006,3.21618367 6.76700306,2.40557143 C8.09626911,1.53823469 9.52678899,0.89755102 11.0583486,0.480428571 C11.8517431,0.264367347 12.6570336,0.115744898 13.4746483,0.0377142857 C13.7066667,0.0155816327 13.9417125,0.00676530612 14.1761162,0.0157959184 C14.29263,0.00639795918 14.4107339,0.0350204082 14.5259939,0 L15.4434251,0 C15.5580734,0.0350204082 15.6756269,0.00636734694 15.7913456,0.0157653061 C16.9216514,0.0111734694 18.0181346,0.228489796 19.0999388,0.532132653 C20.0343731,0.794387755 20.9343119,1.14820408 21.798685,1.59070408 C22.8187768,2.11291837 23.7714679,2.73844898 24.6449541,3.48064286 C25.7737615,4.43984694 26.7559327,5.53172449 27.5663609,6.77442857 C28.4336697,8.10431633 29.0738532,9.53647959 29.4891131,11.0698776 C29.704159,11.8640204 29.8559633,12.6696735 29.9315291,13.4884592 C29.9529664,13.7206531 29.9615596,13.956 29.9536391,14.1905816 C29.9629969,14.3072143 29.9344343,14.4254388 29.969419,14.5408163 L29.969419,15.4897959 C29.9344037,15.6045612 29.9630275,15.7222041 29.9536391,15.8380102 C29.9590214,16.6633163 29.8278899,17.4721531 29.6506728,18.2744082 C29.3765749,19.5153061 28.949419,20.7021735 28.3719878,21.8339694 C27.8345566,22.887398 27.181315,23.8634082 26.410948,24.7610816 C25.4691743,25.8584388 24.4004893,26.8114592 23.1896942,27.6022347 C21.8654434,28.4671224 20.4395107,29.1059082 18.9123547,29.5186224 C18.1190826,29.7329694 17.3150459,29.8889388 16.4967278,29.9619796 C16.2646483,29.9827041 16.0297554,29.9920408 15.795474,29.9842041 C15.6884098,29.9928367 15.5797248,29.9662959 15.4740061,30 L14.5565749,30 C14.4323242,29.9642755 14.3053211,29.994 14.1800612,29.9842347 C13.3551988,29.9947041 12.5468807,29.8638673 11.7449235,29.6882755 C10.509419,29.4177551 9.32666667,28.9953673 8.19923547,28.4220918 C7.03990826,27.8325918 5.97299694,27.1068673 5.00311927,26.2375408 C3.74345566,25.1084388 2.69039755,23.8141837 1.8646789,22.3363776 C1.26247706,21.2585816 0.803119266,20.1225 0.480061162,18.9303673 C0.264862385,18.1361633 0.11440367,17.3302653 0.0374311927,16.5116633 C0.014617737,16.2691531 0.00697247706,16.0236735 0.0157798165,15.7788673 C0.00639143731,15.6622347 0.0349847095,15.5439796 0,15.4285714" id="Fill-1" fill="#4385F5"></path>
                <path d="M13.932756,22.8818676 C13.1131846,23.7022752 11.7804145,23.6983634 10.9697281,22.8869404 L5.76040829,17.6728876 C4.9435445,16.8552816 4.95083308,15.5223104 5.77020917,14.7020982 L6.35183731,14.1198765 C7.17411397,13.2967608 8.50092785,13.2903943 9.32409454,14.114401 L12.4487908,17.2422857 L20.905953,8.77649375 C21.7283316,7.95327598 23.0644887,7.95592497 23.8838648,8.77592688 L24.465493,9.35799924 C25.2877696,10.1809039 25.2846135,11.5184265 24.4703914,12.3334794 L13.932756,22.8818676 Z" id="Page-1" fill="#FFFFFF"></path>
                <g id="Group-9" transform="translate(14.128440, 0.000000)">
                    <mask id="mask-3" fill="white">
                        <use xlink:href="#path-2"></use>
                    </mask>
                    <g id="Clip-8"></g>
                    <path d="M0.0312678571,0.08477 C0.0345178571,0.05727 0.0360178571,0.02897 0.0357321429,-3e-05 L0.464303571,-3e-05 C0.323196429,0.15847 0.176875,0.10667 0.0312678571,0.08477" id="Fill-7" fill="#787878" mask="url(#mask-3)"></path>
                </g>
                <path d="M15.8103976,0 C15.8125382,0.0259164648 15.8137615,0.0522168773 15.8140979,0.0789972242 C15.6894801,0.101554147 15.5646177,0.135341538 15.4434251,0 L15.8103976,0 Z" id="Fill-10" fill="#888888"></path>
                <g id="Group-14" transform="translate(29.908257, 14.142857)">
                    <mask id="mask-5" fill="white">
                        <use xlink:href="#path-4"></use>
                    </mask>
                    <g id="Clip-13"></g>
                    <path d="M0.11631,0.0338230769 C0.14681,0.0283615385 0.17471,0.0299 0.20001,0.0384769231 L0.20001,0.500015385 C0.04771,0.347938462 0.09551,0.190515385 0.11631,0.0338230769" id="Fill-12" fill="#828282" mask="url(#mask-5)"></path>
                </g>
                <path d="M0.0719786222,15.8011806 L0.0315085252,15.8060173 L1.22324159e-05,15.7959153 L1.22324159e-05,15.4285684 C0.145264689,15.5499459 0.0966125942,15.6758235 0.0719786222,15.8011806" id="Fill-15" fill="#696969"></path>
                <path d="M30.0381802,15.8571429 L29.9966729,15.8599592 L29.9542845,15.8596837 C29.9420477,15.7354898 29.8984846,15.6105918 30.0381802,15.4897959 L30.0381802,15.8571429 Z" id="Fill-17" fill="#989898"></path>
                <g id="Group-21" transform="translate(15.474006, 29.938776)">
                    <mask id="mask-7" fill="white">
                        <use xlink:href="#path-6"></use>
                    </mask>
                    <g id="Clip-20"></g>
                    <path d="M0.463175,0.11641 C0.461175,0.14411 0.459591667,0.17211 0.458341667,0.20001 L8.33333334e-06,0.20001 C0.1503,0.04151 0.3073,0.09691 0.463175,0.11641" id="Fill-19" fill="#858585" mask="url(#mask-7)"></path>
                </g>
            </g>
        </g>
    </g>
</svg>
