<?xml version="1.0" encoding="UTF-8"?>
<svg width="30px" height="21px" viewBox="0 0 30 21" version="1.1" xmlns="http://www.w3.org/2000/svg" xmlns:xlink="http://www.w3.org/1999/xlink">
    <!-- Generator: Sketch 49.2 (51160) - http://www.bohemiancoding.com/sketch -->
    <title>Group 81</title>
    <desc>Created with Sketch.</desc>
    <defs></defs>
    <g id="Page-1" stroke="none" stroke-width="1" fill="none" fill-rule="evenodd" stroke-linecap="round" stroke-linejoin="round">
        <g id="-Icon54---30x_Grid_set_1_Smart_Stroke" transform="translate(-576.000000, -2933.000000)" stroke="#000000">
            <g id="Industry" transform="translate(156.000000, 2872.000000)">
                <g id="Group-81" transform="translate(420.000000, 61.002000)">
                    <path d="M29.5,17.5 C29.5,18.605 28.605,19.5 27.5,19.5 C26.395,19.5 25.5,18.605 25.5,17.5 C25.5,16.395 26.395,15.5 27.5,15.5 C28.605,15.5 29.5,16.395 29.5,17.5 L29.5,17.5 Z" id="Stroke-73"></path>
                    <path d="M23.5,17.5 C23.5,18.605 22.605,19.5 21.5,19.5 C20.395,19.5 19.5,18.605 19.5,17.5 C19.5,16.395 20.395,15.5 21.5,15.5 C22.605,15.5 23.5,16.395 23.5,17.5 L23.5,17.5 Z" id="Stroke-75"></path>
                    <path d="M10.5,17.5 C10.5,18.605 9.605,19.5 8.5,19.5 C7.395,19.5 6.5,18.605 6.5,17.5 C6.5,16.395 7.395,15.5 8.5,15.5 C9.605,15.5 10.5,16.395 10.5,17.5 L10.5,17.5 Z" id="Stroke-77"></path>
                    <path d="M4.5,17.5 C4.5,18.605 3.605,19.5 2.5,19.5 C1.395,19.5 0.5,18.605 0.5,17.5 C0.5,16.395 1.395,15.5 2.5,15.5 C3.605,15.5 4.5,16.395 4.5,17.5 L4.5,17.5 Z" id="Stroke-79"></path>
                    <polygon id="Stroke-63" points="1.5 11.5 28.5 11.5 28.5 0.5 1.5 0.5"></polygon>
                    <path d="M4.5,3.5026 L4.5,8.5026" id="Stroke-64"></path>
                    <path d="M7.5,3.5 L7.5,8.5" id="Stroke-65"></path>
                    <path d="M10.5,3.5 L10.5,8.5" id="Stroke-66"></path>
                    <path d="M13.5,3.5 L13.5,8.5" id="Stroke-67"></path>
                    <path d="M16.5,3.5 L16.5,8.5" id="Stroke-68"></path>
                    <path d="M19.5,3.5 L19.5,8.5" id="Stroke-69"></path>
                    <path d="M22.5,3.5 L22.5,8.5" id="Stroke-70"></path>
                    <path d="M25.5,3.5 L25.5,8.5" id="Stroke-71"></path>
                    <polyline id="Stroke-72" points="0.5 13.5026 10.5 13.5026 12.5 15.4996 17.5 15.4996 19.5 13.4996 29.5 13.4996"></polyline>
                </g>
            </g>
        </g>
    </g>
</svg>