<?xml version="1.0" encoding="UTF-8"?>
<svg width="32px" height="27px" viewBox="0 0 32 27" version="1.1" xmlns="http://www.w3.org/2000/svg" xmlns:xlink="http://www.w3.org/1999/xlink">
    <!-- Generator: Sketch 49.2 (51160) - http://www.bohemiancoding.com/sketch -->
    <title>Group 330</title>
    <desc>Created with Sketch.</desc>
    <defs></defs>
    <g id="Page-1" stroke="none" stroke-width="1" fill="none" fill-rule="evenodd" stroke-linecap="round" stroke-linejoin="round">
        <g id="-Icon54---30x_Grid_set_2_Smart_Stroke" transform="translate(-359.000000, -1020.000000)" stroke="#000000">
            <g id="Food" transform="translate(179.000000, 858.000000)">
                <g id="Group-330" transform="translate(181.000000, 162.000000)">
                    <path d="M28.5,12.5 C28.5,20.094 22.094,26.5 14.5,26.5 C6.906,26.5 0.5,19.844 0.5,12.25" id="Stroke-318"></path>
                    <path d="M14.5,13.5 L19.5,13.5" id="Stroke-320"></path>
                    <path d="M19.7207,8.8103 C18.0437,8.6113 16.4457,8.5003 14.4997,8.5003 C6.9057,8.5003 0.4997,10.1793 0.4997,12.2503 C0.4997,14.3213 6.9057,16.5003 14.4997,16.5003 C22.0937,16.5003 28.4997,14.5713 28.4997,12.5003 C28.4997,11.3013 25.9317,9.9873 22.7237,9.3003" id="Stroke-322"></path>
                    <path d="M17.655,11.1055 C16.576,11.0375 15.434,11.0005 14.25,11.0005 C7.692,11.0005 2.5,12.6195 2.5,14.0005" id="Stroke-324"></path>
                    <path d="M26.5,14 C26.5,13.094 23.829,11.803 20.402,11.365" id="Stroke-326"></path>
                    <path d="M18,13.5 L28.935,3.515 C29.303,3.187 29.514,2.718 29.514,2.225 L29.514,2.225 C29.514,1.272 28.742,0.5 27.789,0.5 L27.782,0.5 C27.293,0.5 26.827,0.708 26.5,1.071 L15.5,13.5" id="Stroke-328"></path>
                </g>
            </g>
        </g>
    </g>
</svg>