<?xml version="1.0" encoding="UTF-8"?>
<svg width="30px" height="30px" viewBox="0 0 30 30" version="1.1" xmlns="http://www.w3.org/2000/svg" xmlns:xlink="http://www.w3.org/1999/xlink">
    <!-- Generator: Sketch 49.2 (51160) - http://www.bohemiancoding.com/sketch -->
    <title>Group 715@2x</title>
    <desc>Created with Sketch.</desc>
    <defs></defs>
    <g id="Page-1" stroke="none" stroke-width="1" fill="none" fill-rule="evenodd" stroke-linecap="round" stroke-linejoin="round">
        <g id="30_Px_Grid_set_3_Smartstroke.ai" transform="translate(-660.000000, -3525.000000)" stroke="#000000">
            <g id="Users" transform="translate(660.000000, 3133.000000)">
                <g id="Group-715" transform="translate(0.000000, 392.000000)">
                    <path d="M28.5099,18.5 L28.5099,18.498 C28.5099,16.659 27.2929,15.057 25.5589,14.611 L22.4229,13.804 L22.0659,12.334 C22.9389,11.528 23.5229,10.316 23.6159,9.109 L23.6539,9.109 C24.0369,9.109 24.3609,8.815 24.4089,8.423 L24.5989,6.858 C24.6549,6.394 24.3049,5.986 23.8519,5.98 L23.9449,4.022 L24.3249,3.63 C24.8179,3.092 24.8179,2.447 24.3249,1.674 C23.8299,0.896 22.9679,0.5 21.7609,0.5 C21.1229,0.5 20.0149,0.535 18.9989,1.283 C15.9329,1.314 15.5749,2.628 15.5749,4.022 C15.5749,4.513 15.7549,5.978 15.7549,5.978 L15.6759,5.978 C15.2189,5.978 14.8639,6.391 14.9209,6.858 L15.1109,8.423 C15.1589,8.815 15.4829,9.109 15.8659,9.109 L15.9899,9.109 C16.0809,10.283 16.6349,11.464 17.4699,12.27 L17.0969,13.804 L13.9609,14.611 C13.4149,14.751 12.9209,15.006 12.4999,15.346" id="Stroke-707"></path>
                    <path d="M0.5,25.5 L4.5,25.5 C4.5,25.5 6.23,18.866 6.5,15.722 C5.55,14.806 0.5,14.5 0.5,14.5 L0.5,25.5 L0.5,25.5 Z" id="Stroke-709"></path>
                    <path d="M20.8846,22.5239 L25.5996,21.2419 C27.1596,20.8179 28.7806,21.6289 29.4996,23.1929 L22.7306,26.5399 C17.6026,28.8269 16.9426,29.0039 14.4996,27.9999 L4.9996,24.4999" id="Stroke-711"></path>
                    <path d="M6.5,16.5 L18.423,19.177 C20.067,19.624 20.885,20.47 20.885,22.313 L20.885,22.524 L19.229,22.974 C18.698,23.118 18.145,23.133 17.609,23.016 L12.269,21.855" id="Stroke-713"></path>
                </g>
            </g>
        </g>
    </g>
</svg>