<?xml version="1.0" encoding="UTF-8"?>
<svg width="30px" height="30px" viewBox="0 0 30 30" version="1.1" xmlns="http://www.w3.org/2000/svg" xmlns:xlink="http://www.w3.org/1999/xlink">
    <!-- Generator: Sketch 49.2 (51160) - http://www.bohemiancoding.com/sketch -->
    <title>Group 63</title>
    <desc>Created with Sketch.</desc>
    <defs></defs>
    <g id="Page-1" stroke="none" stroke-width="1" fill="none" fill-rule="evenodd" stroke-linecap="round" stroke-linejoin="round">
        <g id="30_Px_Grid_set_3_Smartstroke.ai" transform="translate(-660.000000, -3224.000000)" stroke="#000000">
            <g id="Users" transform="translate(660.000000, 3133.000000)">
                <g id="Group-63" transform="translate(1.000000, 91.000000)">
                    <path d="M8.5,4 C8.5,5.381 7.381,6.5 6,6.5 C4.619,6.5 3.5,5.381 3.5,4 C3.5,2.619 4.619,1.5 6,1.5 C7.381,1.5 8.5,2.619 8.5,4 L8.5,4 Z" id="Stroke-51"></path>
                    <path d="M24.5,4 C24.5,5.381 23.381,6.5 22,6.5 C20.619,6.5 19.5,5.381 19.5,4 C19.5,2.619 20.619,1.5 22,1.5 C23.381,1.5 24.5,2.619 24.5,4 L24.5,4 Z" id="Stroke-53"></path>
                    <path d="M16.5,29.5 L17.232,19.7 L17.707,19.7 C18.485,19.7 19.086,18.962 18.99,18.126 L18.162,10.953 C18,9.552 16.9,8.5 15.596,8.5 L14,8.5 L12.404,8.5 C11.1,8.5 10,9.552 9.838,10.953 L9.01,18.126 C8.914,18.962 9.515,19.7 10.293,19.7 L10.768,19.7 L11.5,29.5 L16.5,29.5 L16.5,29.5 Z" id="Stroke-55"></path>
                    <path d="M16.5,3 C16.5,4.381 15.381,5.5 14,5.5 C12.619,5.5 11.5,4.381 11.5,3 C11.5,1.619 12.619,0.5 14,0.5 C15.381,0.5 16.5,1.619 16.5,3 L16.5,3 Z" id="Stroke-57"></path>
                    <path d="M7.1731,9.5938 C6.9651,9.5398 6.7521,9.5018 6.5281,9.5018 L4.9481,9.5018 L3.3691,9.5018 C2.0781,9.5018 0.9901,10.4538 0.8301,11.7208 L0.0101,18.2098 C-0.0849,18.9658 0.5101,19.6328 1.2801,19.6328 L1.7501,19.6328 L2.5001,28.4998 L7.5081,28.4978 L8.0001,21.4998" id="Stroke-59"></path>
                    <path d="M20,21.534 L20.488,28.5 L25.5,28.5 L26.032,19.5 L26.488,19.5 C27.235,19.5 27.86,18.968 27.767,18.212 L26.971,11.723 C26.816,10.456 25.759,9.504 24.506,9.504 L22.973,9.504 L21.488,9.5 C21.198,9.5 20.872,9.56 20.612,9.654" id="Stroke-61"></path>
                </g>
            </g>
        </g>
    </g>
</svg>