<?xml version="1.0" encoding="UTF-8"?>
<svg width="30px" height="22px" viewBox="0 0 30 22" version="1.1" xmlns="http://www.w3.org/2000/svg" xmlns:xlink="http://www.w3.org/1999/xlink">
    <!-- Generator: Sketch 49.2 (51160) - http://www.bohemiancoding.com/sketch -->
    <title>Group 1046</title>
    <desc>Created with Sketch.</desc>
    <defs></defs>
    <g id="Page-1" stroke="none" stroke-width="1" fill="none" fill-rule="evenodd" stroke-linecap="round" stroke-linejoin="round">
        <g id="-Icon54---30x_Grid_set_1_Smart_Stroke" transform="translate(-696.000000, -1449.000000)" stroke="#000000">
            <g id="Business" transform="translate(156.000000, 1092.000000)">
                <g id="Group-1046" transform="translate(540.000000, 357.000000)">
                    <path d="M6.5,7.5 L6.5,3 C6.5,1.406 7.907,0.5 9.5,0.5 L26.5,0.5 C28.093,0.5 29.5,1.906 29.5,3.5 L29.5,12.5 C29.5,14.094 27.593,15.5 26,15.5 L14.5,15.5" id="Stroke-1038"></path>
                    <path d="M21.5,9.5 C21.5,8.762 21.904,8.124 22.5,7.777 C22.205,7.605 21.866,7.5 21.5,7.5 C20.396,7.5 19.5,8.395 19.5,9.5 C19.5,10.605 20.396,11.5 21.5,11.5 C21.866,11.5 22.205,11.395 22.5,11.223 C21.904,10.876 21.5,10.238 21.5,9.5 L21.5,9.5 Z" id="Stroke-1040"></path>
                    <path d="M25.5,9.5 C25.5,10.605 24.604,11.5 23.5,11.5 C22.396,11.5 21.5,10.605 21.5,9.5 C21.5,8.395 22.396,7.5 23.5,7.5 C24.604,7.5 25.5,8.395 25.5,9.5 L25.5,9.5 Z" id="Stroke-1042"></path>
                    <path d="M12.5,15.5 C12.5,18.813 9.813,21.5 6.5,21.5 C3.186,21.5 0.5,18.813 0.5,15.5 C0.5,12.186 3.186,9.5 6.5,9.5 C9.813,9.5 12.5,12.186 12.5,15.5 L12.5,15.5 Z" id="Stroke-1044"></path>
                    <path d="M6.5,19.5 L6.5,11.5" id="Stroke-1030"></path>
                    <polyline id="Stroke-1031" points="8.5 17.5 6.5 19.5 4.5 17.5"></polyline>
                    <path d="M10.5,3.5 L11.5,3.5" id="Stroke-1032"></path>
                    <path d="M14.5,3.5 L15.5,3.5" id="Stroke-1033"></path>
                    <path d="M18.5,3.5 L19.5,3.5" id="Stroke-1034"></path>
                    <path d="M22.5,3.5 L23.5,3.5" id="Stroke-1035"></path>
                    <path d="M11.5,7.5 L16.5,7.5" id="Stroke-1036"></path>
                    <path d="M16.5,11.5 L15.5,11.5" id="Stroke-1037"></path>
                </g>
            </g>
        </g>
    </g>
</svg>