<?xml version="1.0" encoding="UTF-8"?>
<svg width="26px" height="20px" viewBox="0 0 26 20" version="1.1" xmlns="http://www.w3.org/2000/svg" xmlns:xlink="http://www.w3.org/1999/xlink">
    <!-- Generator: Sketch 42 (36781) - http://www.bohemiancoding.com/sketch -->
    <title>disaster_prevention@2x</title>
    <desc>Created with Sketch.</desc>
    <defs>
        <polygon id="path-1" points="0.00048604698 12.6315789 8.42071497 12.6315789 8.42071497 0.000424342105 0.00048604698 0.000424342105 0.00048604698 12.6315789"></polygon>
    </defs>
    <g id="icons" stroke="none" stroke-width="1" fill="none" fill-rule="evenodd">
        <g id="Desktop-Landscape" transform="translate(-110.000000, -167.000000)">
            <g id="disaster_prevention" transform="translate(110.000000, 167.000000)">
                <path d="M6.84210526,20 C6.76315789,20 6.68315789,19.9821053 6.60631579,19.9442105 C6.34631579,19.8136842 6.24210526,19.4978947 6.37157895,19.2378947 L7.42421053,17.1326316 C7.55473684,16.8736842 7.87052632,16.7684211 8.13052632,16.8978947 C8.39052632,17.0284211 8.49473684,17.3442105 8.36526316,17.6042105 L7.31263158,19.7094737 C7.22,19.8926316 7.03473684,20 6.84210526,20" id="Fill-1" fill="#6D6D6D"></path>
                <path d="M17.3684211,20 C17.2894737,20 17.2094737,19.9821053 17.1326316,19.9442105 C16.8726316,19.8136842 16.7684211,19.4978947 16.8978947,19.2378947 L17.9505263,17.1326316 C18.0810526,16.8736842 18.3968421,16.7684211 18.6568421,16.8978947 C18.9168421,17.0284211 19.0210526,17.3442105 18.8915789,17.6042105 L17.8389474,19.7094737 C17.7463158,19.8926316 17.5610526,20 17.3684211,20" id="Fill-3" fill="#6D6D6D"></path>
                <path d="M6.84210526,15.7894737 C6.76315789,15.7894737 6.68315789,15.7715789 6.60631579,15.7336842 C6.34631579,15.6031579 6.24210526,15.2873684 6.37157895,15.0273684 L7.42421053,12.9221053 C7.55473684,12.6631579 7.87052632,12.5578947 8.13052632,12.6873684 C8.39052632,12.8178947 8.49473684,13.1336842 8.36526316,13.3936842 L7.31263158,15.4989474 C7.22,15.6821053 7.03473684,15.7894737 6.84210526,15.7894737" id="Fill-5" fill="#6D6D6D"></path>
                <path d="M17.3684211,15.7894737 C17.2894737,15.7894737 17.2094737,15.7715789 17.1326316,15.7336842 C16.8726316,15.6031579 16.7684211,15.2873684 16.8978947,15.0273684 L17.9505263,12.9221053 C18.0810526,12.6631579 18.3968421,12.5578947 18.6568421,12.6873684 C18.9168421,12.8178947 19.0210526,13.1336842 18.8915789,13.3936842 L17.8389474,15.4989474 C17.7463158,15.6821053 17.5610526,15.7894737 17.3684211,15.7894737" id="Fill-7" fill="#6D6D6D"></path>
                <g id="Group-11" transform="translate(8.421053, 7.368421)">
                    <mask id="mask-2" fill="white">
                        <use xlink:href="#path-1"></use>
                    </mask>
                    <g id="Clip-10"></g>
                    <path d="M2.48663158,4.98968421 L1.56452632,9.60021053 L3.24663158,7.076 C3.394,6.85389474 3.68452632,6.77705263 3.91926316,6.89705263 L5.46873684,7.67284211 L7.24136842,1.916 L5.18768421,1.23178947 L4.734,5.32126316 C4.714,5.49284211 4.614,5.64336842 4.46242105,5.72547368 C4.30978947,5.80652632 4.12873684,5.81073684 3.97505263,5.73389474 L2.48663158,4.98968421 Z M0.526631579,12.6317895 C0.458210526,12.6317895 0.390842105,12.6181053 0.324526316,12.5917895 C0.0929473684,12.4949474 -0.0386315789,12.2475789 0.0108421053,12.0023158 L1.58978947,4.10757895 C1.62136842,3.94652632 1.72663158,3.80968421 1.874,3.73810526 C2.02136842,3.66547368 2.194,3.66547368 2.34031579,3.74021053 L3.77084211,4.45494737 L4.214,0.467578947 C4.23084211,0.310736842 4.31926316,0.168631579 4.45294737,0.0833684211 C4.58557895,-0.00294736842 4.74978947,-0.0218947368 4.90347368,0.0265263158 L8.06136842,1.07915789 C8.33294737,1.16968421 8.48136842,1.46021053 8.39715789,1.73389474 L6.29189474,8.576 C6.24663158,8.72336842 6.13926316,8.84442105 5.99610526,8.90547368 C5.85294737,8.96442105 5.69189474,8.96021053 5.554,8.89178947 L3.86452632,8.04652632 L0.964526316,12.3970526 C0.864526316,12.5475789 0.698210526,12.6317895 0.526631579,12.6317895 L0.526631579,12.6317895 Z" id="Fill-9" fill="#6D6D6D" mask="url(#mask-2)"></path>
                </g>
                <path d="M19.4736842,15.7894737 C19.1831579,15.7894737 18.9473684,15.5536842 18.9473684,15.2631579 C18.9473684,14.9726316 19.1831579,14.7368421 19.4736842,14.7368421 C22.0852632,14.7368421 24.2105263,12.6115789 24.2105263,10 C24.2105263,7.38842105 22.0852632,5.26315789 19.4736842,5.26315789 C19.0147368,5.26315789 18.5336842,5.34736842 18.0021053,5.52210526 C17.7463158,5.60736842 17.4621053,5.47894737 17.3547368,5.22736842 C16.28,2.69157895 13.8063158,1.05263158 11.0526316,1.05263158 C7.61368421,1.05263158 4.69789474,3.62526316 4.27052632,7.03789474 C4.24315789,7.25473684 4.08421053,7.43263158 3.87157895,7.48315789 C2.21263158,7.88421053 1.05263158,9.35263158 1.05263158,11.0526316 C1.05263158,13.0842105 2.70526316,14.7368421 4.73684211,14.7368421 C5.02736842,14.7368421 5.26315789,14.9726316 5.26315789,15.2631579 C5.26315789,15.5536842 5.02736842,15.7894737 4.73684211,15.7894737 C2.12526316,15.7894737 0,13.6642105 0,11.0526316 C0,8.98526316 1.33052632,7.18526316 3.27684211,6.55684211 C3.92,2.79473684 7.20210526,0 11.0526316,0 C14.0726316,0 16.8,1.70736842 18.1284211,4.38947368 C18.5957895,4.26947368 19.04,4.21052632 19.4736842,4.21052632 C22.6652632,4.21052632 25.2631579,6.80842105 25.2631579,10 C25.2631579,13.1915789 22.6652632,15.7894737 19.4736842,15.7894737" id="Fill-12" fill="#6D6D6D"></path>
                <path d="M12.1052632,20 C12.0263158,20 11.9463158,19.9821053 11.8694737,19.9442105 C11.6094737,19.8136842 11.5052632,19.4978947 11.6347368,19.2378947 L12.6873684,17.1326316 C12.8189474,16.8736842 13.1336842,16.7684211 13.3936842,16.8978947 C13.6536842,17.0284211 13.7578947,17.3442105 13.6284211,17.6042105 L12.5757895,19.7094737 C12.4831579,19.8926316 12.2978947,20 12.1052632,20" id="Fill-14" fill="#6D6D6D"></path>
            </g>
        </g>
    </g>
</svg>