<?xml version="1.0" encoding="UTF-8"?>
<svg width="20px" height="20px" viewBox="0 0 20 20" version="1.1" xmlns="http://www.w3.org/2000/svg" xmlns:xlink="http://www.w3.org/1999/xlink">
    <!-- Generator: Sketch 42 (36781) - http://www.bohemiancoding.com/sketch -->
    <title>Agriculture@2x</title>
    <desc>Created with Sketch.</desc>
    <defs>
        <polygon id="path-1" points="0 5.45381818 0 0.000181818182 5.4525 0.000181818182 5.4525 5.45381818 2.00725248e-16 5.45381818"></polygon>
    </defs>
    <g id="icons" stroke="none" stroke-width="1" fill="none" fill-rule="evenodd">
        <g id="Desktop-Landscape" transform="translate(-240.000000, -164.000000)">
            <g id="Agriculture" transform="translate(240.000000, 164.000000)">
                <g id="social_infrastructure-copy" transform="translate(0.000000, 10.909091)" fill="#6D6D6D">
                    <g id="Group-2">
                        <g id="Water&amp;Sanitation-Copy">
                            <path d="M0.727272727,6.92465455 L2.28,6.92465455 C2.55054545,6.07010909 3.42254545,3.24101818 3.616,1.64829091 C3.15781818,1.42574545 1.896,1.22501818 0.727272727,1.13265455 L0.727272727,6.92465455 Z M2.54545455,7.65192727 L0.363636364,7.65192727 C0.162909091,7.65192727 0,7.48901818 0,7.28829091 L0,0.742836364 C0,0.642472727 0.0414545455,0.546472727 0.114181818,0.478109091 C0.186909091,0.410472727 0.280727273,0.377745455 0.385454545,0.379927273 C1.13454545,0.424290909 3.62690909,0.615563636 4.25018182,1.20610909 C4.33090909,1.28247273 4.37163636,1.39156364 4.36218182,1.50210909 C4.19709091,3.39301818 2.944,7.23883636 2.89090909,7.40101818 C2.84218182,7.55083636 2.70254545,7.65192727 2.54545455,7.65192727 L2.54545455,7.65192727 Z" id="Fill-1"></path>
                            <path d="M9.74218182,9.08378182 C9.268,9.08378182 8.84618182,8.94996364 8.23527273,8.71941818 L2.79381818,6.90632727 C2.604,6.84232727 2.50072727,6.63650909 2.564,6.44596364 C2.628,6.25541818 2.83236364,6.15141818 3.02436364,6.21614545 L8.47890909,8.03432727 C9.78872727,8.5296 9.89418182,8.5696 12.9530909,7.31505455 L16.5581818,5.67650909 C16.1567273,5.18923636 15.5101818,4.96523636 14.8745455,5.12669091 L12.0883636,5.82341818 C11.8934545,5.86996364 11.6963636,5.75287273 11.6476364,5.55796364 C11.5981818,5.36378182 11.7167273,5.16596364 11.9116364,5.11723636 L14.6978182,4.42050909 C15.7930909,4.14923636 16.9109091,4.66123636 17.4163636,5.67141818 C17.46,5.75941818 17.4665455,5.86196364 17.4338182,5.95505455 C17.4003636,6.04814545 17.3312727,6.12450909 17.2418182,6.16450909 L13.2418182,7.98269091 C11.3436364,8.7616 10.4796364,9.08378182 9.74218182,9.08378182" id="Fill-3"></path>
                            <path d="M10.4914909,6.14269091 C10.3234909,6.14269091 10.1562182,6.12669091 9.99330909,6.09396364 L6.83767273,5.46341818 C6.64058182,5.42414545 6.51330909,5.23214545 6.55258182,5.03578182 C6.59185455,4.83796364 6.77949091,4.70632727 6.98021818,4.74996364 L10.1358545,5.38050909 C10.3984,5.4336 10.6740364,5.42705455 10.9329455,5.3616 L11.6311273,5.18778182 C11.5867636,4.52305455 11.2624,4.20596364 10.4573091,4.00523636 L3.92130909,2.55287273 C3.72494545,2.50850909 3.60130909,2.31432727 3.64494545,2.11869091 C3.68858182,1.92232727 3.88494545,1.80450909 4.07912727,1.84232727 L10.6245818,3.29687273 C11.8296727,3.59723636 12.3634909,4.23141818 12.3634909,5.35505455 L12.3634909,5.46996364 C12.3634909,5.63723636 12.2500364,5.78269091 12.0878545,5.82341818 L11.1096727,6.06705455 C10.9082182,6.11723636 10.6994909,6.14269091 10.4914909,6.14269091" id="Fill-5"></path>
                        </g>
                    </g>
                </g>
                <g id="Page-1" transform="translate(1.818182, 0.000000)">
                    <path d="M15.8858182,1.84663636 C13.0867273,2.01754545 10.6094545,2.95481818 9.13763636,4.42754545 C8.52036364,5.04390909 8.18127273,5.863 8.18127273,6.73572727 C8.18127273,7.60754545 8.52036364,8.42754545 9.13763636,9.04390909 C10.3721818,10.2766364 12.5203636,10.2766364 13.754,9.04390909 C14.3258182,8.47209091 14.5394545,7.17572727 14.7649091,5.803 C14.9858182,4.45754545 15.2303636,2.97118182 15.8858182,1.84663636 M11.4458182,10.9093636 C10.3312727,10.9093636 9.28309091,10.4748182 8.49490909,9.68663636 C7.70672727,8.89845455 7.27218182,7.85027273 7.27218182,6.73572727 C7.27218182,5.62027273 7.70672727,4.573 8.49490909,3.78481818 C10.2958182,1.98390909 13.4067273,0.909363636 16.8176364,0.909363636 C17.0021818,0.909363636 17.1676364,1.01936364 17.2376364,1.18936364 C17.3076364,1.35936364 17.2685455,1.55481818 17.1394545,1.68481818 C16.2103636,2.61390909 15.9312727,4.31027273 15.6621818,5.95027273 C15.4121818,7.47118182 15.1758182,8.90845455 14.3967273,9.68663636 C13.6085455,10.4748182 12.5612727,10.9093636 11.4458182,10.9093636" id="Fill-3" fill="#6D6D6D"></path>
                    <g id="Group-7">
                        <mask id="mask-2" fill="white">
                            <use xlink:href="#path-1"></use>
                        </mask>
                        <g id="Clip-6"></g>
                        <path d="M1.30045455,0.957454545 C1.515,1.482 1.61409091,2.08290909 1.705,2.63745455 C1.80772727,3.25836364 1.91227273,3.90018182 2.14681818,4.13381818 C2.69590909,4.682 3.58681818,4.68109091 4.13409091,4.13381818 C4.68136364,3.58654545 4.68136364,2.69472727 4.13409091,2.14745455 C3.50590909,1.51836364 2.48136364,1.09472727 1.30045455,0.957454545 M3.13954545,5.45381818 C2.54772727,5.45381818 1.955,5.22836364 1.50409091,4.77654545 C1.06227273,4.33563636 0.939545455,3.58290909 0.807727273,2.78472727 C0.678636364,2.00018182 0.545909091,1.18836364 0.133181818,0.775636364 C0.00318181818,0.645636364 -0.0359090909,0.450181818 0.0340909091,0.280181818 C0.105,0.110181818 0.270454545,0.000181818182 0.454090909,0.000181818182 C2.245,0.000181818182 3.82045455,0.548363636 4.77681818,1.50472727 C5.67772727,2.40654545 5.67772727,3.87472727 4.77681818,4.77654545 C4.32590909,5.22745455 3.73318182,5.45381818 3.13954545,5.45381818" id="Fill-5" fill="#6D6D6D" mask="url(#mask-2)"></path>
                    </g>
                    <path d="M7.72709091,13.6363636 C7.51981818,13.6363636 7.338,13.4963636 7.28709091,13.2945455 C6.77345455,11.2890909 5.20709091,5.85 4.13436364,4.77636364 C3.95618182,4.59909091 3.95618182,4.31181818 4.13436364,4.13363636 C4.31163636,3.95636364 4.59981818,3.95636364 4.77709091,4.13363636 C5.848,5.20454545 7.088,9.18363636 7.73709091,11.4781818 C8.31527273,9.79818182 9.54254545,7.08727273 11.9507273,4.67818182 C12.1289091,4.50090909 12.4161818,4.50090909 12.5934545,4.67818182 C12.7716364,4.85636364 12.7716364,5.14363636 12.5934545,5.32181818 C9.04072727,8.87454545 8.18163636,13.2227273 8.17345455,13.2663636 C8.13345455,13.4754545 7.95436364,13.6290909 7.74163636,13.6354545 C7.73709091,13.6363636 7.73163636,13.6363636 7.72709091,13.6363636" id="Fill-8" fill="#6D6D6D"></path>
                </g>
            </g>
        </g>
    </g>
</svg>