<?xml version="1.0" encoding="UTF-8"?>
<svg width="22px" height="20px" viewBox="0 0 22 20" version="1.1" xmlns="http://www.w3.org/2000/svg" xmlns:xlink="http://www.w3.org/1999/xlink">
    <!-- Generator: Sketch 42 (36781) - http://www.bohemiancoding.com/sketch -->
    <title>Page 1@2x</title>
    <desc>Created with Sketch.</desc>
    <defs></defs>
    <g id="icons" stroke="none" stroke-width="1" fill="none" fill-rule="evenodd">
        <g id="Desktop-Landscape" transform="translate(-207.000000, -215.000000)" fill="#6D6D6D">
            <g id="Page-1" transform="translate(207.000000, 215.000000)">
                <path d="M21.3636364,13.6363636 L0.454545455,13.6363636 C0.203636364,13.6363636 0,13.4327273 0,13.1818182 C0,12.9309091 0.203636364,12.7272727 0.454545455,12.7272727 L21.3636364,12.7272727 C21.6145455,12.7272727 21.8181818,12.9309091 21.8181818,13.1818182 C21.8181818,13.4327273 21.6145455,13.6363636 21.3636364,13.6363636" id="Fill-1"></path>
                <path d="M9.54545455,15.4545455 L5.90909091,15.4545455 C5.65818182,15.4545455 5.45454545,15.2509091 5.45454545,15 C5.45454545,14.7490909 5.65818182,14.5454545 5.90909091,14.5454545 L9.54545455,14.5454545 C9.79636364,14.5454545 10,14.7490909 10,15 C10,15.2509091 9.79636364,15.4545455 9.54545455,15.4545455" id="Fill-3"></path>
                <path d="M16.8181818,16.3636364 L13.1818182,16.3636364 C12.9309091,16.3636364 12.7272727,16.16 12.7272727,15.9090909 C12.7272727,15.6581818 12.9309091,15.4545455 13.1818182,15.4545455 L16.8181818,15.4545455 C17.0690909,15.4545455 17.2727273,15.6581818 17.2727273,15.9090909 C17.2727273,16.16 17.0690909,16.3636364 16.8181818,16.3636364" id="Fill-5"></path>
                <path d="M11.3636364,18.1818182 L8.63636364,18.1818182 C8.38545455,18.1818182 8.18181818,17.9781818 8.18181818,17.7272727 C8.18181818,17.4763636 8.38545455,17.2727273 8.63636364,17.2727273 L11.3636364,17.2727273 C11.6145455,17.2727273 11.8181818,17.4763636 11.8181818,17.7272727 C11.8181818,17.9781818 11.6145455,18.1818182 11.3636364,18.1818182" id="Fill-7"></path>
                <path d="M4.10863636,15.4545455 C3.85863636,15.4545455 3.64954545,15.2509091 3.64954545,15 C3.64954545,14.7490909 3.84863636,14.5454545 4.09954545,14.5454545 L4.10863636,14.5454545 C4.35954545,14.5454545 4.56318182,14.7490909 4.56318182,15 C4.56318182,15.2509091 4.35954545,15.4545455 4.10863636,15.4545455" id="Fill-9"></path>
                <path d="M11.3813636,16.3636364 C11.1313636,16.3636364 10.9222727,16.16 10.9222727,15.9090909 C10.9222727,15.6581818 11.1213636,15.4545455 11.3722727,15.4545455 L11.3813636,15.4545455 C11.6322727,15.4545455 11.8359091,15.6581818 11.8359091,15.9090909 C11.8359091,16.16 11.6322727,16.3636364 11.3813636,16.3636364" id="Fill-11"></path>
                <path d="M13.1995455,18.1818182 C12.9495455,18.1818182 12.7404545,17.9781818 12.7404545,17.7272727 C12.7404545,17.4763636 12.9395455,17.2727273 13.1904545,17.2727273 L13.1995455,17.2727273 C13.4504545,17.2727273 13.6540909,17.4763636 13.6540909,17.7272727 C13.6540909,17.9781818 13.4504545,18.1818182 13.1995455,18.1818182" id="Fill-13"></path>
                <path d="M6.83590909,18.1818182 C6.58590909,18.1818182 6.37681818,17.9781818 6.37681818,17.7272727 C6.37681818,17.4763636 6.57590909,17.2727273 6.82681818,17.2727273 L6.83590909,17.2727273 C7.08681818,17.2727273 7.29045455,17.4763636 7.29045455,17.7272727 C7.29045455,17.9781818 7.08681818,18.1818182 6.83590909,18.1818182" id="Fill-15"></path>
                <path d="M9.56318182,20 C9.31318182,20 9.10409091,19.7963636 9.10409091,19.5454545 C9.10409091,19.2945455 9.30318182,19.0909091 9.55409091,19.0909091 L9.56318182,19.0909091 C9.81409091,19.0909091 10.0177273,19.2945455 10.0177273,19.5454545 C10.0177273,19.7963636 9.81409091,20 9.56318182,20" id="Fill-17"></path>
                <path d="M11.3813636,20 C11.1313636,20 10.9222727,19.7963636 10.9222727,19.5454545 C10.9222727,19.2945455 11.1213636,19.0909091 11.3722727,19.0909091 L11.3813636,19.0909091 C11.6322727,19.0909091 11.8359091,19.2945455 11.8359091,19.5454545 C11.8359091,19.7963636 11.6322727,20 11.3813636,20" id="Fill-19"></path>
                <path d="M13.1995455,20 C12.9495455,20 12.7404545,19.7963636 12.7404545,19.5454545 C12.7404545,19.2945455 12.9395455,19.0909091 13.1904545,19.0909091 L13.1995455,19.0909091 C13.4504545,19.0909091 13.6540909,19.2945455 13.6540909,19.5454545 C13.6540909,19.7963636 13.4504545,20 13.1995455,20" id="Fill-21"></path>
                <path d="M19.5454545,3.63636364 C19.4590909,3.63636364 19.3736364,3.61181818 19.2972727,3.56272727 C18.6454545,3.13727273 17.9072727,2.74636364 17.7181818,2.72636364 C17.4672727,2.72636364 17.2681818,2.52363636 17.2681818,2.27272727 C17.2681818,2.02181818 17.4763636,1.81818182 17.7272727,1.81818182 C18.1427273,1.81818182 18.9409091,2.26454545 19.5163636,2.62363636 C19.9190909,2.32090909 20.6890909,1.81818182 21.3636364,1.81818182 C21.6145455,1.81818182 21.8181818,2.02181818 21.8181818,2.27272727 C21.8181818,2.52363636 21.6145455,2.72727273 21.3636364,2.72727273 C20.9118182,2.72727273 20.1436364,3.26545455 19.8427273,3.52545455 C19.7572727,3.59909091 19.6518182,3.63636364 19.5454545,3.63636364" id="Fill-23"></path>
                <path d="M10.4545455,4.54545455 C8.7,4.54545455 7.27272727,5.97272727 7.27272727,7.72727273 C7.27272727,9.48181818 8.7,10.9090909 10.4545455,10.9090909 C12.2090909,10.9090909 13.6363636,9.48181818 13.6363636,7.72727273 C13.6363636,5.97272727 12.2090909,4.54545455 10.4545455,4.54545455 M10.4545455,11.8181818 C8.19909091,11.8181818 6.36363636,9.98272727 6.36363636,7.72727273 C6.36363636,5.47181818 8.19909091,3.63636364 10.4545455,3.63636364 C12.71,3.63636364 14.5454545,5.47181818 14.5454545,7.72727273 C14.5454545,9.98272727 12.71,11.8181818 10.4545455,11.8181818" id="Fill-25"></path>
                <path d="M10.4545455,2.72727273 C10.2036364,2.72727273 10,2.52363636 10,2.27272727 L10,0.454545455 C10,0.203636364 10.2036364,0 10.4545455,0 C10.7054545,0 10.9090909,0.203636364 10.9090909,0.454545455 L10.9090909,2.27272727 C10.9090909,2.52363636 10.7054545,2.72727273 10.4545455,2.72727273" id="Fill-27"></path>
                <path d="M7.72727273,3.45790909 C7.57090909,3.45790909 7.41727273,3.377 7.33363636,3.23063636 L6.42454545,1.65609091 C6.29909091,1.43881818 6.37363636,1.16063636 6.59090909,1.03518182 C6.80818182,0.909727273 7.08727273,0.983363636 7.21181818,1.20154545 L8.12090909,2.77609091 C8.24636364,2.99336364 8.17181818,3.27154545 7.95454545,3.397 C7.88272727,3.43881818 7.80454545,3.45790909 7.72727273,3.45790909" id="Fill-29"></path>
                <path d="M5.73063636,5.45454545 C5.65336364,5.45454545 5.57518182,5.43545455 5.50336364,5.39363636 L3.92972727,4.48454545 C3.71154545,4.35909091 3.637,4.08090909 3.76336364,3.86363636 C3.88881818,3.64545455 4.167,3.57363636 4.38427273,3.69727273 L5.95790909,4.60636364 C6.17518182,4.73181818 6.24972727,5.01 6.12427273,5.22727273 C6.04063636,5.37363636 5.887,5.45454545 5.73063636,5.45454545" id="Fill-31"></path>
                <path d="M16.7524545,11.8181818 C16.6751818,11.8181818 16.597,11.7990909 16.5251818,11.7572727 L14.9515455,10.8481818 C14.7333636,10.7227273 14.6588182,10.4445455 14.7851818,10.2272727 C14.9106364,10.0090909 15.1897273,9.93636364 15.4060909,10.0609091 L16.9797273,10.97 C17.197,11.0954545 17.2715455,11.3736364 17.1460909,11.5909091 C17.0624545,11.7372727 16.9088182,11.8181818 16.7524545,11.8181818" id="Fill-33"></path>
                <path d="M5,8.18181818 L3.18181818,8.18181818 C2.93090909,8.18181818 2.72727273,7.97818182 2.72727273,7.72727273 C2.72727273,7.47636364 2.93090909,7.27272727 3.18181818,7.27272727 L5,7.27272727 C5.25090909,7.27272727 5.45454545,7.47636364 5.45454545,7.72727273 C5.45454545,7.97818182 5.25090909,8.18181818 5,8.18181818" id="Fill-35"></path>
                <path d="M17.7272727,8.18181818 L15.9090909,8.18181818 C15.6581818,8.18181818 15.4545455,7.97818182 15.4545455,7.72727273 C15.4545455,7.47636364 15.6581818,7.27272727 15.9090909,7.27272727 L17.7272727,7.27272727 C17.9781818,7.27272727 18.1818182,7.47636364 18.1818182,7.72727273 C18.1818182,7.97818182 17.9781818,8.18181818 17.7272727,8.18181818" id="Fill-37"></path>
                <path d="M4.15663636,11.8181818 C4.00027273,11.8181818 3.84663636,11.7372727 3.763,11.5909091 C3.63754545,11.3736364 3.71209091,11.0954545 3.92936364,10.97 L5.503,10.0609091 C5.72027273,9.93545455 5.99845455,10.0081818 6.12390909,10.2272727 C6.25027273,10.4445455 6.17572727,10.7227273 5.95754545,10.8481818 L4.38390909,11.7572727 C4.31209091,11.7990909 4.23390909,11.8181818 4.15663636,11.8181818" id="Fill-39"></path>
                <path d="M15.1784545,5.45454545 C15.0220909,5.45454545 14.8684545,5.37363636 14.7848182,5.22727273 C14.6593636,5.01 14.7339091,4.73181818 14.9511818,4.60636364 L16.5248182,3.69727273 C16.7420909,3.57181818 17.0202727,3.64545455 17.1457273,3.86363636 C17.2720909,4.08090909 17.1975455,4.35909091 16.9793636,4.48454545 L15.4057273,5.39363636 C15.3339091,5.43545455 15.2557273,5.45454545 15.1784545,5.45454545" id="Fill-41"></path>
                <path d="M13.1818182,3.45790909 C13.1045455,3.45790909 13.0263636,3.43881818 12.9545455,3.397 C12.7372727,3.27154545 12.6627273,2.99336364 12.7881818,2.77609091 L13.6972727,1.20154545 C13.8227273,0.984272727 14.1018182,0.911545455 14.3181818,1.03518182 C14.5354545,1.16063636 14.61,1.43881818 14.4845455,1.65609091 L13.5754545,3.23063636 C13.4918182,3.377 13.3381818,3.45790909 13.1818182,3.45790909" id="Fill-43"></path>
            </g>
        </g>
    </g>
</svg>