<?xml version="1.0" encoding="UTF-8"?>
<svg width="28px" height="24px" viewBox="0 0 28 24" version="1.1" xmlns="http://www.w3.org/2000/svg" xmlns:xlink="http://www.w3.org/1999/xlink">
    <!-- Generator: Sketch 49.2 (51160) - http://www.bohemiancoding.com/sketch -->
    <title>Group 138</title>
    <desc>Created with Sketch.</desc>
    <defs></defs>
    <g id="Page-1" stroke="none" stroke-width="1" fill="none" fill-rule="evenodd" stroke-linecap="round" stroke-linejoin="round">
        <g id="-Icon54---30x_Grid_set_2_Smart_Stroke" transform="translate(-540.000000, -3376.000000)" stroke="#000000">
            <g id="Network-" transform="translate(179.000000, 3326.000000)">
                <g id="Group-138" transform="translate(361.000000, 51.181000)">
                    <path d="M19.525,5.3188 C18.454,2.3108 16.605,0.3188 14.5,0.3188 C12.395,0.3188 10.546,2.3108 9.475,5.3188 L19.525,5.3188 L19.525,5.3188 Z" id="Stroke-128"></path>
                    <path d="M9.1603,16.3188 C10.1543,19.8778 12.1693,22.3188 14.5003,22.3188 C16.8303,22.3188 18.8463,19.8778 19.8393,16.3188 L9.1603,16.3188 L9.1603,16.3188 Z" id="Stroke-130"></path>
                    <path d="M23.7126,5.3188 C21.7496,2.3108 18.3596,0.3188 14.4996,0.3188 C10.6396,0.3188 7.2506,2.3108 5.2876,5.3188 L23.7126,5.3188 L23.7126,5.3188 Z" id="Stroke-132"></path>
                    <path d="M4.7104,16.3188 C6.5324,19.8778 10.2274,22.3188 14.5004,22.3188 C18.7724,22.3188 22.4684,19.8778 24.2894,16.3188 L4.7104,16.3188 L4.7104,16.3188 Z" id="Stroke-134"></path>
                    <path d="M25.5,16.3188 L2.5,16.3188 C1.395,16.3188 0.5,15.4238 0.5,14.3188 L0.5,7.3188 C0.5,6.2138 1.395,5.3188 2.5,5.3188 L25.5,5.3188 C26.605,5.3188 27.5,6.2138 27.5,7.3188 L27.5,14.3188 C27.5,15.4238 26.605,16.3188 25.5,16.3188 L25.5,16.3188 Z" id="Stroke-136"></path>
                    <polyline id="Stroke-123" points="3.5 8.3188 4.5 13.3188 6 10.3188 7.5 13.3188 8.5 8.3188"></polyline>
                    <polyline id="Stroke-124" points="11.5 8.3188 12.5 13.3188 14 10.3188 15.5 13.3188 16.5 8.3188"></polyline>
                    <polyline id="Stroke-125" points="19.5 8.3188 20.5 13.3188 22 10.3188 23.5 13.3188 24.5 8.3188"></polyline>
                    <path d="M14.5,0.3188 L14.5,5.3188" id="Stroke-126"></path>
                    <path d="M14.5,16.8188 L14.5,21.8188" id="Stroke-127"></path>
                </g>
            </g>
        </g>
    </g>
</svg>