<?xml version="1.0" encoding="UTF-8"?>
<svg width="7px" height="10px" viewBox="0 0 7 10" version="1.1" xmlns="http://www.w3.org/2000/svg" xmlns:xlink="http://www.w3.org/1999/xlink">
    <!-- Generator: Sketch 51.3 (57544) - http://www.bohemiancoding.com/sketch -->
    <title>mosaic_Fill 54</title>
    <desc>Created with Sketch.</desc>
    <defs></defs>
    <g id="Page-1" stroke="none" stroke-width="1" fill="none" fill-rule="evenodd">
        <g id="Project-List/Filters-A-Copy-4" transform="translate(-1125.000000, -231.000000)" fill="#2E4369">
            <path d="M1128.1663,240.890667 C1128.25831,240.97085 1128.38026,241.005159 1128.5,240.999377 C1128.61974,241.005159 1128.74169,240.97085 1128.8337,240.890667 L1131.8709,238.231131 C1132.04303,238.080402 1132.04303,237.835998 1131.8709,237.685654 C1131.69921,237.535311 1131.4201,237.535311 1131.24796,237.685654 L1128.94024,239.706809 L1128.94024,231.385496 C1128.94024,231.172317 1128.74345,231 1128.5,231 C1128.25699,231 1128.05976,231.172317 1128.05976,231.385496 L1128.05976,239.706809 L1125.7516,237.685654 C1125.5799,237.535311 1125.30079,237.535311 1125.1291,237.685654 C1124.95697,237.835998 1124.95697,238.080402 1125.1291,238.231131" id="Fill-54"></path>
        </g>
    </g>
</svg>