<?xml version="1.0" encoding="UTF-8"?>
<svg width="22px" height="17px" viewBox="0 0 22 17" version="1.1" xmlns="http://www.w3.org/2000/svg" xmlns:xlink="http://www.w3.org/1999/xlink">
    <!-- Generator: Sketch 43.2 (39069) - http://www.bohemiancoding.com/sketch -->
    <title>Group 16</title>
    <desc>Created with Sketch.</desc>
    <defs></defs>
    <g id="Approval-Process---Ministry" stroke="none" stroke-width="1" fill="none" fill-rule="evenodd" stroke-linecap="round" stroke-linejoin="round">
        <g id="Activity-Editor-Review---Ministry" transform="translate(-369.000000, -535.000000)" stroke="#000000">
            <g id="Chat" transform="translate(369.000000, 533.000000)">
                <g id="Group-16" transform="translate(0.000000, 2.000000)">
                    <path d="M13.3323891,0.5 L2.64488906,0.5 C1.66074844,0.5 0.863639063,1.395 0.863639063,2.5 L0.863639063,9.5 C0.863639063,10.605 1.66074844,11.5 2.64488906,11.5 L2.84438906,11.5 C2.40709219,12.25 1.83798281,12.952 1.83798281,12.952 L1.83887344,12.953 C1.78721719,13.011 1.75426406,13.088 1.75426406,13.173 C1.75426406,13.352 1.89320156,13.498 2.06420156,13.498 C2.11496719,13.498 5.17782656,12.997 6.64913906,11.5 L13.3323891,11.5 C14.3165297,11.5 15.1136391,10.605 15.1136391,9.5 L15.1136391,2.5 C15.1136391,1.395 14.3165297,0.5 13.3323891,0.5 L13.3323891,0.5 Z" id="Stroke-12"></path>
                    <path d="M16.8948891,3.5 L19.5667641,3.502 C20.5509047,3.502 21.3480141,4.397 21.3480141,5.502 L21.3480141,12.502 C21.3480141,13.607 20.5509047,14.502 19.5667641,14.502 L19.3672641,14.502 C19.8045609,15.252 20.3736703,15.954 20.3736703,15.954 L20.3727797,15.955 C20.4244359,16.013 20.4573891,16.09 20.4573891,16.175 C20.4573891,16.354 20.3184516,16.5 20.1474516,16.5 C20.0966859,16.5 17.0338266,15.999 15.5625141,14.502 L8.87926406,14.502 C8.21842031,14.502 7.64129531,14.098 7.33402969,13.497" id="Stroke-14"></path>
                </g>
            </g>
        </g>
    </g>
</svg>