<?xml version="1.0" encoding="UTF-8"?>
<svg width="16px" height="24px" viewBox="0 0 16 24" version="1.1" xmlns="http://www.w3.org/2000/svg" xmlns:xlink="http://www.w3.org/1999/xlink">
    <!-- Generator: Sketch 52.2 (67145) - http://www.bohemiancoding.com/sketch -->
    <title>Lock</title>
    <desc>Created with Sketch.</desc>
    <g id="IATI-Synchronisation" stroke="none" stroke-width="1" fill="none" fill-rule="evenodd">
        <g id="Transactiom-editor---locked" transform="translate(-1015.000000, -295.000000)" fill="#ADB2B4">
            <g id="Lock" transform="translate(1015.000000, 295.000000)">
                <path d="M14.5,12 C14.224,12 14,11.78 14,11.5 L14,7 C14,3.692 11.309,1 8,1 C4.691,1 2,3.692 2,7 L2,11.5 C2,11.78 1.776,12 1.5,12 C1.224,12 1,11.78 1,11.5 L1,7 C1,3.141 4.141,0 8,0 C11.859,0 15,3.141 15,7 L15,11.5 C15,11.78 14.776,12 14.5,12" id="Fill-2726"></path>
                <path d="M12.5,12 C12.224,12 12,11.78 12,11.5 L12,7 C12,4.795 10.206,3 8,3 C5.794,3 4,4.795 4,7 L4,11.5 C4,11.78 3.776,12 3.5,12 C3.224,12 3,11.78 3,11.5 L3,7 C3,4.244 5.243,2 8,2 C10.757,2 13,4.244 13,7 L13,11.5 C13,11.78 12.776,12 12.5,12" id="Fill-2727"></path>
                <path d="M1.5,12 C1.225,12 1,12.22 1,12.5 L1,21.5 C1,22.33 1.673,23 2.5,23 L13.5,23 C14.327,23 15,22.33 15,21.5 L15,12.5 C15,12.22 14.775,12 14.5,12 L1.5,12 L1.5,12 Z M13.5,24 L2.5,24 C1.121,24 0,22.88 0,21.5 L0,12.5 C0,11.67 0.673,11 1.5,11 L14.5,11 C15.327,11 16,11.67 16,12.5 L16,21.5 C16,22.88 14.879,24 13.5,24 L13.5,24 Z" id="Fill-2728"></path>
                <path d="M7.193,19 L8.807,19 L8.287,17.44 C8.213,17.22 8.304,16.98 8.506,16.86 C8.815,16.67 9,16.35 9,16 C9,15.45 8.552,15 8,15 C7.448,15 7,15.45 7,16 C7,16.35 7.185,16.67 7.494,16.86 C7.696,16.98 7.787,17.22 7.713,17.44 L7.193,19 L7.193,19 Z M9.5,20 L6.5,20 C6.339,20 6.188,19.92 6.095,19.79 C6,19.66 5.975,19.49 6.025,19.34 L6.649,17.47 C6.237,17.1 6,16.57 6,16 C6,14.9 6.897,14 8,14 C9.103,14 10,14.9 10,16 C10,16.57 9.763,17.1 9.351,17.47 L9.975,19.34 C10.025,19.49 10,19.66 9.905,19.79 C9.812,19.92 9.661,20 9.5,20 L9.5,20 Z" id="Fill-2729"></path>
            </g>
        </g>
    </g>
</svg>