<?xml version="1.0" encoding="UTF-8"?>
<svg width="30px" height="40px" viewBox="0 0 30 40" version="1.1" xmlns="http://www.w3.org/2000/svg" xmlns:xlink="http://www.w3.org/1999/xlink">
    <!-- Generator: Sketch 42 (36781) - http://www.bohemiancoding.com/sketch -->
    <title>Group 12</title>
    <desc>Created with Sketch.</desc>
    <defs></defs>
    <g id="Page-1" stroke="none" stroke-width="1" fill="none" fill-rule="evenodd">
        <g id="Group-12" fill="#5E5E5E">
            <path d="M1.86840394,37.6554661 L27.8751858,37.6554661 L27.8751858,2.34453386 L11.1446979,2.34453386 L1.86840394,11.9457445 L1.86840394,37.6554661 L1.86840394,37.6554661 Z M28.6878977,39.3369391 L1.05569201,39.3369391 C0.607075019,39.3369391 0.242980072,38.9670151 0.242980072,38.4962026 L0.242980072,11.5926352 C0.242980072,11.3740437 0.329127537,11.1554522 0.480291957,11.0041196 L10.2328352,0.915281842 C10.385625,0.747134546 10.5920538,0.663060897 10.8082352,0.663060897 L28.6878977,0.663060897 C29.1365147,0.663060897 29.5006097,1.03298495 29.5006097,1.50379738 L29.5006097,38.4962026 C29.5006097,38.9670151 29.1365147,39.3369391 28.6878977,39.3369391 L28.6878977,39.3369391 Z" id="Fill-6004"></path>
            <path d="M10.8082352,12.4333717 L1.05569201,12.4333717 C0.607075019,12.4333717 0.242980072,12.0634476 0.242980072,11.5926352 C0.242980072,11.1218227 0.607075019,10.7518987 1.05569201,10.7518987 L9.99552327,10.7518987 L9.99552327,1.50379738 C9.99552327,1.03298495 10.3596182,0.663060897 10.8082352,0.663060897 C11.2568522,0.663060897 11.6209471,1.03298495 11.6209471,1.50379738 L11.6209471,11.5926352 C11.6209471,12.0634476 11.2568522,12.4333717 10.8082352,12.4333717" id="Fill-6005"></path>
            <path d="M6.74467554,32.6110472 L22.9989142,32.6110472 L22.9989142,17.4777906 L6.74467554,17.4777906 L6.74467554,32.6110472 Z M23.8116261,34.2925202 L5.93196361,34.2925202 C5.48334662,34.2925202 5.11925167,33.9225962 5.11925167,33.4517837 L5.11925167,16.6370541 C5.11925167,16.1662416 5.48334662,15.7963176 5.93196361,15.7963176 L23.8116261,15.7963176 C24.2602431,15.7963176 24.6243381,16.1662416 24.6243381,16.6370541 L24.6243381,33.4517837 C24.6243381,33.9225962 24.2602431,34.2925202 23.8116261,34.2925202 L23.8116261,34.2925202 Z" id="Fill-6006"></path>
            <path d="M10.8082352,34.2925202 C10.3596182,34.2925202 9.99552327,33.9225962 9.99552327,33.4517837 L9.99552327,16.6370541 C9.99552327,16.1662416 10.3596182,15.7963176 10.8082352,15.7963176 C11.2568522,15.7963176 11.6209471,16.1662416 11.6209471,16.6370541 L11.6209471,33.4517837 C11.6209471,33.9225962 11.2568522,34.2925202 10.8082352,34.2925202" id="Fill-6007"></path>
            <path d="M17.3099307,34.2925202 C16.8613137,34.2925202 16.4972187,33.9225962 16.4972187,33.4517837 L16.4972187,16.6370541 C16.4972187,16.1662416 16.8613137,15.7963176 17.3099307,15.7963176 C17.7585477,15.7963176 18.1226426,16.1662416 18.1226426,16.6370541 L18.1226426,33.4517837 C18.1226426,33.9225962 17.7585477,34.2925202 17.3099307,34.2925202" id="Fill-6008"></path>
            <path d="M23.8116261,20.8407365 L5.93196361,20.8407365 C5.48334662,20.8407365 5.11925167,20.4708124 5.11925167,20 C5.11925167,19.5291876 5.48334662,19.1592635 5.93196361,19.1592635 L23.8116261,19.1592635 C24.2602431,19.1592635 24.6243381,19.5291876 24.6243381,20 C24.6243381,20.4708124 24.2602431,20.8407365 23.8116261,20.8407365" id="Fill-6009"></path>
            <path d="M23.8116261,24.2036824 L5.93196361,24.2036824 C5.48334662,24.2036824 5.11925167,23.8337584 5.11925167,23.3629459 C5.11925167,22.8921335 5.48334662,22.5222094 5.93196361,22.5222094 L23.8116261,22.5222094 C24.2602431,22.5222094 24.6243381,22.8921335 24.6243381,23.3629459 C24.6243381,23.8337584 24.2602431,24.2036824 23.8116261,24.2036824" id="Fill-6010"></path>
            <path d="M23.8116261,27.5666283 L5.93196361,27.5666283 C5.48334662,27.5666283 5.11925167,27.1967043 5.11925167,26.7258919 C5.11925167,26.2550794 5.48334662,25.8851554 5.93196361,25.8851554 L23.8116261,25.8851554 C24.2602431,25.8851554 24.6243381,26.2550794 24.6243381,26.7258919 C24.6243381,27.1967043 24.2602431,27.5666283 23.8116261,27.5666283" id="Fill-6011"></path>
            <path d="M23.8116261,30.9295743 L5.93196361,30.9295743 C5.48334662,30.9295743 5.11925167,30.5596502 5.11925167,30.0888378 C5.11925167,29.6180254 5.48334662,29.2481013 5.93196361,29.2481013 L23.8116261,29.2481013 C24.2602431,29.2481013 24.6243381,29.6180254 24.6243381,30.0888378 C24.6243381,30.5596502 24.2602431,30.9295743 23.8116261,30.9295743" id="Fill-6012"></path>
        </g>
    </g>
</svg>