<?xml version="1.0" encoding="UTF-8"?>
<svg width="24px" height="20px" viewBox="0 0 24 20" version="1.1" xmlns="http://www.w3.org/2000/svg" xmlns:xlink="http://www.w3.org/1999/xlink">
    <!-- Generator: Sketch 43.2 (39069) - http://www.bohemiancoding.com/sketch -->
    <title>Group 173</title>
    <desc>Created with Sketch.</desc>
    <defs></defs>
    <g id="Approval-Process---Ministry" stroke="none" stroke-width="1" fill="none" fill-rule="evenodd" stroke-linecap="round" stroke-linejoin="round">
        <g id="Activity-Editor-Review---Ministry" transform="translate(-367.000000, -796.000000)" stroke="#000000">
            <g id="Submitted-Draft-Copy" transform="translate(367.000000, 796.000000)">
                <g id="Group-173">
                    <path d="M6.5,10.5 L6.5,4.5 L6.5,3.5 C6.5,2.948 6.948,2.5 7.5,2.5 L12.779,2.5 C13.21,2.5 13.592,2.775 13.728,3.184 L14.272,4.816 C14.408,5.225 14.79,5.5 15.221,5.5 L22.5,5.5 C23.052,5.5 23.5,5.948 23.5,6.5 L23.5,7.5 L23.5,13 C23.5,13.552 23.052,14 22.5,14 L21.5,14" id="Stroke-163"></path>
                    <path d="M7.5,2.5 L7.5,1.5 C7.5,0.948 7.948,0.5 8.5,0.5 L21.5,0.5 C22.052,0.5 22.5,0.948 22.5,1.5 L22.5,5.5" id="Stroke-165"></path>
                    <path d="M0.5,17.5 L3.5,17.5 C3.5,17.5 5.275,12.072 5.5,9.5 C4.708,8.75 0.5,8.5 0.5,8.5 L0.5,17.5 L0.5,17.5 Z" id="Stroke-167"></path>
                    <path d="M16.5,15 L20.331,14.042 C21.598,13.725 22.916,14.331 23.5,15.5 L18,18 C13.833,19.708 13.484,19.75 11.5,19 L4,16.5" id="Stroke-169"></path>
                    <path d="M5.5,10.5 L14.5,12.5 C15.835,12.834 16.5,13.466 16.5,14.842 L16.5,15 L15.154,15.336 C14.723,15.444 14.274,15.455 13.839,15.368 L9.5,14.5" id="Stroke-171"></path>
                </g>
            </g>
        </g>
    </g>
</svg>