<?xml version="1.0" encoding="UTF-8"?>
<svg width="30px" height="40px" viewBox="0 0 30 40" version="1.1" xmlns="http://www.w3.org/2000/svg" xmlns:xlink="http://www.w3.org/1999/xlink">
    <!-- Generator: Sketch 42 (36781) - http://www.bohemiancoding.com/sketch -->
    <title>Group 15</title>
    <desc>Created with Sketch.</desc>
    <defs></defs>
    <g id="Page-1" stroke="none" stroke-width="1" fill="none" fill-rule="evenodd">
        <g id="Group-15" fill="#5E5E5E">
            <path d="M1.66666667,38.3333333 L28.3333333,38.3333333 L28.3333333,1.66666667 L11.1783333,1.66666667 L1.66666667,11.1833333 L1.66666667,38.3333333 L1.66666667,38.3333333 Z M29.1666667,40 L0.833333333,40 C0.373333333,40 0,39.6333333 0,39.1666667 L0,10.8333333 C0,10.6166667 0.0883333333,10.4 0.243333333,10.25 L10.2433333,0.25 C10.4,0.0833333333 10.6116667,0 10.8333333,0 L29.1666667,0 C29.6266667,0 30,0.366666667 30,0.833333333 L30,39.1666667 C30,39.6333333 29.6266667,40 29.1666667,40 L29.1666667,40 Z" id="Fill-5996"></path>
            <path d="M10.8333333,11.6666667 L0.833333333,11.6666667 C0.373333333,11.6666667 0,11.3 0,10.8333333 C0,10.3666667 0.373333333,10 0.833333333,10 L10,10 L10,0.833333333 C10,0.366666667 10.3733333,0 10.8333333,0 C11.2933333,0 11.6666667,0.366666667 11.6666667,0.833333333 L11.6666667,10.8333333 C11.6666667,11.3 11.2933333,11.6666667 10.8333333,11.6666667" id="Fill-5997"></path>
            <path d="M24.1666667,15 L5.83333333,15 C5.37333333,15 5,14.6333333 5,14.1666667 C5,13.7 5.37333333,13.3333333 5.83333333,13.3333333 L24.1666667,13.3333333 C24.6266667,13.3333333 25,13.7 25,14.1666667 C25,14.6333333 24.6266667,15 24.1666667,15" id="Fill-5998"></path>
            <path d="M24.1666667,10 L15.8333333,10 C15.3733333,10 15,9.63333333 15,9.16666667 C15,8.7 15.3733333,8.33333333 15.8333333,8.33333333 L24.1666667,8.33333333 C24.6266667,8.33333333 25,8.7 25,9.16666667 C25,9.63333333 24.6266667,10 24.1666667,10" id="Fill-5999"></path>
            <path d="M24.1666667,20 L5.83333333,20 C5.37333333,20 5,19.6333333 5,19.1666667 C5,18.7 5.37333333,18.3333333 5.83333333,18.3333333 L24.1666667,18.3333333 C24.6266667,18.3333333 25,18.7 25,19.1666667 C25,19.6333333 24.6266667,20 24.1666667,20" id="Fill-6000"></path>
            <path d="M24.1666667,25 L5.83333333,25 C5.37333333,25 5,24.6333333 5,24.1666667 C5,23.7 5.37333333,23.3333333 5.83333333,23.3333333 L24.1666667,23.3333333 C24.6266667,23.3333333 25,23.7 25,24.1666667 C25,24.6333333 24.6266667,25 24.1666667,25" id="Fill-6001"></path>
            <path d="M24.1666667,30 L5.83333333,30 C5.37333333,30 5,29.6333333 5,29.1666667 C5,28.7 5.37333333,28.3333333 5.83333333,28.3333333 L24.1666667,28.3333333 C24.6266667,28.3333333 25,28.7 25,29.1666667 C25,29.6333333 24.6266667,30 24.1666667,30" id="Fill-6002"></path>
            <path d="M24.1666667,35 L5.83333333,35 C5.37333333,35 5,34.6333333 5,34.1666667 C5,33.7 5.37333333,33.3333333 5.83333333,33.3333333 L24.1666667,33.3333333 C24.6266667,33.3333333 25,33.7 25,34.1666667 C25,34.6333333 24.6266667,35 24.1666667,35" id="Fill-6003"></path>
        </g>
    </g>
</svg>