<?xml version="1.0" encoding="UTF-8"?>
<svg width="21px" height="18px" viewBox="0 0 21 18" version="1.1" xmlns="http://www.w3.org/2000/svg" xmlns:xlink="http://www.w3.org/1999/xlink">
    <!-- Generator: Sketch 55.2 (78181) - https://sketchapp.com -->
    <title>Group 5</title>
    <desc>Created with Sketch.</desc>
    <g id="Resources" stroke="none" stroke-width="1" fill="none" fill-rule="evenodd" stroke-linecap="round" stroke-linejoin="round">
        <g id="Hamutuk---Resources-Page-Copy-2" transform="translate(-27.000000, -148.000000)" stroke="#000000" stroke-width="0.7">
            <g id="Group-5" transform="translate(27.000000, 149.000000)">
                <path d="M0.35,3.47826087 L0.35,3.47826087 C0.35,2.51756522 1.1333,1.73913043 2.1,1.73913043 L5.25,1.73913043 C6.0032,1.73913043 6.6717,2.21843478 6.9104,2.928 L6.951,3.33286957 C7.1897,4.04243478 7.8582,4.52173913 8.6114,4.52173913 L18.9,4.52173913 C19.8667,4.52173913 20.65,5.30017391 20.65,6.26086957 L20.65,13.9130435 C20.65,14.8737391 19.8667,15.6521739 18.9,15.6521739 L2.1,15.6521739 C1.1333,15.6521739 0.35,14.8737391 0.35,13.9130435 L0.35,3.47826087 L0.35,3.47826087 Z" id="Stroke-1"></path>
                <path d="M1.05,2.08695652 C1.05,1.12626087 1.8333,0.347826087 2.8,0.347826087 L18.2,0.347826087 C19.1667,0.347826087 19.95,1.12626087 19.95,2.08695652 L19.95,4.86956522" id="Stroke-3"></path>
            </g>
        </g>
    </g>
</svg>