<?xml version="1.0" encoding="UTF-8"?>
<svg width="59px" height="66px" viewBox="0 0 59 66" version="1.1" xmlns="http://www.w3.org/2000/svg" xmlns:xlink="http://www.w3.org/1999/xlink">
    <!-- Generator: Sketch 42 (36781) - http://www.bohemiancoding.com/sketch -->
    <title>activity_completed</title>
    <desc>Created with Sketch.</desc>
    <defs></defs>
    <g id="Page-1" stroke="none" stroke-width="1" fill="none" fill-rule="evenodd">
        <g id="activity_completed" fill-rule="nonzero">
            <g id="Profile---commented">
                <g id="Hamutuk-Profile-Copy-10">
                    <g id="avtivity_completed">
                        <g id="Activity-status-Copy" fill="#565A5C">
                            <g id="activity-icon">
                                <g id="Capa_1">
                                    <g id="Group">
                                        <path d="M32.914,0 L0.5,0 L0.5,60 L47.5,60 L47.5,14.586 L32.914,0 Z M33.5,3.414 L44.086,14 L33.5,14 L33.5,3.414 Z M2.5,58 L2.5,2 L31.5,2 L31.5,16 L45.5,16 L45.5,58 L2.5,58 Z" id="Shape"></path>
                                        <path d="M36.5,21 L20.5,21 C19.948,21 19.5,21.447 19.5,22 C19.5,22.553 19.948,23 20.5,23 L36.5,23 C37.052,23 37.5,22.553 37.5,22 C37.5,21.447 37.052,21 36.5,21 Z" id="Shape"></path>
                                        <path d="M16.875,18.219 L12.574,21.66 L11.207,20.293 C10.816,19.902 10.184,19.902 9.793,20.293 C9.402,20.684 9.402,21.316 9.793,21.707 L11.793,23.707 C11.987,23.901 12.243,24 12.5,24 C12.72,24 12.941,23.928 13.124,23.781 L18.124,19.781 C18.556,19.435 18.625,18.806 18.28,18.375 C17.936,17.943 17.306,17.874 16.875,18.219 Z" id="Shape"></path>
                                        <path d="M36.5,32 L20.5,32 C19.948,32 19.5,32.447 19.5,33 C19.5,33.553 19.948,34 20.5,34 L36.5,34 C37.052,34 37.5,33.553 37.5,33 C37.5,32.447 37.052,32 36.5,32 Z" id="Shape"></path>
                                        <path d="M16.875,29.219 L12.574,32.66 L11.207,31.293 C10.816,30.902 10.184,30.902 9.793,31.293 C9.402,31.684 9.402,32.316 9.793,32.707 L11.793,34.707 C11.987,34.901 12.243,35 12.5,35 C12.72,35 12.941,34.928 13.124,34.781 L18.124,30.781 C18.556,30.435 18.625,29.806 18.28,29.375 C17.936,28.943 17.306,28.874 16.875,29.219 Z" id="Shape"></path>
                                        <path d="M36.5,43 L20.5,43 C19.948,43 19.5,43.447 19.5,44 C19.5,44.553 19.948,45 20.5,45 L36.5,45 C37.052,45 37.5,44.553 37.5,44 C37.5,43.447 37.052,43 36.5,43 Z" id="Shape"></path>
                                        <path d="M16.875,40.219 L12.574,43.66 L11.207,42.293 C10.816,41.902 10.184,41.902 9.793,42.293 C9.402,42.684 9.402,43.316 9.793,43.707 L11.793,45.707 C11.987,45.901 12.243,46 12.5,46 C12.72,46 12.941,45.928 13.124,45.781 L18.124,41.781 C18.556,41.435 18.625,40.806 18.28,40.375 C17.936,39.943 17.306,39.874 16.875,40.219 Z" id="Shape"></path>
                                    </g>
                                </g>
                            </g>
                        </g>
                        <g id="Check-Icon" transform="translate(34.000000, 42.000000)">
                            <circle id="Oval" fill="#00A699" cx="12.5" cy="12" r="12"></circle>
                            <path d="M19.071,6.179 C18.616,5.863 17.994,5.975 17.679,6.429 L12.083,14.469 L8.134,11.227 C7.708,10.876 7.077,10.939 6.727,11.366 C6.376,11.793 6.438,12.423 6.866,12.773 L11.652,16.702 C11.832,16.849 12.056,16.929 12.286,16.929 C12.331,16.929 12.377,16.926 12.423,16.92 C12.699,16.881 12.947,16.73 13.107,16.501 L19.321,7.572 C19.636,7.118 19.524,6.495 19.071,6.179 Z" id="Shape" fill="#FFFFFF"></path>
                        </g>
                    </g>
                </g>
            </g>
        </g>
    </g>
</svg>