<?xml version="1.0" encoding="UTF-8"?>
<svg width="58px" height="67px" viewBox="0 0 58 67" version="1.1" xmlns="http://www.w3.org/2000/svg" xmlns:xlink="http://www.w3.org/1999/xlink">
    <!-- Generator: Sketch 42 (36781) - http://www.bohemiancoding.com/sketch -->
    <title>activity_implementing</title>
    <desc>Created with Sketch.</desc>
    <defs></defs>
    <g id="Page-1" stroke="none" stroke-width="1" fill="none" fill-rule="evenodd">
        <g id="activity_implementing" fill-rule="nonzero">
            <g id="Profile---commented">
                <g id="Hamutuk-Profile-Copy-10">
                    <g id="activity_implementing">
                        <g id="Activity-status">
                            <g id="activity-icon" fill="#565A5C">
                                <g id="Capa_1">
                                    <g id="Group">
                                        <path d="M32.914,0 L0.5,0 L0.5,60 L47.5,60 L47.5,14.586 L32.914,0 Z M33.5,3.414 L44.086,14 L33.5,14 L33.5,3.414 Z M2.5,58 L2.5,2 L31.5,2 L31.5,16 L45.5,16 L45.5,58 L2.5,58 Z" id="Shape"></path>
                                        <path d="M36.5,21 L20.5,21 C19.948,21 19.5,21.447 19.5,22 C19.5,22.553 19.948,23 20.5,23 L36.5,23 C37.052,23 37.5,22.553 37.5,22 C37.5,21.447 37.052,21 36.5,21 Z" id="Shape"></path>
                                        <path d="M16.875,18.219 L12.574,21.66 L11.207,20.293 C10.816,19.902 10.184,19.902 9.793,20.293 C9.402,20.684 9.402,21.316 9.793,21.707 L11.793,23.707 C11.987,23.901 12.243,24 12.5,24 C12.72,24 12.941,23.928 13.124,23.781 L18.124,19.781 C18.556,19.435 18.625,18.806 18.28,18.375 C17.936,17.943 17.306,17.874 16.875,18.219 Z" id="Shape"></path>
                                        <path d="M36.5,32 L20.5,32 C19.948,32 19.5,32.447 19.5,33 C19.5,33.553 19.948,34 20.5,34 L36.5,34 C37.052,34 37.5,33.553 37.5,33 C37.5,32.447 37.052,32 36.5,32 Z" id="Shape"></path>
                                        <path d="M16.875,29.219 L12.574,32.66 L11.207,31.293 C10.816,30.902 10.184,30.902 9.793,31.293 C9.402,31.684 9.402,32.316 9.793,32.707 L11.793,34.707 C11.987,34.901 12.243,35 12.5,35 C12.72,35 12.941,34.928 13.124,34.781 L18.124,30.781 C18.556,30.435 18.625,29.806 18.28,29.375 C17.936,28.943 17.306,28.874 16.875,29.219 Z" id="Shape"></path>
                                        <path d="M36.5,43 L20.5,43 C19.948,43 19.5,43.447 19.5,44 C19.5,44.553 19.948,45 20.5,45 L36.5,45 C37.052,45 37.5,44.553 37.5,44 C37.5,43.447 37.052,43 36.5,43 Z" id="Shape"></path>
                                        <path d="M16.875,40.219 L12.574,43.66 L11.207,42.293 C10.816,41.902 10.184,41.902 9.793,42.293 C9.402,42.684 9.402,43.316 9.793,43.707 L11.793,45.707 C11.987,45.901 12.243,46 12.5,46 C12.72,46 12.941,45.928 13.124,45.781 L18.124,41.781 C18.556,41.435 18.625,40.806 18.28,40.375 C17.936,39.943 17.306,39.874 16.875,40.219 Z" id="Shape"></path>
                                    </g>
                                </g>
                            </g>
                            <g id="Implementing" transform="translate(34.000000, 43.000000)">
                                <path d="M24,10.846 L22.556,10.568 C20.413,10.156 19.431,7.652 20.721,5.893 L21.628,4.657 L19.67,2.699 L18.453,3.524 C16.647,4.748 14.181,3.672 13.849,1.516 L13.615,0 L10.846,0 L10.487,1.865 C10.084,3.961 7.669,4.961 5.902,3.764 L4.33,2.699 L2.372,4.657 L3.279,5.893 C4.569,7.653 3.587,10.156 1.444,10.568 L0,10.846 L0,13.615 L1.515,13.848 C3.672,14.18 4.747,16.645 3.523,18.452 L2.698,19.669 L4.656,21.627 L5.892,20.72 C7.652,19.43 10.155,20.412 10.567,22.555 L10.846,24 L13.615,24 L13.779,22.934 C14.118,20.73 16.675,19.671 18.473,20.99 L19.342,21.628 L21.3,19.67 L20.475,18.453 C19.251,16.647 20.327,14.181 22.483,13.849 L24,13.615 L24,10.846 Z" id="Shape" fill="#00A699"></path>
                                <g id="Group" transform="translate(7.000000, 7.000000)">
                                    <circle id="Oval" fill="#FFFFFF" cx="5" cy="5" r="4"></circle>
                                    <path d="M5,10 C2.243,10 0,7.757 0,5 C0,2.243 2.243,0 5,0 C7.757,0 10,2.243 10,5 C10,7.757 7.757,10 5,10 Z M5,2 C3.346,2 2,3.346 2,5 C2,6.654 3.346,8 5,8 C6.654,8 8,6.654 8,5 C8,3.346 6.654,2 5,2 Z" id="Shape" fill="#ECF0F1"></path>
                                </g>
                            </g>
                        </g>
                    </g>
                </g>
            </g>
        </g>
    </g>
</svg>