<?xml version="1.0" encoding="UTF-8" standalone="no"?>
<svg width="12px" height="11px" viewBox="0 0 12 11" version="1.1" xmlns="http://www.w3.org/2000/svg" xmlns:xlink="http://www.w3.org/1999/xlink">
    <!-- Generator: Sketch 41.1 (35376) - http://www.bohemiancoding.com/sketch -->
    <title>Page 1</title>
    <desc>Created with Sketch.</desc>
    <defs></defs>
    <g id="Profile---commented" stroke="none" stroke-width="1" fill="none" fill-rule="evenodd">
        <g id="Hamutuk-Profile-Copy-3" transform="translate(-515.000000, -544.000000)" fill="#565A5C">
            <g id="Page-1" transform="translate(515.000000, 544.000000)">
                <path d="M0.763636364,10.0324074 L11.2363636,10.0324074 L11.2363636,0.763888889 L0.763636364,0.763888889 L0.763636364,10.0324074 Z M11.5636364,10.6944444 L0.436363636,10.6944444 C0.255709091,10.6944444 0.109090909,10.5461481 0.109090909,10.3634259 L0.109090909,0.43287037 C0.109090909,0.250148148 0.255709091,0.101851852 0.436363636,0.101851852 L11.5636364,0.101851852 C11.7442909,0.101851852 11.8909091,0.250148148 11.8909091,0.43287037 L11.8909091,10.3634259 C11.8909091,10.5461481 11.7442909,10.6944444 11.5636364,10.6944444 L11.5636364,10.6944444 Z" id="Fill-3"></path>
                <path d="M11.5636364,10.6944444 C11.4438545,10.6944444 11.3286545,10.6275787 11.2710545,10.5117222 L7.94465455,3.78211574 L5.63018182,7.87946296 C5.57847273,7.96883796 5.49010909,8.02974537 5.38865455,8.04364815 C5.28850909,8.05556481 5.18705455,8.02246296 5.11374545,7.94963889 L3.43745455,6.2535 L0.711927273,10.5421759 C0.613745455,10.6964306 0.412145455,10.7414491 0.258981818,10.6414815 C0.107127273,10.542838 0.0632727273,10.3382685 0.1608,10.1840139 L3.10625455,5.54975463 C3.15992727,5.46567593 3.24829091,5.41072685 3.34647273,5.40013426 C3.44858182,5.38821759 3.54349091,5.42462963 3.61287273,5.49480556 L5.27410909,7.17505556 L7.67890909,2.91683333 C7.73912727,2.81090741 7.85367273,2.75463426 7.9728,2.75 C8.09323636,2.75331019 8.20254545,2.82348611 8.25621818,2.93272222 L11.8562182,10.2151296 C11.9367273,10.3786528 11.8719273,10.5779259 11.7102545,10.6593565 C11.6624727,10.6831898 11.6127273,10.6944444 11.5636364,10.6944444" id="Fill-4"></path>
                <path d="M3.70909091,2.08796296 C3.16778182,2.08796296 2.72727273,2.53351389 2.72727273,3.08101852 C2.72727273,3.62852315 3.16778182,4.07407407 3.70909091,4.07407407 C4.2504,4.07407407 4.69090909,3.62852315 4.69090909,3.08101852 C4.69090909,2.53351389 4.2504,2.08796296 3.70909091,2.08796296 M3.70909091,4.73611111 C2.80647273,4.73611111 2.07272727,3.99330556 2.07272727,3.08101852 C2.07272727,2.16873148 2.80647273,1.42592593 3.70909091,1.42592593 C4.61170909,1.42592593 5.34545455,2.16873148 5.34545455,3.08101852 C5.34545455,3.99330556 4.61170909,4.73611111 3.70909091,4.73611111" id="Fill-5"></path>
            </g>
        </g>
    </g>
</svg>