<?xml version="1.0" encoding="UTF-8"?>
<svg width="30px" height="28px" viewBox="0 0 30 28" version="1.1" xmlns="http://www.w3.org/2000/svg" xmlns:xlink="http://www.w3.org/1999/xlink">
    <!-- Generator: Sketch 49.2 (51160) - http://www.bohemiancoding.com/sketch -->
    <title>Group 142</title>
    <desc>Created with Sketch.</desc>
    <defs></defs>
    <g id="Page-1" stroke="none" stroke-width="1" fill="none" fill-rule="evenodd" stroke-linecap="round" stroke-linejoin="round">
        <g id="-Icon54---30x_Grid_set_1_Smart_Stroke" transform="translate(-276.000000, -2634.000000)" stroke="#000000">
            <g id="Cloud-Networking" transform="translate(156.000000, 2526.000000)">
                <g id="Group-142" transform="translate(120.000000, 108.000000)">
                    <path d="M17.5,20.5 L23.196,20.5 C26.677,20.5 29.5,17.702 29.5,14.25 C29.5,10.798 26.677,8 23.196,8 C23.162,8 23.131,8.009 23.097,8.01 C22.487,3.766 18.818,0.5 14.37,0.5 C9.495,0.5 5.544,4.417 5.544,9.25 C5.544,9.679 5.585,10.098 5.645,10.51 C5.61,10.51 5.579,10.5 5.544,10.5 C2.758,10.5 0.5,12.739 0.5,15.5 C0.5,18.261 2.758,20.5 5.544,20.5 L11.5,20.5" id="Stroke-136"></path>
                    <polyline id="Stroke-138" points="14.5 14.5 14.5 27.5 17 25"></polyline>
                    <path d="M12,25 L14.5,27.5" id="Stroke-140"></path>
                </g>
            </g>
        </g>
    </g>
</svg>