<?xml version="1.0" encoding="UTF-8"?>
<svg width="18px" height="19px" viewBox="0 0 18 19" version="1.1" xmlns="http://www.w3.org/2000/svg" xmlns:xlink="http://www.w3.org/1999/xlink">
    <!-- Generator: Sketch 42 (36781) - http://www.bohemiancoding.com/sketch -->
    <title>Search Icon@2x</title>
    <desc>Created with Sketch.</desc>
    <defs></defs>
    <g id="Page-1" stroke="none" stroke-width="1" fill="none" fill-rule="evenodd">
        <g id="Search-box-behaviour-Copy" transform="translate(-707.000000, -22.000000)" fill="#037E78">
            <g id="Search-Bar" transform="translate(517.000000, 17.000000)">
                <path d="M197.468437,6.94827448 C200.512317,6.94827448 202.9886,9.42455751 202.9886,12.4684373 C202.9886,15.5123171 200.512317,17.988569 197.468437,17.988569 C194.424558,17.988569 191.948274,15.5123171 191.948274,12.4684373 C191.948274,9.42455751 194.424558,6.94827448 197.468437,6.94827448 M207.587203,21.8484507 L203.184708,17.2696422 C204.31667,15.9240469 204.936875,14.2309828 204.936875,12.4684373 C204.936875,8.35039323 201.586481,5 197.468437,5 C193.350393,5 190,8.35039323 190,12.4684373 C190,16.5864503 193.350393,19.9368746 197.468437,19.9368746 C199.014397,19.9368746 200.487644,19.4705789 201.747196,18.5854064 L206.183126,23.1989557 C206.368545,23.3914899 206.617913,23.4977006 206.88518,23.4977006 C207.138122,23.4977006 207.378075,23.4012471 207.560262,23.2258968 C207.947319,22.8534444 207.959655,22.2358497 207.587203,21.8484507" id="Search-Icon"></path>
            </g>
        </g>
    </g>
</svg>