<?xml version="1.0" encoding="UTF-8"?>
<svg width="30px" height="25px" viewBox="0 0 30 25" version="1.1" xmlns="http://www.w3.org/2000/svg" xmlns:xlink="http://www.w3.org/1999/xlink">
    <!-- Generator: Sketch 49.2 (51160) - http://www.bohemiancoding.com/sketch -->
    <title>Group 556</title>
    <desc>Created with Sketch.</desc>
    <defs></defs>
    <g id="Page-1" stroke="none" stroke-width="1" fill="none" fill-rule="evenodd" stroke-linecap="round" stroke-linejoin="round">
        <g id="-Icon54---30x_Grid_set_1_Smart_Stroke" transform="translate(-276.000000, -1330.000000)" stroke="#000000">
            <g id="Business" transform="translate(156.000000, 1092.000000)">
                <g id="Group-556" transform="translate(120.000000, 238.000000)">
                    <path d="M20.5,16.5 C20.5,13.588 17.912,10.5 15,10.5 C12.088,10.5 9.5,13.588 9.5,16.5 L20.5,16.5 L20.5,16.5 Z" id="Stroke-528"></path>
                    <path d="M17.5,8 C17.5,9.381 16.381,10.5 15,10.5 C13.619,10.5 12.5,9.381 12.5,8 C12.5,6.619 13.619,5.5 15,5.5 C16.381,5.5 17.5,6.619 17.5,8 L17.5,8 Z" id="Stroke-530"></path>
                    <path d="M10,6 L11,7" id="Stroke-532"></path>
                    <path d="M6.5,12.5 L8.5,12.5" id="Stroke-534"></path>
                    <path d="M10,19 L11,18" id="Stroke-536"></path>
                    <path d="M10.5,3.5 C10.5,5.157 9.157,6.5 7.5,6.5 C5.843,6.5 4.5,5.157 4.5,3.5 C4.5,1.843 5.843,0.5 7.5,0.5 C9.157,0.5 10.5,1.843 10.5,3.5 L10.5,3.5 Z" id="Stroke-538"></path>
                    <path d="M10.5,21.5 C10.5,23.157 9.157,24.5 7.5,24.5 C5.843,24.5 4.5,23.157 4.5,21.5 C4.5,19.843 5.843,18.5 7.5,18.5 C9.157,18.5 10.5,19.843 10.5,21.5 L10.5,21.5 Z" id="Stroke-540"></path>
                    <path d="M6.5,12.5 C6.5,14.157 5.157,15.5 3.5,15.5 C1.843,15.5 0.5,14.157 0.5,12.5 C0.5,10.843 1.843,9.5 3.5,9.5 C5.157,9.5 6.5,10.843 6.5,12.5 L6.5,12.5 Z" id="Stroke-542"></path>
                    <path d="M20,6 L19,7" id="Stroke-544"></path>
                    <path d="M23.5,12.5 L21.5,12.5" id="Stroke-546"></path>
                    <path d="M20,19 L19,18" id="Stroke-548"></path>
                    <path d="M19.5,3.5 C19.5,5.157 20.843,6.5 22.5,6.5 C24.157,6.5 25.5,5.157 25.5,3.5 C25.5,1.843 24.157,0.5 22.5,0.5 C20.843,0.5 19.5,1.843 19.5,3.5 L19.5,3.5 Z" id="Stroke-550"></path>
                    <path d="M19.5,21.5 C19.5,23.157 20.843,24.5 22.5,24.5 C24.157,24.5 25.5,23.157 25.5,21.5 C25.5,19.843 24.157,18.5 22.5,18.5 C20.843,18.5 19.5,19.843 19.5,21.5 L19.5,21.5 Z" id="Stroke-552"></path>
                    <path d="M23.5,12.5 C23.5,14.157 24.843,15.5 26.5,15.5 C28.157,15.5 29.5,14.157 29.5,12.5 C29.5,10.843 28.157,9.5 26.5,9.5 C24.843,9.5 23.5,10.843 23.5,12.5 L23.5,12.5 Z" id="Stroke-554"></path>
                </g>
            </g>
        </g>
    </g>
</svg>