<?xml version="1.0" encoding="UTF-8"?>
<svg width="52px" height="48px" viewBox="0 0 52 48" version="1.1" xmlns="http://www.w3.org/2000/svg" xmlns:xlink="http://www.w3.org/1999/xlink">
    <!-- Generator: Sketch 41.2 (35397) - http://www.bohemiancoding.com/sketch -->
    <title>Page 1</title>
    <desc>Created with Sketch.</desc>
    <defs></defs>
    <g id="Profile---commented" stroke="none" stroke-width="1" fill="none" fill-rule="evenodd">
        <g id="Hamutuk-Profile---Popovers-Copy-4" transform="translate(-345.000000, -355.000000)" fill="#5E5E5E">
            <g id="Group-3" transform="translate(265.000000, 240.000000)">
                <g id="Group-4" transform="translate(45.000000, 79.000000)">
                    <g id="Page-1" transform="translate(35.000000, 36.000000)">
                        <path d="M40.0833333,37.0909091 L29.25,37.0909091 C28.652,37.0909091 28.1666667,36.6021818 28.1666667,36 C28.1666667,35.3978182 28.652,34.9090909 29.25,34.9090909 L40.0833333,34.9090909 C45.4588333,34.9090909 49.8333333,30.504 49.8333333,25.0909091 C49.8333333,19.6778182 45.4588333,15.2727273 40.0833333,15.2727273 C39.5438333,15.2727273 38.9176667,14.8909091 38.8418333,14.352 C37.8603333,7.41381818 31.8738333,2.18181818 24.9166667,2.18181818 C17.1513333,2.18181818 10.8333333,8.544 10.8333333,16.3636364 C10.8333333,16.9745455 10.8853333,17.6247273 10.998,18.4058182 C11.0413333,18.72 10.9481667,19.0385455 10.7423333,19.2763636 C10.5018333,19.5578182 10.0381667,19.68 9.68066667,19.6341818 C5.56833333,19.6363636 2.16666667,23.0618182 2.16666667,27.2727273 C2.16666667,31.4836364 5.56833333,34.9090909 9.75,34.9090909 L20.5833333,34.9090909 C21.1813333,34.9090909 21.6666667,35.3978182 21.6666667,36 C21.6666667,36.6021818 21.1813333,37.0909091 20.5833333,37.0909091 L9.75,37.0909091 C4.3745,37.0909091 0,32.6858182 0,27.2727273 C0,22.2109091 3.82416667,18.0327273 8.71433333,17.5090909 C8.68183333,17.1098182 8.66666667,16.7323636 8.66666667,16.3636364 C8.66666667,7.33963636 15.9553333,0 24.9166667,0 C32.6386667,0 39.3271667,5.58763636 40.833,13.1410909 C47.1336667,13.5861818 52,18.7767273 52,25.0909091 C52,31.7061818 46.6548333,37.0909091 40.0833333,37.0909091" id="Fill-1"></path>
                        <path d="M25.4172083,47.9990319 C24.8192083,47.9990319 24.333875,47.5103047 24.333875,46.9081228 L24.333875,27.7233956 L21.850875,30.225941 C21.4262083,30.6513956 20.7415417,30.6513956 20.316875,30.225941 C19.894375,29.7983047 19.894375,29.1088501 20.316875,28.6812137 L24.6502083,24.3175774 C24.9622083,24.0055774 25.425875,23.9161228 25.8310417,24.081941 C26.2362083,24.249941 26.5005417,24.6492137 26.5005417,25.089941 L26.5005417,46.9081228 C26.5005417,47.5103047 26.0152083,47.9990319 25.4172083,47.9990319" id="Fill-3"></path>
                        <path d="M28.6502083,30.2274545 L24.316875,25.8638182 C23.894375,25.4361818 23.894375,24.7467273 24.316875,24.3190909 C24.7415417,23.8936364 25.4262083,23.8936364 25.850875,24.3190909 L30.1842083,28.6827273 C30.6067083,29.1103636 30.6067083,29.7998182 30.1842083,30.2274545 C29.971875,30.4390909 29.6945417,30.546 29.4172083,30.546 C29.139875,30.546 28.8625417,30.4390909 28.6502083,30.2274545 Z" id="Fill-5"></path>
                    </g>
                </g>
            </g>
        </g>
    </g>
</svg>