<?xml version="1.0" encoding="UTF-8"?>
<svg width="26px" height="30px" viewBox="0 0 26 30" version="1.1" xmlns="http://www.w3.org/2000/svg" xmlns:xlink="http://www.w3.org/1999/xlink">
    <!-- Generator: Sketch 49.2 (51160) - http://www.bohemiancoding.com/sketch -->
    <title>Group 208</title>
    <desc>Created with Sketch.</desc>
    <defs></defs>
    <g id="Page-1" stroke="none" stroke-width="1" fill="none" fill-rule="evenodd" stroke-linecap="round" stroke-linejoin="round">
        <g id="30_Px_Grid_set_3_Smartstroke.ai" transform="translate(-94.000000, -3051.000000)" stroke="#000000">
            <g id="Notes-and-Tasks" transform="translate(29.000000, 2656.000000)">
                <g id="Group-208" transform="translate(65.000000, 395.000000)">
                    <path d="M14.5,1.5 L12.408,1.5 C12.202,0.919 11.652,0.5 11,0.5 C10.348,0.5 9.798,0.919 9.592,1.5 L7.5,1.5 C6.395,1.5 5.5,2.395 5.5,3.5 L5.5,4.5 L16.5,4.5 L16.5,3.5 C16.5,2.395 15.605,1.5 14.5,1.5 L14.5,1.5 Z" id="Stroke-971"></path>
                    <path d="M5.4412,3.5 L1.7352,3.5 C1.0532,3.5 0.5002,4.054 0.5002,4.738 L0.5002,28.262 C0.5002,28.946 1.0532,29.5 1.7352,29.5 L11.5002,29.5" id="Stroke-973"></path>
                    <path d="M21.5,15.5 L21.5,4.738 C21.5,4.054 20.947,3.5 20.265,3.5 L16.559,3.5" id="Stroke-975"></path>
                    <path d="M22.5,22 C22.5,24.485 20.485,26.5 18,26.5 C15.515,26.5 13.5,24.485 13.5,22 C13.5,19.515 15.515,17.5 18,17.5 C20.485,17.5 22.5,19.515 22.5,22 L22.5,22 Z" id="Stroke-977"></path>
                    <path d="M21.25,25.25 L25.5,29.5" id="Stroke-979"></path>
                </g>
            </g>
        </g>
    </g>
</svg>