<?xml version="1.0" encoding="UTF-8"?>
<svg width="20px" height="20px" viewBox="0 0 20 20" version="1.1" xmlns="http://www.w3.org/2000/svg" xmlns:xlink="http://www.w3.org/1999/xlink">
    <!-- Generator: Sketch 42 (36781) - http://www.bohemiancoding.com/sketch -->
    <title>Water&amp;Sanitation@2x</title>
    <desc>Created with Sketch.</desc>
    <defs>
        <polygon id="path-1" points="0 0.008 7.2 0.008 7.2 10.3964 0 10.3964 0 0.008"></polygon>
    </defs>
    <g id="icons" stroke="none" stroke-width="1" fill="none" fill-rule="evenodd">
        <g id="Desktop-Landscape" transform="translate(-258.000000, -124.000000)">
            <g id="Water&amp;Sanitation" transform="translate(258.000000, 124.000000)">
                <path d="M0.8,17.61712 L2.508,17.61712 C2.8056,16.67712 3.7648,13.56512 3.9776,11.81312 C3.4736,11.56832 2.0856,11.34752 0.8,11.24592 L0.8,17.61712 Z M2.8,18.41712 L0.4,18.41712 C0.1792,18.41712 0,18.23792 0,18.01712 L0,10.81712 C0,10.70672 0.0456,10.60112 0.1256,10.52592 C0.2056,10.45152 0.3088,10.41552 0.424,10.41792 C1.248,10.46672 3.9896,10.67712 4.6752,11.32672 C4.764,11.41072 4.8088,11.53072 4.7984,11.65232 C4.6168,13.73232 3.2384,17.96272 3.18,18.14112 C3.1264,18.30592 2.9728,18.41712 2.8,18.41712 L2.8,18.41712 Z" id="Fill-1" fill="#6D6D6D"></path>
                <path d="M10.7164,19.99216 C10.1948,19.99216 9.7308,19.84496 9.0588,19.59136 L3.0732,17.59696 C2.8644,17.52656 2.7508,17.30016 2.8204,17.09056 C2.8908,16.88096 3.1156,16.76656 3.3268,16.83776 L9.3268,18.83776 C10.7676,19.38256 10.8836,19.42656 14.2484,18.04656 L18.214,16.24416 C17.7724,15.70816 17.0612,15.46176 16.362,15.63936 L13.2972,16.40576 C13.0828,16.45696 12.866,16.32816 12.8124,16.11376 C12.758,15.90016 12.8884,15.68256 13.1028,15.62896 L16.1676,14.86256 C17.3724,14.56416 18.602,15.12736 19.158,16.23856 C19.206,16.33536 19.2132,16.44816 19.1772,16.55056 C19.1404,16.65296 19.0644,16.73696 18.966,16.78096 L14.566,18.78096 C12.478,19.63776 11.5276,19.99216 10.7164,19.99216" id="Fill-3" fill="#6D6D6D"></path>
                <path d="M11.54064,16.75696 C11.35584,16.75696 11.17184,16.73936 10.99264,16.70336 L7.52144,16.00976 C7.30464,15.96656 7.16464,15.75536 7.20784,15.53936 C7.25104,15.32176 7.45744,15.17696 7.67824,15.22496 L11.14944,15.91856 C11.43824,15.97696 11.74144,15.96976 12.02624,15.89776 L12.79424,15.70656 C12.74544,14.97536 12.38864,14.62656 11.50304,14.40576 L4.31344,12.80816 C4.09744,12.75936 3.96144,12.54576 4.00944,12.33056 C4.05744,12.11456 4.27344,11.98496 4.48704,12.02656 L11.68704,13.62656 C13.01264,13.95696 13.59984,14.65456 13.59984,15.89056 L13.59984,16.01696 C13.59984,16.20096 13.47504,16.36096 13.29664,16.40576 L12.22064,16.67376 C11.99904,16.72896 11.76944,16.75696 11.54064,16.75696" id="Fill-5" fill="#6D6D6D"></path>
                <g id="Group-9" transform="translate(7.200000, 0.792160)">
                    <mask id="mask-2" fill="white">
                        <use xlink:href="#path-1"></use>
                    </mask>
                    <g id="Clip-8"></g>
                    <path d="M3.6,1.1508 C2.5896,2.7964 0.8,5.938 0.8,7.042 C0.8,8.4508 2.056,9.5964 3.6,9.5964 C5.144,9.5964 6.4,8.4508 6.4,7.042 C6.4,5.9372 4.6104,2.7956 3.6,1.1508 M3.6,10.3964 C1.6152,10.3964 0,8.8916 0,7.042 C0,5.3428 2.9288,0.7036 3.2632,0.1812 C3.4096,-0.05 3.7904,-0.05 3.9368,0.1812 C4.2712,0.7036 7.2,5.3428 7.2,7.042 C7.2,8.8916 5.5848,10.3964 3.6,10.3964" id="Fill-7" fill="#6D6D6D" mask="url(#mask-2)"></path>
                </g>
                <path d="M10.8,9.58824 C9.6976,9.58824 8.8,8.69144 8.8,7.58824 C8.8,7.36744 8.9792,7.18824 9.2,7.18824 C9.4208,7.18824 9.6,7.36744 9.6,7.58824 C9.6,8.24984 10.1384,8.78824 10.8,8.78824 C11.0208,8.78824 11.2,8.96744 11.2,9.18824 C11.2,9.40904 11.0208,9.58824 10.8,9.58824" id="Fill-10" fill="#6D6D6D"></path>
            </g>
        </g>
    </g>
</svg>