<?xml version="1.0" encoding="UTF-8"?>
<svg width="20px" height="20px" viewBox="0 0 20 20" version="1.1" xmlns="http://www.w3.org/2000/svg" xmlns:xlink="http://www.w3.org/1999/xlink">
    <!-- Generator: Sketch 42 (36781) - http://www.bohemiancoding.com/sketch -->
    <title>General Envrionmental Protection@2x</title>
    <desc>Created with Sketch.</desc>
    <defs>
        <polygon id="path-1" points="8.67361738e-20 0.0253252102 8.67361738e-20 9.59984 19.1998767 9.59984 19.1998767 0.0253252102 0 0.0253252102"></polygon>
    </defs>
    <g id="icons" stroke="none" stroke-width="1" fill="none" fill-rule="evenodd">
        <g id="Desktop-Landscape" transform="translate(-255.000000, -215.000000)">
            <g id="General-Envrionmental-Protection" transform="translate(255.000000, 215.000000)">
                <g id="Group-3" transform="translate(0.000000, 10.375040)">
                    <mask id="mask-2" fill="white">
                        <use xlink:href="#path-1"></use>
                    </mask>
                    <g id="Clip-2"></g>
                    <path d="M14.2484,7.65504 C10.8844,9.03344 10.7668,8.98864 9.3268,8.44544 L3.5628,6.52464 C3.8916,5.43584 4.35,3.81984 4.6124,2.48224 L11.5028,4.01264 C12.3892,4.23424 12.746,4.58384 12.7948,5.31424 L12.0268,5.50624 C11.742,5.57664 11.438,5.58464 11.1492,5.52704 L7.678,4.83264 C7.4724,4.79024 7.2516,4.92864 7.2076,5.14624 C7.1644,5.36304 7.3044,5.57344 7.522,5.61744 L10.9932,6.31104 C11.1732,6.34704 11.3572,6.36544 11.5412,6.36544 C11.77,6.36544 11.9988,6.33744 12.2204,6.28224 L13.2972,6.01264 L16.362,5.24704 C17.062,5.07344 17.7724,5.31744 18.214,5.85184 L14.2484,7.65504 Z M2.5076,7.22464 L0.7996,7.22464 L0.7996,0.85344 C2.0852,0.95504 3.4724,1.17584 3.9772,1.42064 C3.7652,3.17264 2.8052,6.28544 2.5076,7.22464 L2.5076,7.22464 Z M16.1676,4.47104 L13.5756,5.11904 C13.4612,4.11984 12.8692,3.53024 11.6868,3.23424 L4.7484,1.69264 C4.7692,1.54064 4.7868,1.39504 4.798,1.25984 C4.8092,1.13824 4.7636,1.01824 4.6748,0.93424 C3.9892,0.28464 1.2476,0.07424 0.4236,0.02544 C0.3148,0.02304 0.2052,0.05824 0.126,0.13424 C0.0452,0.20944 -0.0004,0.31504 -0.0004,0.42464 L-0.0004,7.62464 C-0.0004,7.84624 0.1788,8.02464 0.3996,8.02464 L2.7996,8.02464 C2.9724,8.02464 3.1268,7.91344 3.1804,7.74944 C3.1908,7.71664 3.246,7.54864 3.3276,7.28864 L9.0588,9.19904 C9.7308,9.45344 10.1956,9.59984 10.7164,9.59984 C11.5284,9.59984 12.478,9.24544 14.5652,8.38864 L18.9652,6.38864 C19.0644,6.34384 19.1404,6.26064 19.1772,6.15824 C19.2132,6.05584 19.206,5.94304 19.158,5.84624 C18.6028,4.73504 17.3708,4.16944 16.1676,4.47104 L16.1676,4.47104 Z" id="Fill-1" fill="#6D6D6D" mask="url(#mask-2)"></path>
                </g>
                <g id="Group-6" transform="translate(4.000000, 0.775040)" fill="#6D6D6D">
                    <path d="M5.13448,1.29464 C4.68728,1.80904 4.30248,2.46584 3.99448,3.22504 L2.42488,3.22504 C3.14888,2.37464 4.07768,1.70744 5.13448,1.29464 L5.13448,1.29464 Z M12.77528,3.22504 L11.20568,3.22504 C10.89768,2.46584 10.51288,1.80904 10.06568,1.29464 C11.12248,1.70744 12.05128,2.37464 12.77528,3.22504 L12.77528,3.22504 Z M11.47448,11.22504 C11.77688,10.24584 11.95368,9.15544 11.98808,8.02504 L14.38008,8.02504 C14.31368,9.17464 13.96248,10.26584 13.35848,11.22504 L11.47448,11.22504 Z M8.00008,11.22504 L8.00008,8.02504 L11.18808,8.02504 C11.15128,9.16824 10.96328,10.26584 10.63928,11.22504 L8.00008,11.22504 Z M7.20008,0.87224 L7.20008,3.22504 L4.88408,3.22504 C5.46568,1.95144 6.28648,1.07304 7.20008,0.87224 L7.20008,0.87224 Z M8.00008,3.22504 L8.00008,0.87224 C8.91368,1.07304 9.73448,1.95144 10.31608,3.22504 L8.00008,3.22504 Z M11.18888,7.22504 L8.00008,7.22504 L8.00008,4.02504 L10.63128,4.02504 C10.95128,4.96904 11.15128,6.06264 11.18888,7.22504 L11.18888,7.22504 Z M14.38008,7.22504 L11.98888,7.22504 C11.95528,6.06584 11.78248,4.98104 11.49048,4.02504 L13.35848,4.02504 C13.94728,4.96344 14.31128,6.05384 14.38008,7.22504 L14.38008,7.22504 Z M4.01128,7.22504 C4.04888,6.06264 4.24808,4.96904 4.56888,4.02504 L7.20008,4.02504 L7.20008,7.22504 L4.01128,7.22504 Z M1.84168,4.02504 L3.70968,4.02504 C3.41768,4.98104 3.24488,6.06584 3.21128,7.22504 L0.82008,7.22504 C0.88888,6.05384 1.25288,4.96344 1.84168,4.02504 L1.84168,4.02504 Z M0.16248,9.18664 C0.20728,9.40344 0.42488,9.54184 0.63608,9.49624 C0.85208,9.45144 0.99048,9.23944 0.94568,9.02264 C0.87688,8.69384 0.84088,8.35944 0.82088,8.02504 L3.21288,8.02504 C3.24248,9.01624 3.37608,9.98024 3.62488,10.89384 C3.68248,11.10664 3.90008,11.23464 4.11528,11.17464 C4.32888,11.11704 4.45448,10.89704 4.39688,10.68344 C4.16728,9.83864 4.04248,8.94504 4.01288,8.02504 L7.20008,8.02504 L7.20008,11.62504 C7.20008,11.84584 7.37928,12.02504 7.60008,12.02504 L10.31848,12.02504 C10.18248,12.32264 10.03528,12.60744 9.87048,12.86264 C9.74968,13.04824 9.80408,13.29624 9.98888,13.41544 C10.05608,13.45864 10.13128,13.47944 10.20648,13.47944 C10.33768,13.47944 10.46568,13.41544 10.54248,13.29624 C10.78888,12.91464 11.00488,12.48584 11.19288,12.02504 L12.77848,12.02504 C12.63448,12.19384 12.48248,12.35704 12.32008,12.51304 C12.16168,12.66664 12.15688,12.92024 12.31128,13.07864 C12.38888,13.15944 12.49368,13.20104 12.59848,13.20104 C12.69848,13.20104 12.79848,13.16344 12.87688,13.08824 C13.25128,12.72584 13.58408,12.33304 13.87208,11.91464 C13.92008,11.86984 13.95368,11.81304 13.97528,11.74904 C14.76888,10.53064 15.20008,9.11464 15.20008,7.62504 C15.20008,6.10504 14.74728,4.69064 13.97528,3.50184 C13.95288,3.43384 13.91528,3.37464 13.86248,3.32824 C12.49128,1.33544 10.19688,0.02504 7.60008,0.02504 C5.00328,0.02504 2.70888,1.33544 1.33768,3.32824 C1.28488,3.37464 1.24728,3.43384 1.22488,3.50184 C0.45288,4.69064 8e-05,6.10504 8e-05,7.62504 C8e-05,8.14664 0.05448,8.67224 0.16248,9.18664 L0.16248,9.18664 Z" id="Fill-4"></path>
                </g>
            </g>
        </g>
    </g>
</svg>