<?xml version="1.0" encoding="UTF-8"?>
<svg width="19px" height="20px" viewBox="0 0 19 20" version="1.1" xmlns="http://www.w3.org/2000/svg" xmlns:xlink="http://www.w3.org/1999/xlink">
    <!-- Generator: Sketch 42 (36781) - http://www.bohemiancoding.com/sketch -->
    <title>sectors_population_policies@2x</title>
    <desc>Created with Sketch.</desc>
    <defs></defs>
    <g id="icons" stroke="none" stroke-width="1" fill="none" fill-rule="evenodd">
        <g id="Desktop-Landscape" transform="translate(-221.000000, -99.000000)" fill-rule="nonzero" fill="#6D6D6D">
            <g id="sectors_population_policies" transform="translate(221.000000, 99.000000)">
                <g id="Capa_1">
                    <path d="M18.4696852,3.28014528 C18.3374334,2.5548184 18.0060533,1.88038741 17.5112833,1.32934625 C17.5103148,1.32828087 17.5093947,1.32716707 17.5084262,1.32610169 C17.2550121,1.03995157 16.8350605,0.64653753 16.2737046,0.397239709 L16.2609201,0.39157385 C15.7191283,0.131719128 15.137724,0 14.5329298,0 C13.6384988,0 12.7924939,0.288716707 12.0863438,0.835012107 C12.0856659,0.835544794 12.0824697,0.838062954 12.0815981,0.838692494 C11.4745278,1.31273608 11.0738983,1.99012107 11.0243099,2.07641646 L11.0243099,2.07641646 C11.0220823,2.0801937 11.0199031,2.08401937 11.0178208,2.08784504 C10.699322,2.67176755 10.5309927,3.33365617 10.5309927,4.00198547 C10.5309927,4.14077482 10.5382567,4.28125908 10.5526877,4.41946731 C10.5661017,4.54861985 10.6433898,4.66242131 10.7584019,4.72261501 C10.8312349,4.76072639 10.9073608,4.79244552 10.985569,4.81753027 C11.2973366,5.77181598 11.9782567,6.53501211 12.8439225,6.96421308 C12.4728329,7.15375303 12.1395642,7.40435835 11.8512833,7.71084746 C11.7046973,7.86668281 11.7122034,8.11186441 11.8680872,8.25845036 C12.0239225,8.40498789 12.2691041,8.39748184 12.4156901,8.24164649 C12.5542373,8.09433414 12.7058596,7.96348668 12.8693947,7.84997579 C13.1039225,8.51443099 13.7083777,9.00121065 14.3958838,9.00121065 L14.4537046,9.00121065 C15.1423729,9.00121065 15.746247,8.47951574 15.9669249,7.77360775 C16.7849879,8.28644068 17.3083777,9.20014528 17.3083777,10.1775303 L17.3083777,14.2016949 L13.7846973,16.4881356 C13.6051816,16.6046005 13.554092,16.8445036 13.6706053,17.0239709 C13.7447942,17.1383051 13.8691041,17.2005327 13.9959322,17.2005327 C14.0682324,17.2005327 14.1413075,17.180339 14.2064407,17.138063 L17.9066344,14.7370944 C18.016707,14.6656659 18.0831961,14.5433414 18.0831961,14.4121065 L18.0831961,10.1775303 C18.0831961,8.80556901 17.3172881,7.57583535 16.1068281,6.9622276 C17.2531235,6.39012107 18.0637288,5.23544794 18.1431477,3.89060533 C18.2524939,3.791477 18.3475545,3.67501211 18.4235835,3.54401937 C18.4699274,3.46440678 18.486247,3.37079903 18.4696852,3.28014528 Z M14.453753,8.22644068 L14.3959322,8.22644068 C13.9323002,8.22644068 13.5405811,7.777046 13.5405811,7.24508475 C13.5405811,7.23845036 13.5404358,7.23186441 13.5400969,7.22527845 C13.8404843,7.3042615 14.1546731,7.34605327 14.4768523,7.34605327 C14.7522034,7.34605327 15.0209201,7.31535109 15.2793705,7.25719128 C15.2490557,7.78096852 14.8762712,8.22644068 14.453753,8.22644068 Z M14.4768039,6.57123487 C13.3086199,6.57123487 12.2728329,5.87535109 11.8190799,4.83225182 C12.3569976,4.68009685 12.7684746,4.22372881 12.8552542,3.66164649 C13.0863923,3.69133172 13.3206295,3.7062954 13.5556416,3.7062954 C14.343632,3.7062954 15.1027603,3.5411138 15.782615,3.22479419 C15.9578208,3.8264891 16.5143341,4.26745763 17.1718644,4.26745763 C17.2198063,4.26745763 17.2674576,4.26503632 17.3146731,4.26029056 C17.0415012,5.57651332 15.8692978,6.57123487 14.4768039,6.57123487 Z M17.1718644,3.49268765 C16.8014528,3.49268765 16.5000969,3.19142857 16.5000969,2.82106538 L16.5000969,2.60547215 C16.5000969,2.46450363 16.4235351,2.33467312 16.3001453,2.26644068 C16.176707,2.19815981 16.0260048,2.20237288 15.9066828,2.27738499 C15.2249879,2.70532688 14.4120097,2.93152542 13.5555932,2.93152542 C13.220678,2.93152542 12.8879903,2.89622276 12.5667797,2.82658596 C12.4523487,2.80174334 12.3327361,2.83007264 12.2415012,2.90363196 C12.1503148,2.97719128 12.0972881,3.08803874 12.0972881,3.2051816 L12.0972881,3.4401937 C12.0972881,3.81050847 11.7959806,4.11181598 11.4256174,4.11181598 C11.4002421,4.11181598 11.3751574,4.11041162 11.3503632,4.10765133 C11.3446005,4.10677966 11.3388378,4.10605327 11.3330751,4.10547215 C11.3244068,4.10430993 11.3158354,4.10290557 11.3072639,4.10140436 C11.306247,4.06818402 11.3057143,4.03506053 11.3057143,4.0020339 C11.3057143,3.46450363 11.4405811,2.93239709 11.6957869,2.46290557 C11.6968039,2.46101695 11.6978692,2.45917676 11.6986925,2.4577724 C11.7019855,2.45181598 12.0519128,1.8451816 12.5578208,1.44987893 C12.5588378,1.44905569 12.5601453,1.44808717 12.5603874,1.44789346 C13.1295884,1.00755448 13.8116707,0.774818402 14.5329298,0.774818402 C15.0208232,0.774818402 15.4894915,0.880920097 15.9258596,1.09016949 C15.933414,1.09380145 15.9446005,1.0988862 15.9592252,1.10532688 C16.3900726,1.29670702 16.7208717,1.60644068 16.9237772,1.83457627 C16.9260048,1.83719128 16.9282809,1.83975787 16.9306053,1.84237288 C17.2962228,2.24803874 17.5517191,2.73675545 17.675109,3.26387409 C17.5483777,3.4074092 17.3651332,3.49268765 17.1718644,3.49268765 Z M11.1772397,13.4047458 C12.055109,12.888184 12.6456174,11.9332688 12.6456174,10.8431477 C12.6456174,10.3525908 12.5260048,9.88934625 12.3145278,9.48116223 C12.3069249,9.46401937 12.2982567,9.44769976 12.2885714,9.43220339 C11.7856174,8.50464891 10.8030508,7.87331719 9.67578692,7.87331719 C8.54828087,7.87331719 7.56552058,8.50484262 7.06271186,9.43283293 C7.05331719,9.44794189 7.04484262,9.46387409 7.03743341,9.48053269 C6.82566586,9.88886199 6.70600484,10.3523002 6.70600484,10.8431477 C6.70600484,11.9330751 7.29622276,12.8877966 8.17384988,13.4044068 C7.08750605,13.9660048 6.39937046,15.0807748 6.39937046,16.3144794 L6.39937046,17.7274576 C6.39937046,17.8599031 6.46702179,17.9831477 6.57874092,18.0542857 L9.46779661,19.8935109 C9.53128329,19.9338983 9.60353511,19.954092 9.67583535,19.954092 C9.74769976,19.954092 9.81956416,19.9341404 9.88276029,19.8941889 L12.7786441,18.0646005 C12.8915738,17.9932688 12.9597579,17.8688136 12.9591283,17.7352542 L12.9523002,16.3126392 C12.9463923,15.0760291 12.2589831,13.9649395 11.1772397,13.4047458 Z M9.67578692,8.64813559 C10.3501211,8.64813559 10.9542857,8.9537046 11.3572881,9.4337046 C10.8352542,9.58329298 10.2627603,9.66130751 9.67588378,9.66130751 C9.08881356,9.66130751 8.51627119,9.58329298 7.99428571,9.4337046 C8.39728814,8.9537046 9.00150121,8.64813559 9.67578692,8.64813559 Z M7.48077482,10.8431477 C7.48077482,10.591477 7.5233414,10.3494915 7.60169492,10.1241646 C8.24096852,10.3289104 8.9503632,10.4361259 9.67588378,10.4361259 C10.4012107,10.4361259 11.1105085,10.3289104 11.7498789,10.1241646 C11.8282324,10.3494915 11.870799,10.591477 11.870799,10.8431477 C11.870799,12.0534625 10.8861501,13.0381598 9.67578692,13.0381598 C8.46547215,13.0381598 7.48077482,12.0534625 7.48077482,10.8431477 Z M10.3634383,13.7326392 C10.3150121,14.0991283 9.99355932,14.3468765 9.70271186,14.3468765 L9.65554479,14.3468765 C9.34750605,14.3468765 9.00542373,14.0863438 8.9611138,13.7260533 C9.19007264,13.7828087 9.42949153,13.8129782 9.6757385,13.8129782 C9.91234867,13.8129782 10.1426634,13.7851332 10.3634383,13.7326392 Z M9.67661017,19.1079903 L7.17414044,17.5148668 L7.17414044,16.3145278 C7.17414044,15.4626634 7.60455206,14.6848426 8.30125908,14.2264407 C8.5433414,14.7788378 9.11399516,15.1216949 9.65554479,15.1216949 L9.70271186,15.1216949 C10.2873608,15.1216949 10.8041646,14.7412107 11.0274092,14.2125908 C11.7341889,14.6682809 12.1733172,15.4522034 12.1774334,16.316368 L12.1832446,17.5243099 L9.67661017,19.1079903 Z M6.89389831,8.70905569 C7.00682809,8.52731235 6.95104116,8.28842615 6.76934625,8.17549637 C6.65138015,8.10217918 6.52905569,8.03569007 6.40353511,7.97651332 C6.88227603,7.73176755 7.30576271,7.38121065 7.64193705,6.94271186 C7.78038741,6.99075061 7.92900726,7.01690073 8.08358354,7.01690073 C8.82803874,7.01690073 9.4337046,6.41123487 9.4337046,5.66677966 L9.4337046,4.70401937 C9.4337046,3.4801937 8.96619855,2.3211138 8.11733656,1.44038741 C7.27089588,0.562227603 6.13452785,0.0521065375 4.91757869,0.00397094431 L4.91723971,0.00397094431 C4.811477,-9.68523002e-05 4.71302663,-0.0010653753 4.61622276,0.00130750605 C3.40469734,0.0305569007 2.26188862,0.520920097 1.39830508,1.3820339 C0.512929782,2.26484262 0.0253268765,3.44464891 0.0253268765,4.7040678 L0.0253268765,5.66682809 C0.0253268765,6.41128329 0.630992736,7.01694915 1.37549637,7.01694915 C1.53007264,7.01694915 1.67864407,6.99084746 1.817046,6.94280872 C2.18736077,7.42581114 2.66368039,7.80213075 3.20309927,8.04784504 C2.00769976,8.67651332 1.2683293,9.89346247 1.2683293,11.2410654 L1.2683293,14.4122034 C1.2683293,14.5434383 1.33476998,14.6657627 1.44489104,14.7371913 L4.95941889,17.0176271 C5.02455206,17.0599031 5.09762712,17.0800969 5.16992736,17.0800969 C5.29675545,17.0800969 5.4211138,17.0178208 5.49525424,16.9035351 C5.61171913,16.7240194 5.56062954,16.4841162 5.38116223,16.3676998 L2.0431477,14.2017918 L2.0431477,11.2410654 C2.0431477,10.3446973 2.46053269,9.52169492 3.15975787,8.99060533 C3.39956416,9.6864891 4.01535109,10.2093462 4.69622276,10.2093462 L4.75404358,10.2093462 C5.4935109,10.2093462 6.08372881,9.54 6.29157385,8.79220339 C6.31467312,8.80566586 6.33757869,8.81946731 6.36029056,8.83355932 C6.54208232,8.94658596 6.78096852,8.89075061 6.89389831,8.70905569 Z M2.33365617,3.29602906 C2.08319613,3.72140436 1.95079903,4.20828087 1.95079903,4.7040678 L1.95079903,5.66682809 C1.95079903,5.8503632 1.86440678,6.01409201 1.73012107,6.11951574 C1.71859564,6.12702179 1.70760291,6.13506053 1.69714286,6.14358354 C1.60527845,6.20581114 1.49452785,6.24213075 1.37544794,6.24213075 C1.05820823,6.24213075 0.800145278,5.9840678 0.800145278,5.66682809 L0.800145278,4.70401937 C0.800145278,2.55326877 2.48460048,0.827845036 4.63476998,0.775835351 C4.71515738,0.773849879 4.79772397,0.77472155 4.8872155,0.778159806 C7.00213075,0.861985472 8.65883777,2.58639225 8.65883777,4.70401937 L8.65883777,5.66677966 C8.65883777,5.98401937 8.40072639,6.24208232 8.08348668,6.24208232 C7.96440678,6.24208232 7.85360775,6.20571429 7.76169492,6.14348668 C7.75128329,6.13501211 7.74033898,6.12702179 7.72886199,6.11951574 C7.59457627,6.01409201 7.50813559,5.85031477 7.50813559,5.66677966 L7.50813559,4.70401937 C7.50813559,3.33656174 6.4894431,2.15486683 5.13854722,1.95530266 C5.03234867,1.93951574 4.92440678,1.96866828 4.84048426,2.03559322 C4.75656174,2.10251816 4.70411622,2.20121065 4.69569007,2.30823245 C4.67443099,2.57903148 4.62532688,2.84605327 4.54934625,3.1051816 L2.66745763,3.1051816 C2.53026634,3.1051816 2.40324455,3.1777724 2.33365617,3.29602906 Z M4.75404358,9.43452785 L4.69622276,9.43452785 C4.25825666,9.43452785 3.82837772,8.90285714 3.82837772,8.3611138 C3.82837772,8.32769976 3.8240678,8.2948184 3.81583535,8.26329298 C4.11007264,8.33811138 4.41646489,8.37709443 4.72953995,8.37709443 C5.02590799,8.37709443 5.31636804,8.34213075 5.59612591,8.27496368 C5.56978208,8.83830508 5.14343826,9.43452785 4.75404358,9.43452785 Z M4.72953995,7.60227603 C3.82658596,7.60227603 2.99322034,7.19118644 2.44571429,6.48895884 C2.6211138,6.2611138 2.72556901,5.97588378 2.72556901,5.66677966 L2.72556901,4.70401937 C2.72556901,4.41864407 2.7862954,4.13753027 2.90242131,3.88 L4.82895884,3.88 C4.99113801,3.88 5.13612591,3.77903148 5.19234867,3.62687651 C5.28920097,3.36489104 5.36227603,3.0946247 5.41089588,2.81937046 C6.18653753,3.10169492 6.73336562,3.85292978 6.73336562,4.70401937 L6.73336562,5.66677966 C6.73336562,5.97588378 6.83782082,6.2611138 7.01326877,6.48895884 C6.46581114,7.19123487 5.63249395,7.60227603 4.72953995,7.60227603 Z" id="XMLID_173_"></path>
                </g>
            </g>
        </g>
    </g>
</svg>