<?xml version="1.0" encoding="UTF-8"?>
<svg width="17px" height="20px" viewBox="0 0 17 20" version="1.1" xmlns="http://www.w3.org/2000/svg" xmlns:xlink="http://www.w3.org/1999/xlink">
    <!-- Generator: Sketch 42 (36781) - http://www.bohemiancoding.com/sketch -->
    <title>Health@2x</title>
    <desc>Created with Sketch.</desc>
    <defs></defs>
    <g id="icons" stroke="none" stroke-width="1" fill="none" fill-rule="evenodd">
        <g id="Desktop-Landscape" transform="translate(-200.000000, -127.000000)" fill="#6D6D6D">
            <g id="Health" transform="translate(200.000000, 127.000000)">
                <path d="M2.5,1.66666667 C2.04083333,1.66666667 1.66666667,1.29333333 1.66666667,0.833333333 C1.66666667,0.373333333 2.04083333,0 2.5,0 C2.95916667,0 3.33333333,0.373333333 3.33333333,0.833333333 C3.33333333,1.29333333 2.95916667,1.66666667 2.5,1.66666667" id="Fill-1"></path>
                <path d="M4.58333333,10.8333333 C0.354166667,10.8333333 0,7.6075 0,4.58333333 C0,1.165 1.80416667,0.416666667 2.5,0.416666667 C2.73,0.416666667 2.91666667,0.603333333 2.91666667,0.833333333 C2.91666667,1.06333333 2.73,1.25 2.5,1.25 C2.0675,1.25 0.833333333,1.86166667 0.833333333,4.58333333 C0.833333333,8.01333333 1.44666667,10 4.58333333,10 C4.81333333,10 5,10.1866667 5,10.4166667 C5,10.6466667 4.81333333,10.8333333 4.58333333,10.8333333" id="Fill-3"></path>
                <path d="M6.66625,0.833333333 L6.25041667,0.833333333 L6.66708333,0.834166667 C6.66708333,0.833333333 6.66708333,0.833333333 6.66625,0.833333333 M6.66708333,1.66666667 C6.20708333,1.66666667 5.83375,1.29333333 5.83375,0.833333333 C5.83375,0.373333333 6.20708333,0 6.66708333,0 C7.12625,0 7.50041667,0.373333333 7.50041667,0.833333333 C7.50041667,1.29333333 7.12625,1.66666667 6.66708333,1.66666667" id="Fill-5"></path>
                <path d="M10.4166667,20 L7.91666667,20 C5.84916667,20 4.16666667,18.3175 4.16666667,16.25 L4.16666667,10.4166667 C4.16666667,10.1866667 4.35333333,10 4.58333333,10 C7.72,10 8.33333333,8.01333333 8.33333333,4.58333333 C8.33333333,1.86166667 7.09916667,1.25 6.66666667,1.25 C6.43666667,1.25 6.25,1.06333333 6.25,0.833333333 C6.25,0.603333333 6.43666667,0.416666667 6.66666667,0.416666667 C7.3625,0.416666667 9.16666667,1.165 9.16666667,4.58333333 C9.16666667,7.505 8.83666667,10.615 5,10.8225 L5,16.25 C5,17.8583333 6.30833333,19.1666667 7.91666667,19.1666667 L10.4166667,19.1666667 C12.025,19.1666667 13.3333333,17.8583333 13.3333333,16.25 L13.3333333,15.4166667 C13.3333333,15.1866667 13.52,15 13.75,15 C13.98,15 14.1666667,15.1866667 14.1666667,15.4166667 L14.1666667,16.25 C14.1666667,18.3175 12.4841667,20 10.4166667,20" id="Fill-7"></path>
                <path d="M13.75,10.8333333 C12.6016667,10.8333333 11.6666667,11.7675 11.6666667,12.9166667 C11.6666667,14.0658333 12.6016667,15 13.75,15 C14.8983333,15 15.8333333,14.0658333 15.8333333,12.9166667 C15.8333333,11.7675 14.8983333,10.8333333 13.75,10.8333333 M13.75,15.8333333 C12.1416667,15.8333333 10.8333333,14.525 10.8333333,12.9166667 C10.8333333,11.3083333 12.1416667,10 13.75,10 C15.3583333,10 16.6666667,11.3083333 16.6666667,12.9166667 C16.6666667,14.525 15.3583333,15.8333333 13.75,15.8333333" id="Fill-9"></path>
                <path d="M13.75,12.5 C13.52,12.5 13.3333333,12.6875 13.3333333,12.9166667 C13.3333333,13.1458333 13.52,13.3333333 13.75,13.3333333 C13.98,13.3333333 14.1666667,13.1458333 14.1666667,12.9166667 C14.1666667,12.6875 13.98,12.5 13.75,12.5 M13.75,14.1666667 C13.0608333,14.1666667 12.5,13.6058333 12.5,12.9166667 C12.5,12.2275 13.0608333,11.6666667 13.75,11.6666667 C14.4391667,11.6666667 15,12.2275 15,12.9166667 C15,13.6058333 14.4391667,14.1666667 13.75,14.1666667" id="Fill-11"></path>
            </g>
        </g>
    </g>
</svg>