<?xml version="1.0" encoding="UTF-8"?>
<svg width="20px" height="20px" viewBox="0 0 20 20" version="1.1" xmlns="http://www.w3.org/2000/svg" xmlns:xlink="http://www.w3.org/1999/xlink">
    <!-- Generator: Sketch 42 (36781) - http://www.bohemiancoding.com/sketch -->
    <title>reconstruction@2x</title>
    <desc>Created with Sketch.</desc>
    <defs>
        <polygon id="path-1" points="0 19.9984167 20.0058333 19.9984167 20.0058333 8.33333333e-05 0 8.33333333e-05"></polygon>
    </defs>
    <g id="icons" stroke="none" stroke-width="1" fill="none" fill-rule="evenodd">
        <g id="Desktop-Landscape" transform="translate(-175.000000, -168.000000)">
            <g id="reconstruction" transform="translate(175.000000, 168.000000)">
                <mask id="mask-2" fill="white">
                    <use xlink:href="#path-1"></use>
                </mask>
                <g id="Clip-2"></g>
                <path d="M15.368,19.1650833 L17.5063333,15.95925 L17.5063333,19.1650833 L15.368,19.1650833 Z M15.8396667,0.957583333 L15.8396667,4.16508333 L14.5896667,4.16508333 L3.643,4.16508333 L15.8396667,0.957583333 Z M17.923,4.16508333 L16.673,4.16508333 L16.673,1.60508333 L18.7221667,4.16508333 L17.923,4.16508333 Z M15.368,14.1650833 L17.5063333,10.95925 L17.5063333,14.1650833 L15.368,14.1650833 Z M15.0063333,14.9984167 L17.1446667,14.9984167 L15.0063333,18.2075833 L15.0063333,14.9984167 Z M15.0063333,9.99841667 L17.1446667,9.99841667 L15.0063333,13.2075833 L15.0063333,9.99841667 Z M17.5063333,9.16508333 L15.368,9.16508333 L17.5063333,5.95925 L17.5063333,9.16508333 Z M17.1446667,4.99841667 L15.0063333,8.20758333 L15.0063333,4.99841667 L17.1446667,4.99841667 Z M4.173,14.1650833 L5.00633333,14.1650833 L5.00633333,11.6650833 L4.173,11.6650833 L4.173,14.1650833 Z M0.839666667,14.1650833 L1.673,14.1650833 L1.673,11.6650833 L0.839666667,11.6650833 L0.839666667,14.1650833 Z M2.50633333,14.1650833 L3.33966667,14.1650833 L3.33966667,11.6650833 L2.50633333,11.6650833 L2.50633333,14.1650833 Z M19.5896667,19.1650833 L18.3396667,19.1650833 L18.3396667,4.99841667 L19.5896667,4.99841667 C19.7496667,4.99841667 19.8955,4.90758333 19.9646667,4.76341667 C20.0338333,4.61841667 20.0146667,4.44758333 19.9146667,4.32258333 L16.5813333,0.155916667 C16.578,0.150916667 16.5713333,0.150083333 16.5671667,0.145916667 C16.5213333,0.0934166667 16.4655,0.0534166667 16.3996667,0.02925 C16.3838333,0.0225833333 16.368,0.0234166667 16.3505,0.01925 C16.3196667,0.01175 16.2896667,8.33333333e-05 16.2563333,8.33333333e-05 C16.2305,8.33333333e-05 16.208,0.0100833333 16.183,0.0150833333 C16.1721667,0.01675 16.1613333,0.0109166667 16.1496667,0.01425 L0.316333333,4.18091667 C0.114666667,4.23341667 -0.0178333333,4.42758333 0.00966666667,4.63591667 C0.0363333333,4.84341667 0.213,4.99841667 0.423,4.99841667 L2.50633333,4.99841667 L2.50633333,10.83175 L0.416333333,10.83175 C0.186333333,10.83175 -0.000333333333,11.01925 -0.000333333333,11.24925 L0.00633333333,11.32175 L0.00633333333,14.5834167 C0.00633333333,14.8134167 0.192166667,14.9984167 0.423,14.9984167 L5.423,14.9984167 C5.653,14.9984167 5.83966667,14.8134167 5.83966667,14.5834167 L5.83966667,11.2500833 C5.83966667,11.0200833 5.653,10.83175 5.423,10.83175 L3.33966667,10.83175 L3.33966667,4.99841667 L14.173,4.99841667 L14.173,19.1650833 L0.423,19.1650833 C0.192166667,19.1650833 0.00633333333,19.35175 0.00633333333,19.58175 C0.00633333333,19.81175 0.192166667,19.9984167 0.423,19.9984167 L14.5896667,19.9984167 L17.923,19.9984167 L19.5896667,19.9984167 C19.8196667,19.9984167 20.0063333,19.81175 20.0063333,19.58175 C20.0063333,19.35175 19.8196667,19.1650833 19.5896667,19.1650833 L19.5896667,19.1650833 Z" id="Fill-1" fill="#6D6D6D" mask="url(#mask-2)"></path>
            </g>
        </g>
    </g>
</svg>