<?xml version="1.0" encoding="UTF-8"?>
<svg width="20px" height="20px" viewBox="0 0 20 20" version="1.1" xmlns="http://www.w3.org/2000/svg" xmlns:xlink="http://www.w3.org/1999/xlink">
    <!-- Generator: Sketch 42 (36781) - http://www.bohemiancoding.com/sketch -->
    <title>industry@2x</title>
    <desc>Created with Sketch.</desc>
    <defs>
        <polygon id="path-1" points="10.00003 20 20 20 20 0 10.00003 0 5.9991349e-05 0 5.9991349e-05 20 10.00003 20"></polygon>
    </defs>
    <g id="icons" stroke="none" stroke-width="1" fill="none" fill-rule="evenodd">
        <g id="Desktop-Landscape" transform="translate(-111.000000, -236.000000)">
            <g id="industry" transform="translate(111.000000, 236.000000)">
                <path d="M6.24991667,4.16666667 L2.08325,4.16666667 C1.85325,4.16666667 1.66658333,3.98 1.66658333,3.75 C1.66658333,3.52 1.85325,3.33333333 2.08325,3.33333333 L6.24991667,3.33333333 C6.47991667,3.33333333 6.66658333,3.52 6.66658333,3.75 C6.66658333,3.98 6.47991667,4.16666667 6.24991667,4.16666667" id="Fill-1" fill="#6D6D6D"></path>
                <path d="M6.66658333,7.5 L1.66658333,7.5 C1.43658333,7.5 1.24991667,7.31333333 1.24991667,7.08333333 C1.24991667,6.85333333 1.43658333,6.66666667 1.66658333,6.66666667 L6.66658333,6.66666667 C6.89658333,6.66666667 7.08325,6.85333333 7.08325,7.08333333 C7.08325,7.31333333 6.89658333,7.5 6.66658333,7.5" id="Fill-3" fill="#6D6D6D"></path>
                <path d="M7.08325,10.8333333 L1.24991667,10.8333333 C1.01991667,10.8333333 0.83325,10.6466667 0.83325,10.4166667 C0.83325,10.1866667 1.01991667,10 1.24991667,10 L7.08325,10 C7.31325,10 7.49991667,10.1866667 7.49991667,10.4166667 C7.49991667,10.6466667 7.31325,10.8333333 7.08325,10.8333333" id="Fill-5" fill="#6D6D6D"></path>
                <g id="Group-9">
                    <mask id="mask-2" fill="white">
                        <use xlink:href="#path-1"></use>
                    </mask>
                    <g id="Clip-8"></g>
                    <path d="M1.3785,13.3333333 L6.95433333,13.3333333 L5.86766667,0.833333333 L2.46516667,0.833333333 L1.3785,13.3333333 Z M0.871,19.1666667 L7.46183333,19.1666667 L7.02766667,14.1666667 L1.306,14.1666667 L0.871,19.1666667 Z M8.2985,19.1666667 L19.1668333,19.1666667 L19.1668333,11.2833333 L15.6768333,14.0758333 C15.5518333,14.1758333 15.381,14.1941667 15.236,14.125 C15.0918333,14.0558333 15.0001667,13.91 15.0001667,13.75 L15.0001667,11.2833333 L11.5101667,14.0758333 C11.3851667,14.1758333 11.2143333,14.1941667 11.0693333,14.125 C10.9251667,14.0558333 10.8335,13.91 10.8335,13.75 L10.8335,11.3441667 L7.84933333,13.9975 L8.2985,19.1666667 Z M7.916,20 L7.91183333,20 L0.416833333,20 C0.300166667,20 0.1885,19.9508333 0.109333333,19.865 C0.0301666667,19.7783333 -0.009,19.6641667 0.00183333333,19.5475 L1.6685,0.380833333 C1.68683333,0.165 1.86683333,0 2.0835,0 L6.25016667,0 C6.466,0 6.646,0.165 6.66516667,0.380833333 L7.75933333,12.9625 L10.9735,10.105 C11.096,9.99583333 11.2718333,9.97 11.4201667,10.0366667 C11.5701667,10.1041667 11.6668333,10.2525 11.6668333,10.4166667 L11.6668333,12.8833333 L15.156,10.0908333 C15.281,9.99083333 15.4526667,9.9725 15.5968333,10.0416667 C15.741,10.1108333 15.8335,10.2566667 15.8335,10.4166667 L15.8335,12.8833333 L19.3226667,10.0908333 C19.4485,9.99083333 19.6193333,9.9725 19.7635,10.0416667 C19.9076667,10.1108333 20.0001667,10.2566667 20.0001667,10.4166667 L20.0001667,19.5833333 C20.0001667,19.8133333 19.8135,20 19.5835,20 L7.921,20 L7.916,20 Z" id="Fill-7" fill="#6D6D6D" mask="url(#mask-2)"></path>
                </g>
            </g>
        </g>
    </g>
</svg>